SplineFontDB: 3.2
FontName: SeriousSansBold
FullName: Serious Sans Bold
FamilyName: Serious Sans Bold
Weight: Bold
Copyright: https://github.com/kaBeech/serious-sans/blob/main/LICENSE
Version: 0.2.0
ItalicAngle: 0
UnderlinePosition: 0
UnderlineWidth: 0
Ascent: 1638
Descent: 410
InvalidEm: 0
LayerCount: 2
Layer: 0 1 "Back" 1
Layer: 1 1 "Fore" 0
XUID: [1021 107 -322497659 2235226]
StyleMap: 0x0040
FSType: 4
OS2Version: 3
OS2_WeightWidthSlopeOnly: 0
OS2_UseTypoMetrics: 0
CreationTime: 1532631502
ModificationTime: 1679199671
PfmFamily: 81
TTFWeight: 400
TTFWidth: 5
LineGap: 0
VLineGap: 0
Panose: 0 0 0 0 0 0 0 0 0 0
OS2TypoAscent: 1255
OS2TypoAOffset: 0
OS2TypoDescent: -386
OS2TypoDOffset: 0
OS2TypoLinegap: 200
OS2WinAscent: 1594
OS2WinAOffset: 0
OS2WinDescent: 631
OS2WinDOffset: 0
HheadAscent: 1630
HheadAOffset: 0
HheadDescent: -650
HheadDOffset: 0
OS2SubXSize: 650
OS2SubYSize: 600
OS2SubXOff: 0
OS2SubYOff: 75
OS2SupXSize: 650
OS2SupYSize: 600
OS2SupXOff: 0
OS2SupYOff: 350
OS2StrikeYSize: 0
OS2StrikeYPos: 270
OS2CapHeight: 1180
OS2XHeight: 993
OS2Vendor: 'NONE'
OS2CodePages: 00000001.00000000
OS2UnicodeRanges: 00000001.00000000.00000000.00000000
MarkAttachClasses: 1
DEI: 91125
TtTable: prep
PUSHW_1
 511
SCANCTRL
PUSHB_1
 1
SCANTYPE
SVTCA[y-axis]
MPPEM
PUSHB_1
 8
LT
IF
PUSHB_2
 1
 1
INSTCTRL
EIF
PUSHB_2
 70
 6
CALL
IF
POP
PUSHB_1
 16
EIF
MPPEM
PUSHB_1
 20
GT
IF
POP
PUSHB_1
 128
EIF
SCVTCI
PUSHB_1
 6
CALL
NOT
IF
EIF
PUSHB_1
 20
CALL
EndTTInstrs
TtTable: fpgm
PUSHB_1
 0
FDEF
PUSHB_1
 0
SZP0
MPPEM
PUSHB_1
 42
LT
IF
PUSHB_1
 74
SROUND
EIF
PUSHB_1
 0
SWAP
MIAP[rnd]
RTG
PUSHB_1
 6
CALL
IF
RTDG
EIF
MPPEM
PUSHB_1
 42
LT
IF
RDTG
EIF
DUP
MDRP[rp0,rnd,grey]
PUSHB_1
 1
SZP0
MDAP[no-rnd]
RTG
ENDF
PUSHB_1
 1
FDEF
DUP
MDRP[rp0,min,white]
PUSHB_1
 12
CALL
ENDF
PUSHB_1
 2
FDEF
MPPEM
GT
IF
RCVT
SWAP
EIF
POP
ENDF
PUSHB_1
 3
FDEF
ROUND[Black]
RTG
DUP
PUSHB_1
 64
LT
IF
POP
PUSHB_1
 64
EIF
ENDF
PUSHB_1
 4
FDEF
PUSHB_1
 6
CALL
IF
POP
SWAP
POP
ROFF
IF
MDRP[rp0,min,rnd,black]
ELSE

StartChar: .notdef
Encoding: 65536 -1 0
Width: 1216
GlyphClass: 1
Flags: W
LayerCount: 2
Fore
SplineSet
144.5 -573 m 1,0,-1
 144.5 1559 l 1,1,-1
 1071.5 1559 l 1,2,-1
 1071.5 -573 l 1,3,-1
 144.5 -573 l 1,0,-1
304.5 1399 m 1,4,-1
 304.5 -413 l 1,5,-1
 911.5 -413 l 1,6,-1
 911.5 1399 l 1,7,-1
 304.5 1399 l 1,4,-1
EndSplineSet
EndChar

StartChar: exclam
Encoding: 33 33 1
Width: 1216
GlyphClass: 2
Flags: W
LayerCount: 2
Fore
SplineSet
751.5 1512 m 0,0,1
 751.5 1492.56933594 751.5 1492.56933594 744.360351562 1281.72949219 c 0,2,3
 737.219726562 1070.88964844 737.219726562 1070.88964844 737.219726562 943.643554688 c 0,4,5
 737.219726562 883.881835938 737.219726562 883.881835938 738.860351562 820.106445312 c 0,6,7
 740.5 756.330078125 740.5 756.330078125 740.5 709.4375 c 0,8,9
 740.5 662.543945312 740.5 662.543945312 738.166992188 645.3359375 c 0,10,11
 735.833007812 628.126953125 735.833007812 628.126953125 735.833007812 602.255859375 c 0,12,13
 735.833007812 576.385742188 735.833007812 576.385742188 736.54296875 552.981445312 c 1,14,15
 730.228515625 496.15234375 730.228515625 496.15234375 691.365234375 464.184570312 c 0,16,17
 655.708984375 434.854492188 655.708984375 434.854492188 607.69140625 434.854492188 c 0,18,19
 604.323242188 434.854492188 604.323242188 434.854492188 600.904296875 435.000976562 c 0,20,21
 549.666992188 435.219726562 549.666992188 435.219726562 515.999023438 470.158203125 c 0,22,23
 485.975585938 501.315429688 485.975585938 501.315429688 485.975585938 552.272460938 c 0,24,25
 485.975585938 576.328125 485.975585938 576.328125 492.818359375 616.704101562 c 0,26,27
 499.662109375 657.079101562 499.662109375 657.079101562 501.090820312 675.657226562 c 0,28,29
 502.520507812 694.235351562 502.520507812 694.235351562 503.43359375 738.365234375 c 0,30,31
 504.345703125 782.494140625 504.345703125 782.494140625 504.345703125 823.244140625 c 0,32,33
 504.345703125 863.995117188 504.345703125 863.995117188 500.924804688 947.720703125 c 0,34,35
 496.875 1046.80078125 496.875 1046.80078125 496.875 1136.4375 c 0,36,37
 496.875 1226.07324219 496.875 1226.07324219 498.193359375 1277.921875 c 0,38,39
 499.51171875 1329.77050781 499.51171875 1329.77050781 502.005859375 1405.09570312 c 0,40,41
 504.5 1480.42089844 504.5 1480.42089844 504.5 1505 c 2,42,-1
 504.516601562 1505.90625 l 1,43,44
 506.87109375 1571.84277344 506.87109375 1571.84277344 542.484375 1606.83105469 c 0,45,46
 578.06640625 1641.7890625 578.06640625 1641.7890625 629.91796875 1641.99902344 c 0,47,48
 635.112304688 1642.14550781 635.112304688 1642.14550781 636.8046875 1642.14550781 c 0,49,50
 686.59765625 1642.14550781 686.59765625 1642.14550781 719.048828125 1610.31835938 c 0,51,52
 751.5 1578.49121094 751.5 1578.49121094 751.5 1512 c 0,0,1
592.153320312 -76.11328125 m 0,53,54
 520.247070312 -76.11328125 520.247070312 -76.11328125 471.553710938 -25.8984375 c 0,55,56
 416.5 30.8759765625 416.5 30.8759765625 416.5 110 c 0,57,58
 416.5 183.4921875 416.5 183.4921875 476.63671875 235.038085938 c 0,59,60
 540.977539062 290.1875 540.977539062 290.1875 619.319335938 290.1875 c 0,61,62
 697.661132812 290.1875 697.661132812 290.1875 747.173828125 240.673828125 c 0,63,64
 799.5 188.348632812 799.5 188.348632812 799.5 112.541015625 c 0,65,66
 799.5 36.734375 799.5 36.734375 748.7578125 -14.583984375 c 0,67,68
 698.016601562 -65.90234375 698.016601562 -65.90234375 615.177734375 -74.8583984375 c 0,69,70
 603.412109375 -76.11328125 603.412109375 -76.11328125 592.153320312 -76.11328125 c 0,53,54
EndSplineSet
EndChar

StartChar: quotedbl
Encoding: 34 34 2
Width: 1216
GlyphClass: 2
Flags: W
LayerCount: 2
Fore
SplineSet
577.271484375 1512.60546875 m 2,0,1
 577.89453125 1486.45703125 577.89453125 1486.45703125 577.89453125 1427.6171875 c 128,-1,2
 577.89453125 1368.77832031 577.89453125 1368.77832031 574.068359375 1205.95410156 c 0,3,4
 570.078125 1036.171875 570.078125 1036.171875 561.014648438 969.354492188 c 0,5,6
 553.473632812 917.827148438 553.473632812 917.827148438 515.25390625 890.620117188 c 0,7,8
 481.829101562 866.826171875 481.829101562 866.826171875 443.991210938 866.826171875 c 0,9,10
 391.997070312 866.826171875 391.997070312 866.826171875 349.94921875 897.876953125 c 0,11,12
 311.612304688 926.1875 311.612304688 926.1875 311.612304688 974.622070312 c 0,13,14
 311.612304688 981.279296875 311.612304688 981.279296875 312.372070312 988.245117188 c 0,15,16
 317.723632812 1068.13769531 317.723632812 1068.13769531 317.723632812 1183.77148438 c 0,17,18
 317.723632812 1216.99707031 317.723632812 1216.99707031 317.280273438 1253.18847656 c 0,19,20
 314.748046875 1460.25390625 314.748046875 1460.25390625 309.970703125 1530.52636719 c 1,21,22
 309.970703125 1557.80273438 309.970703125 1557.80273438 322.930664062 1579.00976562 c 0,23,24
 338.31640625 1604.18652344 338.31640625 1604.18652344 365.11328125 1614.76367188 c 0,25,26
 401.811523438 1629.25 401.811523438 1629.25 439.810546875 1629.25 c 0,27,28
 469.728515625 1629.25 469.728515625 1629.25 490.005859375 1623.71972656 c 128,-1,29
 510.284179688 1618.18945312 510.284179688 1618.18945312 530.244140625 1605.95605469 c 128,-1,30
 550.204101562 1593.72167969 550.204101562 1593.72167969 563.124023438 1569.17578125 c 128,-1,31
 576.04296875 1544.62890625 576.04296875 1544.62890625 577.259765625 1512.97558594 c 2,32,-1
 577.271484375 1512.60546875 l 2,0,1
905.278320312 1512.31835938 m 0,33,34
 906.029296875 1491.078125 906.029296875 1491.078125 906.029296875 1472.74609375 c 0,35,36
 906.029296875 1368.734375 906.029296875 1368.734375 902.637695312 1205.94824219 c 0,37,38
 899.104492188 1036.36425781 899.104492188 1036.36425781 890.014648438 969.354492188 c 0,39,40
 882.473632812 917.827148438 882.473632812 917.827148438 844.25390625 890.620117188 c 0,41,42
 810.829101562 866.826171875 810.829101562 866.826171875 772.158203125 866.826171875 c 0,43,44
 720.997070312 866.826171875 720.997070312 866.826171875 678.94921875 897.876953125 c 0,45,46
 640.612304688 926.1875 640.612304688 926.1875 640.612304688 974.622070312 c 0,47,48
 640.612304688 981.219726562 640.612304688 981.219726562 641.358398438 988.119140625 c 0,49,50
 645.825195312 1057.90820312 645.825195312 1057.90820312 645.825195312 1155.37304688 c 0,51,52
 645.825195312 1362.43652344 645.825195312 1362.43652344 638.298828125 1521.98535156 c 0,53,54
 638.1953125 1524.57519531 638.1953125 1524.57519531 638.1953125 1527.11816406 c 0,55,56
 638.1953125 1556.53320312 638.1953125 1556.53320312 652.755859375 1580.359375 c 128,-1,57
 667.31640625 1604.18652344 667.31640625 1604.18652344 694.11328125 1614.76367188 c 0,58,59
 730.811523438 1629.25 730.811523438 1629.25 767.841796875 1629.25 c 0,60,61
 798.856445312 1629.25 798.856445312 1629.25 818.52734375 1623.71777344 c 128,-1,62
 838.198242188 1618.18554688 838.198242188 1618.18554688 857.015625 1607.01269531 c 0,63,64
 879.116210938 1593.88964844 879.116210938 1593.88964844 892.165039062 1569.09667969 c 128,-1,65
 905.21484375 1544.30273438 905.21484375 1544.30273438 905.278320312 1512.31835938 c 0,33,34
EndSplineSet
EndChar

StartChar: numbersign
Encoding: 35 35 3
Width: 1216
GlyphClass: 2
Flags: W
LayerCount: 2
Fore
SplineSet
304.021484375 883.467773438 m 1,0,1
 247.875976562 881.845703125 247.875976562 881.845703125 241.87109375 881.845703125 c 0,2,3
 187 881.845703125 187 881.845703125 154.977539062 910.310546875 c 0,4,5
 119.875976562 941.512695312 119.875976562 941.512695312 119.578125 987.290039062 c 0,6,7
 119.432617188 990.209960938 119.432617188 990.209960938 119.432617188 993.091796875 c 0,8,9
 119.432617188 1036.20507812 119.432617188 1036.20507812 151.61328125 1068.38671875 c 0,10,11
 183.794921875 1100.56738281 183.794921875 1100.56738281 246.444335938 1102.97558594 c 0,12,13
 280.953125 1104.73730469 280.953125 1104.73730469 346.77734375 1104.96582031 c 1,14,-1
 402.255859375 1403.98730469 l 1,15,16
 421.555664062 1466.71191406 421.555664062 1466.71191406 464.564453125 1491.64453125 c 0,17,18
 494.145507812 1508.79296875 494.145507812 1508.79296875 526.326171875 1508.79296875 c 0,19,20
 540.536132812 1508.79296875 540.536132812 1508.79296875 554.974609375 1505.41699219 c 0,21,22
 608.37109375 1494.3671875 608.37109375 1494.3671875 636.99609375 1453.91796875 c 0,23,24
 657.134765625 1425.46191406 657.134765625 1425.46191406 657.134765625 1386.1484375 c 0,25,26
 657.134765625 1368.56054688 657.134765625 1368.56054688 653.072265625 1348.99121094 c 0,27,28
 653.056640625 1348.91308594 653.056640625 1348.91308594 604.185546875 1109 c 1,29,-1
 784.763671875 1109 l 1,30,-1
 836.228515625 1387.84863281 l 1,31,32
 855.42578125 1452.63671875 855.42578125 1452.63671875 898.564453125 1477.64453125 c 0,33,34
 927.352539062 1494.33300781 927.352539062 1494.33300781 959.51953125 1494.33300781 c 0,35,36
 975.057617188 1494.33300781 975.057617188 1494.33300781 991.072265625 1490.3984375 c 0,37,38
 1045.28515625 1479.36523438 1045.28515625 1479.36523438 1073.88867188 1439.56835938 c 0,39,40
 1092.87304688 1413.15625 1092.87304688 1413.15625 1092.87304688 1376.71484375 c 0,41,42
 1092.87304688 1356.22558594 1092.87304688 1356.22558594 1086.78027344 1332.7265625 c 0,43,44
 1067.01464844 1256.35839844 1067.01464844 1256.35839844 1041.33886719 1111.91796875 c 1,45,46
 1096.60839844 1110.33105469 1096.60839844 1110.33105469 1134.03515625 1079.23730469 c 0,47,48
 1174.85449219 1045.32617188 1174.85449219 1045.32617188 1177.57519531 1001.79199219 c 1,49,-1
 1177.57519531 1001 l 2,50,51
 1177.57519531 953.943359375 1177.57519531 953.943359375 1146.10253906 921.185546875 c 0,52,53
 1114.62304688 888.421875 1114.62304688 888.421875 1054.58984375 886.020507812 c 1,54,-1
 1053.57519531 886 l 1,55,-1
 999.716796875 886 l 1,56,-1
 949.145507812 586 l 1,57,-1
 1003.57519531 586 l 2,58,59
 1062.86328125 586 1062.86328125 586 1087.953125 557.51953125 c 0,60,61
 1113.04296875 529.0390625 1113.04296875 529.0390625 1115.53417969 485.446289062 c 1,62,-1
 1115.57519531 484 l 1,63,64
 1115.57519531 435.466796875 1115.57519531 435.466796875 1093.17773438 406.50390625 c 0,65,66
 1064.17480469 369 1064.17480469 369 1003.57519531 369 c 2,67,-1
 910.557617188 369 l 1,68,69
 872.315429688 152.451171875 872.315429688 152.451171875 854.610351562 69.8291015625 c 1,70,71
 833.55859375 15.3427734375 833.55859375 15.3427734375 783.35546875 -11.552734375 c 0,72,73
 750.461914062 -29.173828125 750.461914062 -29.173828125 717.643554688 -29.173828125 c 0,74,75
 700.311523438 -29.173828125 700.311523438 -29.173828125 683.374023438 -24.2412109375 c 0,76,77
 633.953125 -13.3056640625 633.953125 -13.3056640625 609.928710938 37.904296875 c 0,78,79
 596.958007812 65.552734375 596.958007812 65.552734375 596.958007812 97.0439453125 c 0,80,81
 596.958007812 120.916015625 596.958007812 120.916015625 604.459960938 146.622070312 c 0,82,83
 623.340820312 220.452148438 623.340820312 220.452148438 651.36328125 366.901367188 c 1,84,85
 613.987304688 366.686523438 613.987304688 366.686523438 554.524414062 365.9609375 c 0,86,87
 495.0625 365.235351562 495.0625 365.235351562 458.046875 365.055664062 c 1,88,89
 401.986328125 87.6611328125 401.986328125 87.6611328125 398.1875 76.7724609375 c 0,90,91
 380.266601562 25.3994140625 380.266601562 25.3994140625 328.19140625 -6.7822265625 c 0,92,93
 291.959960938 -29.1728515625 291.959960938 -29.1728515625 257.178710938 -29.1728515625 c 0,94,95
 240.733398438 -29.1728515625 240.733398438 -29.1728515625 225.009765625 -24.1591796875 c 0,96,97
 175.243164062 -12.9111328125 175.243164062 -12.9111328125 152.018554688 42.3271484375 c 0,98,99
 140.155273438 70.54296875 140.155273438 70.54296875 140.155273438 99.306640625 c 0,100,101
 140.155273438 128.0703125 140.155273438 128.0703125 148.599609375 156.1015625 c 0,102,103
 162.984375 205.590820312 162.984375 205.590820312 198.359375 363 c 1,104,-1
 168.575195312 363 l 2,105,106
 108.205078125 363 108.205078125 363 75.0361328125 388.033203125 c 0,107,108
 38.888671875 415.314453125 38.888671875 415.314453125 38.578125 461.302734375 c 0,109,110
 38.4248046875 464.435546875 38.4248046875 464.435546875 38.4248046875 467.516601562 c 0,111,112
 38.4248046875 511.087890625 38.4248046875 511.087890625 68.9638671875 542.250976562 c 0,113,114
 99.50390625 573.413085938 99.50390625 573.413085938 161.995117188 576.951171875 c 0,115,116
 178.411132812 577.9765625 178.411132812 577.9765625 204.52734375 578.745117188 c 0,117,118
 230.643554688 579.512695312 230.643554688 579.512695312 243.852539062 580.041992188 c 1,119,-1
 304.021484375 883.467773438 l 1,0,1
745.897460938 886 m 1,120,-1
 561.07421875 886 l 1,121,-1
 501.200195312 586.629882812 l 1,122,123
 574.385742188 587.890625 574.385742188 587.890625 691.008789062 587.991210938 c 1,124,125
 719.18359375 731.818359375 719.18359375 731.818359375 745.897460938 886 c 1,120,-1
EndSplineSet
EndChar

StartChar: dollar
Encoding: 36 36 4
Width: 1216
GlyphClass: 2
Flags: W
LayerCount: 2
Fore
SplineSet
680.840820312 -266.205078125 m 128,-1,1
 640.20703125 -296.038085938 640.20703125 -296.038085938 586.962890625 -296.038085938 c 0,2,3
 585.049804688 -296.038085938 585.049804688 -296.038085938 583.127929688 -296 c 0,4,5
 528.059570312 -295.874023438 528.059570312 -295.874023438 498.755859375 -259.53515625 c 0,6,7
 476.712890625 -232.200195312 476.712890625 -232.200195312 476.712890625 -188.529296875 c 0,8,9
 476.712890625 -178.237304688 476.712890625 -178.237304688 479.110351562 -152.939453125 c 128,-1,10
 481.5078125 -127.641601562 481.5078125 -127.641601562 482.075195312 -64.6005859375 c 1,11,12
 409.12890625 -62.755859375 409.12890625 -62.755859375 339.26171875 -45.29296875 c 0,13,14
 272.084960938 -27.8310546875 272.084960938 -27.8310546875 222.221679688 3.73046875 c 0,15,16
 124.286132812 65.7197265625 124.286132812 65.7197265625 77.990234375 151.73046875 c 1,17,18
 56.5302734375 197.780273438 56.5302734375 197.780273438 56.5302734375 232.514648438 c 0,19,20
 56.5302734375 244.708007812 56.5302734375 244.708007812 59.0966796875 255.661132812 c 0,21,22
 69.92578125 301.869140625 69.92578125 301.869140625 116.07421875 323.11328125 c 0,23,24
 142.344726562 334.857421875 142.344726562 334.857421875 157.231445312 338.245117188 c 128,-1,25
 172.1171875 341.6328125 172.1171875 341.6328125 182.58203125 341.6328125 c 128,-1,26
 193.047851562 341.6328125 193.047851562 341.6328125 200.833984375 340.765625 c 0,27,28
 225.842773438 337.977539062 225.842773438 337.977539062 246.461914062 320.913085938 c 128,-1,29
 267.081054688 303.849609375 267.081054688 303.849609375 288.190429688 274.58984375 c 1,30,31
 328.934570312 216.7890625 328.934570312 216.7890625 381.711914062 183.926757812 c 0,32,33
 424.837890625 157.07421875 424.837890625 157.07421875 487.946289062 153.299804688 c 1,34,35
 491.809570312 458.21875 491.809570312 458.21875 491.974609375 702.592773438 c 1,36,37
 485.14453125 703.415039062 485.14453125 703.415039062 468.041992188 705.602539062 c 0,38,39
 456.126953125 707.126953125 456.126953125 707.126953125 435.624023438 708.788085938 c 0,40,41
 351.208984375 717.07421875 351.208984375 717.07421875 282.986328125 748.916015625 c 0,42,43
 218.764648438 780.758789062 218.764648438 780.758789062 178.345703125 826.490234375 c 128,-1,44
 137.926757812 872.221679688 137.926757812 872.221679688 115.698242188 924.044921875 c 128,-1,45
 93.4697265625 975.869140625 93.4697265625 975.869140625 93.4697265625 1027.59179688 c 0,46,47
 93.4697265625 1103.82519531 93.4697265625 1103.82519531 117.798828125 1173.46777344 c 128,-1,48
 142.186523438 1243.27734375 142.186523438 1243.27734375 191.072265625 1303.39941406 c 128,-1,49
 239.958984375 1363.52050781 239.958984375 1363.52050781 320.794921875 1406.84765625 c 0,50,51
 398.083007812 1445.61132812 398.083007812 1445.61132812 495.3203125 1464.28320312 c 1,52,53
 497.427734375 1505.56445312 497.427734375 1505.56445312 497.427734375 1560.15039062 c 2,54,55
 497.432617188 1539.16210938 497.432617188 1539.16210938 497.4375 1560.81445312 c 1,56,57
 500.354492188 1658.32910156 500.354492188 1658.32910156 565.913085938 1684.953125 c 0,58,59
 587.825195312 1694.07714844 587.825195312 1694.07714844 620.340820312 1694.08007812 c 0,60,61
 687.748046875 1694.08007812 687.748046875 1694.08007812 719.263671875 1651.12304688 c 0,62,63
 742.465820312 1619.49707031 742.465820312 1619.49707031 742.465820312 1566.21289062 c 2,64,65
 742.465820312 1503.92285156 742.465820312 1503.92285156 742.465820312 1482.07714844 c 1,66,67
 789.064453125 1477.10058594 789.064453125 1477.10058594 868.719726562 1460.703125 c 0,68,69
 945.540039062 1444.30664062 945.540039062 1444.30664062 987.076171875 1429.13378906 c 0,70,71
 1034.70800781 1412.39746094 1034.70800781 1412.39746094 1056.75585938 1374.29785156 c 0,72,73
 1073.00195312 1346.22460938 1073.00195312 1346.22460938 1073.00195312 1314.59179688 c 0,74,75
 1073.00195312 1304.14160156 1073.00195312 1304.14160156 1071.2109375 1293.42871094 c 0,76,77
 1067.05566406 1262.09082031 1067.05566406 1262.09082031 1047.64355469 1243.15527344 c 128,-1,78
 1028.10253906 1224.09277344 1028.10253906 1224.09277344 1000.17480469 1220.59960938 c 0,79,80
 986.396484375 1218.87695312 986.396484375 1218.87695312 975.921875 1218.87695312 c 128,-1,81
 965.448242188 1218.87695312 965.448242188 1218.87695312 951.905273438 1220.00878906 c 128,-1,82
 938.362304688 1221.14160156 938.362304688 1221.14160156 918.513671875 1226.453125 c 0,83,84
 895.340820312 1231.03613281 895.340820312 1231.03613281 864.689453125 1244.2734375 c 0,85,86
 803.948242188 1270.50585938 803.948242188 1270.50585938 739.823242188 1275.85351562 c 1,87,88
 736.43359375 1078.10839844 736.43359375 1078.10839844 733.044921875 899.412109375 c 1,89,90
 824.657226562 885.87890625 824.657226562 885.87890625 903.739257812 855.520507812 c 0,91,92
 977.169921875 825.162109375 977.169921875 825.162109375 1025.296875 782.387695312 c 128,-1,93
 1073.3359375 739.69140625 1073.3359375 739.69140625 1104.73925781 684.655273438 c 128,-1,94
 1136.14257812 629.619140625 1136.14257812 629.619140625 1147.80566406 576.349609375 c 128,-1,95
 1159.46972656 523.080078125 1159.46972656 523.080078125 1159.46972656 465.858398438 c 0,96,97
 1159.46972656 369.571289062 1159.46972656 369.571289062 1125.27734375 283.875 c 128,-1,98
 1091.07226562 198.150390625 1091.07226562 198.150390625 1031.20996094 134.631835938 c 128,-1,99
 971.34765625 71.1142578125 971.34765625 71.1142578125 890.759765625 25.859375 c 0,100,101
 814.010742188 -14.66015625 814.010742188 -14.66015625 725.0625 -37.5810546875 c 1,102,103
 725.311523438 -141.44921875 725.311523438 -141.44921875 728.41796875 -180.404296875 c 1,104,0
 721.474609375 -236.372070312 721.474609375 -236.372070312 680.840820312 -266.205078125 c 128,-1,1
386.7109375 1198.99121094 m 0,105,106
 336.24609375 1151.78710938 336.24609375 1151.78710938 336.24609375 1087 c 0,107,108
 336.24609375 1032.71484375 336.24609375 1032.71484375 383.866210938 991.111328125 c 0,109,110
 424.95703125 955.212890625 424.95703125 955.212890625 492.434570312 935.614257812 c 1,111,112
 494.0234375 1061.83105469 494.0234375 1061.83105469 494.149414062 1262.0625 c 1,113,114
 429.162109375 1238.69921875 429.162109375 1238.69921875 386.7109375 1198.99121094 c 0,105,106
855.65625 280.235351562 m 0,115,116
 918.469726562 344.603515625 918.469726562 344.603515625 918.469726562 425 c 0,117,118
 918.469726562 460.633789062 918.469726562 460.633789062 910.09375 490.260742188 c 0,119,120
 901.293945312 519.887695312 901.293945312 519.887695312 879.420898438 552.0234375 c 0,121,122
 840.119140625 609.764648438 840.119140625 609.764648438 730.200195312 650.251953125 c 1,123,124
 728.30859375 414.352539062 728.30859375 414.352539062 727.87890625 343.208984375 c 128,-1,125
 727.44921875 272.06640625 727.44921875 272.06640625 725.916015625 190.346679688 c 1,126,127
 802.388671875 226.015625 802.388671875 226.015625 855.65625 280.235351562 c 0,115,116
EndSplineSet
EndChar

StartChar: percent
Encoding: 37 37 5
Width: 1216
GlyphClass: 2
Flags: W
LayerCount: 2
Fore
SplineSet
57.775390625 1006.20117188 m 128,-1,1
 28.232421875 1068.52734375 28.232421875 1068.52734375 28.232421875 1138.19042969 c 0,2,3
 28.232421875 1140.62304688 28.232421875 1140.62304688 28.267578125 1143.06347656 c 0,4,5
 28.3203125 1272.69921875 28.3203125 1272.69921875 105.58203125 1358.34960938 c 128,-1,6
 182.84375 1444 182.84375 1444 327.25390625 1444 c 0,7,8
 451.297851562 1444 451.297851562 1444 534.83984375 1370.92773438 c 0,9,10
 578.173828125 1333.0234375 578.173828125 1333.0234375 599.606445312 1269.1171875 c 0,11,12
 615.94921875 1220.38183594 615.94921875 1220.38183594 615.94921875 1160.01757812 c 0,13,14
 615.94921875 1005.39648438 615.94921875 1005.39648438 528.416015625 928.33203125 c 0,15,16
 450.78515625 859.984375 450.78515625 859.984375 296.021484375 859.984375 c 0,17,18
 211.810546875 859.984375 211.810546875 859.984375 149.564453125 901.9296875 c 128,-1,0
 87.318359375 943.875 87.318359375 943.875 57.775390625 1006.20117188 c 128,-1,1
126.384765625 -92.734375 m 0,19,20
 100.2421875 -80.6533203125 100.2421875 -80.6533203125 83.73828125 -61.5751953125 c 0,21,22
 61.6796875 -36.076171875 61.6796875 -36.076171875 61.6796875 -2.7158203125 c 128,-1,23
 61.6796875 30.6455078125 61.6796875 30.6455078125 81.8408203125 69.7265625 c 0,24,25
 125.228515625 155.67578125 125.228515625 155.67578125 286.970703125 428.69921875 c 0,26,27
 634.984375 977.276367188 634.984375 977.276367188 634.984375 979.09375 c 0,28,29
 808.94140625 1256.01464844 808.94140625 1256.01464844 868.73828125 1375.80566406 c 1,30,31
 869.30859375 1354.15820312 869.30859375 1354.15820312 869.879882812 1377.38183594 c 2,32,33
 901.813476562 1421.48339844 901.813476562 1421.48339844 954.19921875 1432.37597656 c 0,34,35
 969.194335938 1435.79296875 969.194335938 1435.79296875 983.8515625 1435.79296875 c 0,36,37
 1016.29003906 1435.79296875 1016.29003906 1435.79296875 1045.79980469 1419.20019531 c 0,38,39
 1092.75 1397.32324219 1092.75 1397.32324219 1100.39453125 1354.93066406 c 0,40,41
 1101.69824219 1347.70019531 1101.69824219 1347.70019531 1101.69824219 1340.04785156 c 0,42,43
 1101.69824219 1306.16894531 1101.69824219 1306.16894531 1075.64453125 1264.125 c 0,44,45
 999.884765625 1143.4765625 999.884765625 1143.4765625 695.671875 648.125976562 c 0,46,47
 386.790039062 152.798828125 386.790039062 152.798828125 287.430664062 -22.3056640625 c 1,48,49
 240.118164062 -105.2109375 240.118164062 -105.2109375 175.846679688 -105.2109375 c 0,50,51
 152.528320312 -105.2109375 152.528320312 -105.2109375 126.384765625 -92.734375 c 0,19,20
381.944335938 1223.5703125 m 128,-1,53
 357.595703125 1245 357.595703125 1245 309.959960938 1245 c 0,54,55
 270.904296875 1245 270.904296875 1245 251.913085938 1222.31640625 c 0,56,57
 229.736328125 1195.82714844 229.736328125 1195.82714844 225.232421875 1147.87792969 c 0,58,59
 225.111328125 1143.04101562 225.111328125 1143.04101562 225.110351562 1141.44433594 c 0,60,61
 225.110351562 1104.42285156 225.110351562 1104.42285156 241.58203125 1085.62695312 c 128,-1,62
 258.134765625 1066.73730469 258.134765625 1066.73730469 316.637695312 1062.98242188 c 0,63,64
 317.619140625 1062.97070312 317.619140625 1062.97070312 318.583984375 1062.97070312 c 0,65,66
 358.380859375 1062.97070312 358.380859375 1062.97070312 378.0546875 1082.8984375 c 0,67,68
 401.40234375 1106.54980469 401.40234375 1106.54980469 406.194335938 1148.71582031 c 0,69,70
 406.29296875 1151.84570312 406.29296875 1151.84570312 406.29296875 1154.85546875 c 0,71,52
 406.29296875 1202.140625 406.29296875 1202.140625 381.944335938 1223.5703125 c 128,-1,53
632.618164062 70.4599609375 m 128,-1,73
 600.684570312 135.454101562 600.684570312 135.454101562 600.684570312 208.099609375 c 0,74,75
 600.684570312 210.635742188 600.684570312 210.635742188 600.72265625 213.181640625 c 0,76,77
 600.780273438 348.366210938 600.780273438 348.366210938 684.291992188 437.682617188 c 128,-1,78
 767.8046875 527 767.8046875 527 918.508789062 527 c 0,79,80
 1036.02636719 527 1036.02636719 527 1113.31542969 450.799804688 c 0,81,82
 1153.40625 411.2734375 1153.40625 411.2734375 1173.234375 344.631835938 c 0,83,84
 1187.76757812 295.782226562 1187.76757812 295.782226562 1187.76757812 235.78125 c 0,85,86
 1187.76757812 216.208984375 1187.76757812 216.208984375 1186.22167969 195.444335938 c 0,87,88
 1179.68457031 61.068359375 1179.68457031 61.068359375 1107.9765625 -10.4658203125 c 128,-1,89
 1036.26757812 -82 1036.26757812 -82 892.563476562 -82.0595703125 c 0,90,91
 888.073242188 -82.0595703125 888.073242188 -82.0595703125 883.538085938 -81.9970703125 c 0,92,93
 797.384765625 -80.890625 797.384765625 -80.890625 730.96875 -37.7119140625 c 128,-1,72
 664.55078125 5.4658203125 664.55078125 5.4658203125 632.618164062 70.4599609375 c 128,-1,73
907.90234375 123.97265625 m 0,94,95
 910.197265625 123.887695312 910.197265625 123.887695312 912.62890625 123.887695312 c 0,96,97
 948.833984375 123.887695312 948.833984375 123.887695312 966.793945312 146.170898438 c 0,98,99
 988.762695312 173.428710938 988.762695312 173.428710938 992.288085938 218.243164062 c 0,100,101
 992.34375 222.362304688 992.34375 222.362304688 992.34375 223.7265625 c 0,102,103
 992.34375 272.375 992.34375 272.375 974.75390625 297.34375 c 0,104,105
 954.56640625 326 954.56640625 326 902.294921875 326 c 0,106,107
 863.918945312 326 863.918945312 326 842.858398438 300.021484375 c 0,108,109
 818.662109375 270.173828125 818.662109375 270.173828125 815.798828125 217.9140625 c 0,110,111
 815.654296875 212.252929688 815.654296875 212.252929688 815.653320312 210.372070312 c 0,112,113
 815.653320312 169.116210938 815.653320312 169.116210938 833.45703125 147.73828125 c 128,-1,114
 851.202148438 126.430664062 851.202148438 126.430664062 907.90234375 123.97265625 c 0,94,95
EndSplineSet
EndChar

StartChar: ampersand
Encoding: 38 38 6
Width: 1216
GlyphClass: 2
Flags: W
LayerCount: 2
Fore
SplineSet
1133.5859375 22.763671875 m 0,0,1
 1133.5859375 11.955078125 1133.5859375 11.955078125 1132.45410156 0.923828125 c 0,2,3
 1125.16992188 -70.09765625 1125.16992188 -70.09765625 1083.19140625 -93.5966796875 c 1,4,5
 1044.56054688 -108.319335938 1044.56054688 -108.319335938 1033.33789062 -108.319335938 c 0,6,7
 1032.59863281 -108.319335938 1032.59863281 -108.319335938 1031.97851562 -108.254882812 c 0,8,9
 1004.56738281 -108.254882812 1004.56738281 -108.254882812 975.241210938 -93.2802734375 c 0,10,11
 921.555664062 -65.8662109375 921.555664062 -65.8662109375 884.840820312 -1.3359375 c 0,12,13
 879.663085938 8.3603515625 879.663085938 8.3603515625 865.682617188 44.564453125 c 128,-1,14
 851.703125 80.76953125 851.703125 80.76953125 845.67578125 95.6240234375 c 1,15,16
 825.495117188 68.8466796875 825.495117188 68.8466796875 814.94921875 56.19140625 c 128,-1,17
 804.403320312 43.537109375 804.403320312 43.537109375 780.450195312 17.5009765625 c 128,-1,18
 756.497070312 -8.53515625 756.497070312 -8.53515625 738.280273438 -22.4658203125 c 128,-1,19
 720.063476562 -36.396484375 720.063476562 -36.396484375 690.390625 -56.001953125 c 128,-1,20
 660.717773438 -75.607421875 660.717773438 -75.607421875 632.440429688 -85.3955078125 c 128,-1,21
 604.163085938 -95.18359375 604.163085938 -95.18359375 567.122070312 -102.591796875 c 128,-1,22
 530.081054688 -110 530.081054688 -110 490.5859375 -110 c 0,23,24
 368.506835938 -110 368.506835938 -110 267.701171875 -47.9248046875 c 128,-1,25
 166.895507812 14.1494140625 166.895507812 14.1494140625 110.205078125 116.404296875 c 128,-1,26
 53.5859375 218.53125 53.5859375 218.53125 53.5859375 337 c 0,27,28
 53.5859375 515.034179688 53.5859375 515.034179688 119.529296875 643.779296875 c 0,29,30
 196.594726562 794.236328125 196.594726562 794.236328125 362.49609375 875.772460938 c 1,31,32
 348.629882812 897.923828125 348.629882812 897.923828125 326.5078125 932.3359375 c 128,-1,33
 304.38671875 966.747070312 304.38671875 966.747070312 293.08203125 985.24609375 c 128,-1,34
 281.776367188 1003.74511719 281.776367188 1003.74511719 266.388671875 1033.45996094 c 128,-1,35
 251.000976562 1063.17480469 251.000976562 1063.17480469 245.522460938 1085.63378906 c 0,36,37
 230.5859375 1146.87597656 230.5859375 1146.87597656 230.5859375 1207 c 0,38,39
 230.5859375 1246.42578125 230.5859375 1246.42578125 241.540039062 1285.86035156 c 128,-1,40
 252.493164062 1325.29394531 252.493164062 1325.29394531 278.614257812 1366.10742188 c 128,-1,41
 304.734375 1406.92089844 304.734375 1406.92089844 343.697265625 1438.20019531 c 128,-1,42
 382.659179688 1469.48046875 382.659179688 1469.48046875 444.71875 1488.74023438 c 128,-1,43
 506.779296875 1508 506.779296875 1508 582.5859375 1508 c 0,44,45
 646.658203125 1508 646.658203125 1508 707.487304688 1487.72363281 c 128,-1,46
 768.360351562 1467.43261719 768.360351562 1467.43261719 819.438476562 1428.85253906 c 128,-1,47
 870.516601562 1390.27148438 870.516601562 1390.27148438 901.05078125 1326.4765625 c 128,-1,48
 931.5859375 1262.68066406 931.5859375 1262.68066406 931.5859375 1185 c 0,49,50
 931.5859375 1116.30371094 931.5859375 1116.30371094 913.530273438 1056.29492188 c 128,-1,51
 895.452148438 996.212890625 895.452148438 996.212890625 868.006835938 955.313476562 c 128,-1,52
 840.560546875 914.413085938 840.560546875 914.413085938 799.587890625 878.16796875 c 128,-1,53
 758.614257812 841.922851562 758.614257812 841.922851562 729.3984375 823.494140625 c 128,-1,54
 700.18359375 805.06640625 700.18359375 805.06640625 670.09375 789.657226562 c 1,55,56
 707.8203125 729.08203125 707.8203125 729.08203125 773.732421875 635.986328125 c 128,-1,57
 839.64453125 542.890625 839.64453125 542.890625 870.173828125 497.71875 c 1,58,59
 875.77734375 509.833007812 875.77734375 509.833007812 887.288085938 535.5625 c 128,-1,60
 898.798828125 561.291992188 898.798828125 561.291992188 910.244140625 586.263671875 c 128,-1,61
 921.689453125 611.235351562 921.689453125 611.235351562 929.918945312 623.065429688 c 0,62,63
 970.3046875 683.571289062 970.3046875 683.571289062 1010.74121094 698.887695312 c 0,64,65
 1027.68945312 705.307617188 1027.68945312 705.307617188 1046.00585938 705.307617188 c 0,66,67
 1073.81933594 705.307617188 1073.81933594 705.307617188 1103.61816406 690.4375 c 0,68,69
 1149.93359375 667.858398438 1149.93359375 667.858398438 1160.18261719 611.494140625 c 0,70,71
 1162.4140625 599.216796875 1162.4140625 599.216796875 1162.4140625 586.310546875 c 0,72,73
 1162.4140625 542.971679688 1162.4140625 542.971679688 1138.72363281 496.381835938 c 0,74,75
 1127.60058594 475.248046875 1127.60058594 475.248046875 1079.35546875 415.177734375 c 128,-1,76
 1031.109375 355.106445312 1031.109375 355.106445312 1000.07714844 308.435546875 c 1,77,78
 1021.95019531 271.69140625 1021.95019531 271.69140625 1059.86523438 204.999023438 c 128,-1,79
 1097.77929688 138.306640625 1097.77929688 138.306640625 1105.33886719 124.333984375 c 0,80,81
 1133.5859375 77 1133.5859375 77 1133.5859375 22.763671875 c 0,0,1
475.5859375 1172 m 0,82,83
 475.5859375 1126.39160156 475.5859375 1126.39160156 499.846679688 1072.67089844 c 128,-1,84
 524.107421875 1018.95117188 524.107421875 1018.95117188 554.268554688 979.983398438 c 1,85,86
 587.840820312 991.081054688 587.840820312 991.081054688 613.7578125 1004.04003906 c 128,-1,87
 639.67578125 1016.99804688 639.67578125 1016.99804688 663.98828125 1037.83789062 c 128,-1,88
 688.30078125 1058.67675781 688.30078125 1058.67675781 699.443359375 1089.53320312 c 128,-1,89
 710.5859375 1120.38964844 710.5859375 1120.38964844 710.5859375 1166 c 0,90,91
 710.5859375 1230.43945312 710.5859375 1230.43945312 671.99609375 1263.21972656 c 128,-1,92
 633.407226562 1296 633.407226562 1296 576.823242188 1296 c 128,-1,93
 520.240234375 1296 520.240234375 1296 496.341796875 1260.953125 c 0,94,95
 475.5859375 1230.51367188 475.5859375 1230.51367188 475.5859375 1172 c 0,82,83
307.5859375 357 m 0,96,97
 307.5859375 258.9765625 307.5859375 258.9765625 359.974609375 195.48828125 c 128,-1,98
 412.36328125 132 412.36328125 132 492.5859375 132 c 0,99,100
 537.763671875 132 537.763671875 132 587.861328125 148.282226562 c 0,101,102
 604.40625 153.659179688 604.40625 153.659179688 623.703125 166.983398438 c 128,-1,103
 643 180.307617188 643 180.307617188 653.741210938 188.36328125 c 128,-1,104
 664.482421875 196.418945312 664.482421875 196.418945312 680.465820312 214.752929688 c 128,-1,105
 696.44921875 233.086914062 696.44921875 233.086914062 702.521484375 240.560546875 c 128,-1,106
 708.594726562 248.034179688 708.594726562 248.034179688 718.918945312 262.833007812 c 128,-1,107
 729.243164062 277.630859375 729.243164062 277.630859375 732.874023438 282.799804688 c 1,108,109
 704.98828125 344.05859375 704.98828125 344.05859375 678.397460938 393.4765625 c 0,110,111
 654.163085938 440.006835938 654.163085938 440.006835938 586.129882812 536.806640625 c 128,-1,112
 518.095703125 633.606445312 518.095703125 633.606445312 485.368164062 684.006835938 c 1,113,114
 440.533203125 661.44140625 440.533203125 661.44140625 407.489257812 631.086914062 c 0,115,116
 368.01953125 594.830078125 368.01953125 594.830078125 346.771484375 550.947265625 c 128,-1,117
 325.5234375 507.065429688 325.5234375 507.065429688 316.5546875 460.333984375 c 128,-1,118
 307.5859375 413.602539062 307.5859375 413.602539062 307.5859375 357 c 0,96,97
EndSplineSet
EndChar

StartChar: quotesingle
Encoding: 39 39 7
Width: 1216
GlyphClass: 2
Flags: W
LayerCount: 2
Fore
SplineSet
741.202148438 1490.62792969 m 2,0,1
 741.876953125 1463.31445312 741.876953125 1463.31445312 741.876953125 1407.5078125 c 0,2,3
 741.876953125 1351.70214844 741.876953125 1351.70214844 739.203125 1237.40527344 c 0,4,5
 735.03515625 1059.22167969 735.03515625 1059.22167969 725.958007812 991.439453125 c 0,6,7
 718.405273438 938.573242188 718.405273438 938.573242188 679.290039062 911.844726562 c 0,8,9
 645.599609375 888.822265625 645.599609375 888.822265625 608.052734375 888.822265625 c 0,10,11
 555.786132812 888.822265625 555.786132812 888.822265625 514.231445312 919.98828125 c 0,12,13
 475.765625 948.836914062 475.765625 948.836914062 475.765625 998.46875 c 0,14,15
 475.765625 1004.10058594 475.765625 1004.10058594 476.284179688 1009.95507812 c 0,16,17
 481.209960938 1092 481.209960938 1092 481.654296875 1193.5 c 0,18,19
 481.654296875 1338.13769531 481.654296875 1338.13769531 474.23046875 1499.98535156 c 0,20,21
 474.123046875 1502.66601562 474.123046875 1502.66601562 474.123046875 1505.29492188 c 0,22,23
 474.123046875 1534.32421875 474.123046875 1534.32421875 487.099609375 1556.5703125 c 0,24,25
 501.981445312 1582.08105469 501.981445312 1582.08105469 529.044921875 1592.76367188 c 0,26,27
 565.743164062 1607.25 565.743164062 1607.25 603.741210938 1607.25 c 0,28,29
 633.66015625 1607.25 633.66015625 1607.25 653.8515625 1601.74316406 c 0,30,31
 674.04296875 1596.23632812 674.04296875 1596.23632812 692.947265625 1585.01269531 c 0,32,33
 715.291015625 1571.74609375 715.291015625 1571.74609375 727.637695312 1547.05175781 c 0,34,35
 739.984375 1522.35839844 739.984375 1522.35839844 741.19140625 1490.97558594 c 2,36,-1
 741.202148438 1490.62792969 l 2,0,1
EndSplineSet
EndChar

StartChar: parenleft
Encoding: 40 40 8
Width: 1216
GlyphClass: 2
Flags: W
LayerCount: 2
Fore
SplineSet
937.625 -191 m 0,0,1
 937.625 -235.704101562 937.625 -235.704101562 902.647460938 -264.8515625 c 0,2,3
 867.669921875 -294 867.669921875 -294 829.625 -294 c 0,4,5
 683.170898438 -294 683.170898438 -294 565.89453125 -190.397460938 c 0,6,7
 448.619140625 -86.794921875 448.619140625 -86.794921875 376.853515625 92.107421875 c 0,8,9
 305.086914062 271.009765625 305.086914062 271.009765625 282.75 501.487304688 c 0,10,11
 276.375 565.236328125 276.375 565.236328125 276.375 660.068359375 c 0,12,13
 276.375 754.900390625 276.375 754.900390625 288.721679688 895.708007812 c 0,14,15
 310.0234375 1138.65722656 310.0234375 1138.65722656 370.264648438 1296.91601562 c 0,16,17
 397.282226562 1367.57910156 397.282226562 1367.57910156 443.291015625 1435.81640625 c 0,18,19
 489.298828125 1504.05273438 489.298828125 1504.05273438 548.18359375 1561.89550781 c 0,20,21
 607.068359375 1619.73828125 607.068359375 1619.73828125 681.987304688 1655.86914062 c 0,22,23
 756.905273438 1692 756.905273438 1692 831.625 1692 c 0,24,25
 889.747070312 1692 889.747070312 1692 917.760742188 1656.98242188 c 0,26,27
 939.625 1629.65234375 939.625 1629.65234375 939.625 1584 c 0,28,29
 939.625 1527.79882812 939.625 1527.79882812 904.981445312 1500.77734375 c 0,30,31
 873.215820312 1476 873.215820312 1476 827.73828125 1476 c 0,32,33
 782.259765625 1476 782.259765625 1476 741.497070312 1448.53027344 c 0,34,35
 700.735351562 1421.05957031 700.735351562 1421.05957031 667.815429688 1371.20898438 c 0,36,37
 602.869140625 1272.86230469 602.869140625 1272.86230469 568.974609375 1127.31542969 c 0,38,39
 543.291015625 1019.36816406 543.291015625 1019.36816406 533.084960938 838.571289062 c 0,40,41
 527.747070312 744.015625 527.747070312 744.015625 527.747070312 669.583007812 c 0,42,43
 527.747070312 595.151367188 527.747070312 595.151367188 532.54296875 539.033203125 c 0,44,45
 542.342773438 417.515625 542.342773438 417.515625 575.659179688 301.399414062 c 0,46,47
 608.938476562 185.412109375 608.938476562 185.412109375 652.400390625 103.799804688 c 0,48,49
 695.86328125 22.1865234375 695.86328125 22.1865234375 746.041992188 -26.572265625 c 0,50,51
 791.763671875 -71 791.763671875 -71 829.625 -71 c 0,52,53
 879.625976562 -71 879.625976562 -71 908.625976562 -98.650390625 c 0,54,55
 937.625 -126.30078125 937.625 -126.30078125 937.625 -191 c 0,0,1
EndSplineSet
EndChar

StartChar: parenright
Encoding: 41 41 9
Width: 1216
GlyphClass: 2
Flags: W
LayerCount: 2
Fore
SplineSet
386.375 -294 m 0,0,1
 348.330078125 -294 348.330078125 -294 313.352539062 -264.8515625 c 0,2,3
 278.375 -235.704101562 278.375 -235.704101562 278.375 -191 c 0,4,5
 278.375 -126.30078125 278.375 -126.30078125 307.374023438 -98.650390625 c 0,6,7
 336.374023438 -71 336.374023438 -71 386.375 -71 c 0,8,9
 424.236328125 -71 424.236328125 -71 469.958007812 -26.572265625 c 0,10,11
 520.13671875 22.1865234375 520.13671875 22.1865234375 563.599609375 103.799804688 c 0,12,13
 607.061523438 185.412109375 607.061523438 185.412109375 640.340820312 301.399414062 c 0,14,15
 673.657226562 417.515625 673.657226562 417.515625 683.45703125 539.033203125 c 0,16,17
 688.875 601.081054688 688.875 601.081054688 688.875 673.665039062 c 0,18,19
 688.875 746.25 688.875 746.25 683.418945312 838.50390625 c 0,20,21
 672.727539062 1019.29003906 672.727539062 1019.29003906 647.025390625 1127.31542969 c 0,22,23
 613.375 1271.81445312 613.375 1271.81445312 547.907226562 1372.38671875 c 0,24,25
 516.228515625 1421.05273438 516.228515625 1421.05273438 475.018554688 1448.52636719 c 0,26,27
 433.80859375 1476 433.80859375 1476 388.295898438 1476 c 0,28,29
 342.784179688 1476 342.784179688 1476 311.018554688 1500.77734375 c 0,30,31
 276.375 1527.79882812 276.375 1527.79882812 276.375 1584 c 0,32,33
 276.375 1615.45117188 276.375 1615.45117188 287.131835938 1638.98144531 c 0,34,35
 297.888671875 1662.51269531 297.888671875 1662.51269531 318.157226562 1674.5234375 c 0,36,37
 347.6484375 1692 347.6484375 1692 384.375 1692 c 0,38,39
 460.130859375 1692 460.130859375 1692 534.543945312 1655.85644531 c 0,40,41
 608.95703125 1619.71289062 608.95703125 1619.71289062 667.829101562 1561.8828125 c 0,42,43
 726.701171875 1504.05273438 726.701171875 1504.05273438 772.708984375 1435.81640625 c 0,44,45
 818.717773438 1367.57910156 818.717773438 1367.57910156 845.749023438 1296.88183594 c 0,46,47
 905.9765625 1138.65722656 905.9765625 1138.65722656 927.278320312 895.708007812 c 0,48,49
 939.625 754.900390625 939.625 754.900390625 939.625 660.069335938 c 0,50,51
 939.625 565.23828125 939.625 565.23828125 933.2578125 501.563476562 c 0,52,53
 910.913085938 271.010742188 910.913085938 271.010742188 839.147460938 92.107421875 c 0,54,55
 767.380859375 -86.794921875 767.380859375 -86.794921875 650.10546875 -190.397460938 c 0,56,57
 532.829101562 -294 532.829101562 -294 386.375 -294 c 0,0,1
EndSplineSet
EndChar

StartChar: asterisk
Encoding: 42 42 10
Width: 1216
GlyphClass: 2
Flags: W
LayerCount: 2
Fore
SplineSet
429.197265625 208.551757812 m 0,0,1
 422.517578125 208.125 422.517578125 208.125 409.30859375 208.125 c 128,-1,2
 396.099609375 208.125 396.099609375 208.125 373.974609375 212.755859375 c 128,-1,3
 351.849609375 217.38671875 351.849609375 217.38671875 331.096679688 229.96484375 c 128,-1,4
 310.34375 242.54296875 310.34375 242.54296875 294.267578125 266.658203125 c 128,-1,5
 278.1328125 290.859375 278.1328125 290.859375 273.3359375 324.439453125 c 0,6,7
 272.321289062 331.537109375 272.321289062 331.537109375 272.321289062 338.811523438 c 0,8,9
 272.321289062 370.455078125 272.321289062 370.455078125 289.723632812 400.990234375 c 1,10,-1
 400.740234375 583.025390625 l 1,11,12
 268.106445312 575 268.106445312 575 199.083007812 575 c 0,13,14
 138.62890625 575 138.62890625 575 103.137695312 616.1953125 c 0,15,16
 71.572265625 652.833984375 71.572265625 652.833984375 69.0849609375 702.291992188 c 0,17,18
 69.0830078125 706 69.0830078125 706 68.9169921875 709.02734375 c 0,19,20
 68.9169921875 750.044921875 68.9169921875 750.044921875 91.97265625 789.5703125 c 0,21,22
 106.375976562 814.260742188 106.375976562 814.260742188 134.357421875 827.584960938 c 0,23,24
 156.928710938 838.333007812 156.928710938 838.333007812 184.25 838.333007812 c 0,25,26
 189.521484375 838.333007812 189.521484375 838.333007812 194.953125 837.930664062 c 2,27,-1
 195.205078125 837.911132812 l 2,28,29
 277.21875 831.004882812 277.21875 831.004882812 425.248046875 821.091796875 c 1,30,31
 354.022460938 939.5546875 354.022460938 939.5546875 305.266601562 1007.12890625 c 1,32,33
 276.706054688 1053.41601562 276.706054688 1053.41601562 276.706054688 1098.95507812 c 0,34,35
 276.706054688 1107.76953125 276.706054688 1107.76953125 277.764648438 1116.52636719 c 0,36,37
 284.760742188 1174.3984375 284.760742188 1174.3984375 327.662109375 1195.76464844 c 0,38,39
 353.314453125 1212.51464844 353.314453125 1212.51464844 387.93359375 1212.51464844 c 128,-1,40
 422.551757812 1212.51464844 422.551757812 1212.51464844 457.374023438 1192.70214844 c 0,41,42
 492.87890625 1172.50097656 492.87890625 1172.50097656 511.80859375 1132.42675781 c 0,43,44
 531.841796875 1088.87597656 531.841796875 1088.87597656 610.065429688 939.05078125 c 1,45,46
 670.303710938 1045.55371094 670.303710938 1045.55371094 709.43359375 1130.58886719 c 0,47,48
 727.630859375 1169.41113281 727.630859375 1169.41113281 760.069335938 1189.234375 c 128,-1,49
 792.506835938 1209.05761719 792.506835938 1209.05761719 823.6640625 1209.05761719 c 0,50,51
 857.091796875 1209.05761719 857.091796875 1209.05761719 884.509765625 1191.72851562 c 0,52,53
 910.205078125 1178.38867188 910.205078125 1178.38867188 926.903320312 1150.55859375 c 128,-1,54
 943.6015625 1122.72753906 943.6015625 1122.72753906 943.6015625 1085.73828125 c 0,55,56
 943.6015625 1044.97167969 943.6015625 1044.97167969 918.798828125 1009.00878906 c 0,57,58
 863.133789062 926.794921875 863.133789062 926.794921875 796.87109375 809.358398438 c 1,59,60
 938.965820312 811.821289062 938.965820312 811.821289062 1000.93164062 829.9609375 c 0,61,62
 1027.87890625 835.461914062 1027.87890625 835.461914062 1035.51953125 835.461914062 c 0,63,64
 1035.79199219 835.461914062 1035.79199219 835.461914062 1036.04003906 835.454101562 c 0,65,66
 1074.24121094 835.454101562 1074.24121094 835.454101562 1103.890625 808.500976562 c 0,67,68
 1145.7890625 770.411132812 1145.7890625 770.411132812 1147.08300781 725 c 0,69,70
 1147.08300781 679.323242188 1147.08300781 679.323242188 1125.09179688 638.637695312 c 0,71,72
 1111.32324219 613.166992188 1111.32324219 613.166992188 1085.23925781 600.125 c 0,73,74
 1067.54199219 591.275390625 1067.54199219 591.275390625 1046.61132812 591.275390625 c 0,75,76
 1036.27734375 591.275390625 1036.27734375 591.275390625 1025.30859375 593.456054688 c 0,77,78
 974.788085938 602.94140625 974.788085938 602.94140625 845.024414062 602.94140625 c 0,79,80
 823.202148438 602.94140625 823.202148438 602.94140625 799.180664062 602.668945312 c 1,81,-1
 916.157226562 401.774414062 l 1,82,83
 937.9765625 357.1875 937.9765625 357.1875 937.9765625 319.870117188 c 0,84,85
 937.9765625 311.294921875 937.9765625 311.294921875 936.8515625 303.081054688 c 0,86,87
 930.209960938 254.599609375 930.209960938 254.599609375 893.918945312 232.546875 c 0,88,89
 864.2578125 214.75 864.2578125 214.75 821.708007812 214.75 c 0,90,91
 788.83203125 214.75 788.83203125 214.75 756.44921875 229.142578125 c 0,92,93
 714.590820312 247.74609375 714.590820312 247.74609375 701.247070312 290.4453125 c 0,94,95
 679.734375 358.291015625 679.734375 358.291015625 618.280273438 479.940429688 c 1,96,97
 542.4375 328.901367188 542.4375 328.901367188 522.640625 276.603515625 c 0,98,99
 511.814453125 244.659179688 511.814453125 244.659179688 485.512695312 227.563476562 c 128,-1,100
 459.2109375 210.466796875 459.2109375 210.466796875 429.197265625 208.551757812 c 0,0,1
EndSplineSet
EndChar

StartChar: plus
Encoding: 43 43 11
Width: 1216
GlyphClass: 2
Flags: W
LayerCount: 2
Fore
SplineSet
711.120117188 711.53125 m 1,0,-1
 713.075195312 513 l 2,1,2
 713.075195312 453.911132812 713.075195312 453.911132812 684.6875 428.227539062 c 0,3,4
 656.299804688 402.54296875 656.299804688 402.54296875 612.521484375 400.041015625 c 1,5,-1
 611.075195312 400 l 1,6,7
 562.833984375 400 562.833984375 400 534.053710938 422.765625 c 0,8,9
 497.075195312 452.015625 497.075195312 452.015625 497.075195312 513 c 2,10,-1
 497.075195312 706.921875 l 1,11,-1
 316.075195312 705 l 2,12,13
 254.58203125 705 254.58203125 705 222.455078125 737.768554688 c 0,14,15
 190.329101562 770.537109375 190.329101562 770.537109375 190.077148438 816.327148438 c 0,16,17
 189.924804688 819.524414062 189.924804688 819.524414062 189.924804688 822.672851562 c 0,18,19
 189.924804688 866.682617188 189.924804688 866.682617188 219.622070312 899.41015625 c 0,20,21
 249.319335938 932.137695312 249.319335938 932.137695312 307.034179688 932.137695312 c 0,22,23
 310.911132812 932.137695312 310.911132812 932.137695312 371.880859375 930.424804688 c 0,24,25
 432.850585938 928.7109375 432.850585938 928.7109375 497.001953125 928.125976562 c 1,26,27
 496.298828125 1049.35742188 496.298828125 1049.35742188 491.8203125 1132.75097656 c 1,28,29
 491.8203125 1189.59765625 491.8203125 1189.59765625 529.497070312 1216.66308594 c 0,30,31
 557.624023438 1236.86914062 557.624023438 1236.86914062 604.4453125 1236.99902344 c 0,32,33
 608.65234375 1237.1953125 608.65234375 1237.1953125 612.751953125 1237.1953125 c 0,34,35
 655.520507812 1237.1953125 655.520507812 1237.1953125 685.862304688 1216.01269531 c 0,36,37
 720.380859375 1191.91503906 720.380859375 1191.91503906 720.380859375 1136.03710938 c 0,38,39
 720.380859375 1130.44042969 720.380859375 1130.44042969 720.03125 1124.49902344 c 0,40,41
 713.881835938 1020.84277344 713.881835938 1020.84277344 713.168945312 925 c 1,42,-1
 914.075195312 925 l 2,43,44
 973.18359375 925 973.18359375 925 998.358398438 897.103515625 c 0,45,46
 1023.53320312 869.206054688 1023.53320312 869.206054688 1026.03417969 825.446289062 c 1,47,-1
 1026.07519531 824 l 2,48,49
 1026.07519531 802.102539062 1026.07519531 802.102539062 1021.78515625 783.713867188 c 0,50,51
 1017.49414062 765.326171875 1017.49414062 765.326171875 1006.33203125 747.342773438 c 0,52,53
 992.91015625 725.71875 992.91015625 725.71875 967.124023438 715.690429688 c 0,54,55
 948.77734375 708.555664062 948.77734375 708.555664062 925.236328125 708.555664062 c 0,56,57
 917.655273438 708.555664062 917.655273438 708.555664062 911.2890625 709.154296875 c 0,58,59
 880.2734375 712.599609375 880.2734375 712.599609375 822.662109375 712.599609375 c 0,60,61
 765.05078125 712.599609375 765.05078125 712.599609375 711.120117188 711.53125 c 1,0,-1
EndSplineSet
EndChar

StartChar: comma
Encoding: 44 44 12
Width: 1216
GlyphClass: 2
Flags: W
LayerCount: 2
Fore
SplineSet
549.638671875 -455.955078125 m 0,0,1
 516.098632812 -468.365234375 516.098632812 -468.365234375 491.534179688 -468.365234375 c 0,2,3
 466.970703125 -468.365234375 466.970703125 -468.365234375 449.065429688 -461.739257812 c 0,4,5
 422.099609375 -453.712890625 422.099609375 -453.712890625 400.258789062 -430.586914062 c 0,6,7
 378.41796875 -407.4609375 378.41796875 -407.4609375 373.254882812 -373.255859375 c 0,8,9
 372.306640625 -366.978515625 372.306640625 -366.978515625 372.306640625 -360.569335938 c 0,10,11
 372.306640625 -329.931640625 372.306640625 -329.931640625 393.368164062 -298.846679688 c 0,12,13
 433.547851562 -240.490234375 433.547851562 -240.490234375 508.196289062 -34.3427734375 c 0,14,15
 581.932617188 169.287109375 581.932617188 169.287109375 599.528320312 253.254882812 c 0,16,17
 607.515625 290.528320312 607.515625 290.528320312 637.043945312 312.182617188 c 0,18,19
 666.572265625 333.836914062 666.572265625 333.836914062 699.46484375 334.495117188 c 0,20,21
 701.990234375 334.545898438 701.990234375 334.545898438 704.510742188 334.545898438 c 0,22,23
 729.751953125 334.545898438 729.751953125 334.545898438 755.275390625 329.228515625 c 1,24,25
 796.084960938 316.474609375 796.084960938 316.474609375 822.443359375 281.53515625 c 0,26,27
 843.693359375 253.3671875 843.693359375 253.3671875 843.693359375 216.38671875 c 0,28,29
 843.693359375 202.5703125 843.693359375 202.5703125 841.440429688 191.844726562 c 0,30,31
 820.171875 90.5634765625 820.171875 90.5634765625 752.26953125 -119.680664062 c 0,32,33
 683.479492188 -332.676757812 683.479492188 -332.676757812 645.01171875 -383.788085938 c 0,34,35
 606.544921875 -434.899414062 606.544921875 -434.899414062 549.638671875 -455.955078125 c 0,0,1
EndSplineSet
EndChar

StartChar: hyphen
Encoding: 45 45 13
Width: 1216
GlyphClass: 2
Flags: W
LayerCount: 2
Fore
SplineSet
376.631835938 700 m 0,0,1
 492.395507812 700 492.395507812 700 653.895507812 703 c 0,2,3
 815.395507812 706 815.395507812 706 837.631835938 706 c 0,4,5
 896.739257812 706 896.739257812 706 921.9140625 678.103515625 c 0,6,7
 947.08984375 650.206054688 947.08984375 650.206054688 949.590820312 606.446289062 c 1,8,-1
 949.631835938 605 l 1,9,10
 949.631835938 556.466796875 949.631835938 556.466796875 927.233398438 527.50390625 c 0,11,12
 898.23046875 490 898.23046875 490 837.631835938 490 c 0,13,14
 811.267578125 490 811.267578125 490 631.767578125 481 c 0,15,16
 452.267578125 472 452.267578125 472 379.631835938 472 c 0,17,18
 331.756835938 472 331.756835938 472 303.192382812 494.8515625 c 0,19,20
 266.854492188 523.921875 266.854492188 523.921875 266.6328125 584.29296875 c 0,21,22
 266.368164062 589.366210938 266.368164062 589.366210938 266.368164062 594.224609375 c 0,23,24
 266.368164062 651.517578125 266.368164062 651.517578125 302.604492188 678.98046875 c 0,25,26
 330.338867188 700 330.338867188 700 376.631835938 700 c 0,0,1
EndSplineSet
EndChar

StartChar: period
Encoding: 46 46 14
Width: 1216
GlyphClass: 2
Flags: W
LayerCount: 2
Fore
SplineSet
592.153320312 -54.11328125 m 0,0,1
 520.247070312 -54.11328125 520.247070312 -54.11328125 471.553710938 -3.8984375 c 0,2,3
 416.5 52.8759765625 416.5 52.8759765625 416.5 129.184570312 c 0,4,5
 416.5 205.4921875 416.5 205.4921875 476.63671875 257.038085938 c 0,6,7
 540.977539062 312.1875 540.977539062 312.1875 619.319335938 312.1875 c 0,8,9
 697.661132812 312.1875 697.661132812 312.1875 747.173828125 262.673828125 c 0,10,11
 799.5 210.348632812 799.5 210.348632812 799.5 134.541015625 c 0,12,13
 799.5 58.734375 799.5 58.734375 748.7578125 7.416015625 c 0,14,15
 698.016601562 -43.90234375 698.016601562 -43.90234375 615.177734375 -52.8583984375 c 0,16,17
 603.412109375 -54.11328125 603.412109375 -54.11328125 592.153320312 -54.11328125 c 0,0,1
EndSplineSet
EndChar

StartChar: slash
Encoding: 47 47 15
Width: 1216
GlyphClass: 2
Flags: W
LayerCount: 2
Fore
SplineSet
232.370117188 -137.764648438 m 0,0,1
 202.749023438 -151.254882812 202.749023438 -151.254882812 174.625 -151.254882812 c 0,2,3
 146.500976562 -151.254882812 146.500976562 -151.254882812 121.708007812 -135.4765625 c 0,4,5
 79.9267578125 -111.916992188 79.9267578125 -111.916992188 72.6611328125 -41.076171875 c 0,6,7
 71.529296875 -30.044921875 71.529296875 -30.044921875 71.529296875 -19.236328125 c 0,8,9
 71.529296875 35.2568359375 71.529296875 35.2568359375 100.168945312 82.98828125 c 0,10,11
 399.965820312 574.655273438 399.965820312 574.655273438 611.654296875 956.104492188 c 1,12,-1
 611.795898438 956.356445312 l 1,13,14
 745.458984375 1190.76464844 745.458984375 1190.76464844 894.154296875 1488.15625 c 0,15,16
 913.712890625 1526.09472656 913.712890625 1526.09472656 947.280273438 1547.07421875 c 0,17,18
 980.84765625 1568.05371094 980.84765625 1568.05371094 1013.60742188 1568.05371094 c 0,19,20
 1046.11816406 1568.05371094 1046.11816406 1568.05371094 1080.10253906 1553.67578125 c 1,21,22
 1127.83007812 1529.16796875 1127.83007812 1529.16796875 1140.68847656 1480.94921875 c 0,23,24
 1144.47070312 1466.765625 1144.47070312 1466.765625 1144.47070312 1451.18652344 c 0,25,26
 1144.47070312 1416.20800781 1144.47070312 1416.20800781 1125.05859375 1374.1484375 c 1,27,28
 1071.44238281 1267.92773438 1071.44238281 1267.92773438 825.47265625 859.478515625 c 0,29,30
 579.50390625 451.029296875 579.50390625 451.029296875 526.67578125 352.396484375 c 0,31,32
 493.796875 288.619140625 493.796875 288.619140625 420.219726562 137.461914062 c 0,33,34
 346.643554688 -13.6953125 346.643554688 -13.6953125 327.180664062 -47.4990234375 c 0,35,36
 290.16015625 -111.444335938 290.16015625 -111.444335938 232.370117188 -137.764648438 c 0,0,1
EndSplineSet
EndChar

StartChar: zero
Encoding: 48 48 16
Width: 1216
GlyphClass: 2
Flags: W
LayerCount: 2
Fore
SplineSet
1130.37402344 1004.6796875 m 2,0,1
 1130.38476562 995.349609375 1130.38476562 995.349609375 1130.39355469 1004.45703125 c 2,2,3
 1140.19628906 883.499023438 1140.19628906 883.499023438 1140.19628906 757.7890625 c 128,-1,4
 1140.19628906 632.079101562 1140.19628906 632.079101562 1132.22851562 511.432617188 c 128,-1,5
 1124.26074219 390.787109375 1124.26074219 390.787109375 1105.21679688 322.041992188 c 0,6,7
 1068.69726562 190.21484375 1068.69726562 190.21484375 1012.91015625 107.640625 c 0,8,9
 985.237304688 66.6787109375 985.237304688 66.6787109375 949.079101562 38.4736328125 c 128,-1,10
 912.919921875 10.26953125 912.919921875 10.26953125 874.509765625 -6.955078125 c 0,11,12
 834.330078125 -24.1796875 834.330078125 -24.1796875 781.353515625 -33.84375 c 0,13,14
 728.376953125 -43.830078125 728.376953125 -43.830078125 677.674804688 -46.9150390625 c 128,-1,15
 626.971679688 -50 626.971679688 -50 559.212890625 -50 c 2,16,-1
 558.921875 -50 l 1,17,18
 448.295898438 -48.9814453125 448.295898438 -48.9814453125 354.401367188 -13.642578125 c 0,19,20
 265.8359375 21.697265625 265.8359375 21.697265625 204.212890625 85.47265625 c 128,-1,21
 142.600585938 149.236328125 142.600585938 149.236328125 109.9765625 239.549804688 c 128,-1,22
 77.353515625 329.862304688 77.353515625 329.862304688 77.353515625 434.084960938 c 0,23,24
 77.353515625 440.454101562 77.353515625 440.454101562 77.470703125 446.880859375 c 2,25,26
 76.6376953125 546.23046875 76.6376953125 546.23046875 75.8037109375 634.806640625 c 2,27,28
 75.8037109375 697.956054688 75.8037109375 697.956054688 79.1630859375 790.084960938 c 128,-1,29
 82.521484375 882.213867188 82.521484375 882.213867188 89.6318359375 942.698242188 c 128,-1,30
 96.7568359375 1003.29785156 96.7568359375 1003.29785156 111.556640625 1073.4609375 c 0,31,32
 126.82421875 1145.83886719 126.82421875 1145.83886719 147.127929688 1197.91210938 c 0,33,34
 200.317382812 1331.80078125 200.317382812 1331.80078125 324.845703125 1400.90039062 c 0,35,36
 460.967773438 1470 460.967773438 1470 652.340820312 1470 c 0,37,38
 748.448242188 1470 748.448242188 1470 833.206054688 1440.76953125 c 0,39,40
 916.049804688 1411.48632812 916.049804688 1411.48632812 978.224609375 1354.91210938 c 128,-1,41
 1040.40039062 1298.33789062 1040.40039062 1298.33789062 1080.21289062 1208.59960938 c 128,-1,42
 1120.02539062 1118.86132812 1120.02539062 1118.86132812 1130.37402344 1004.6796875 c 2,0,1
733.166992188 1228.41992188 m 0,43,44
 680.556640625 1254 680.556640625 1254 617.28125 1254 c 0,45,46
 503.655273438 1254 503.655273438 1254 440.896484375 1197.16992188 c 128,-1,47
 378.137695312 1140.33984375 378.137695312 1140.33984375 343.760742188 1005.32714844 c 0,48,49
 329.66015625 952.499023438 329.66015625 952.499023438 324.380859375 892.052734375 c 0,50,51
 319.31640625 831.606445312 319.31640625 831.606445312 319.31640625 754.18359375 c 0,52,53
 319.31640625 632.009765625 319.31640625 632.009765625 325.948242188 469.782226562 c 1,54,55
 593.072265625 809.895507812 593.072265625 809.895507812 812.629882812 1167.11816406 c 1,56,57
 779.024414062 1206.12402344 779.024414062 1206.12402344 733.166992188 1228.41992188 c 0,43,44
893.223632812 937.380859375 m 1,58,59
 670.408203125 545.940429688 670.408203125 545.940429688 378.50390625 270.055664062 c 1,60,61
 433.608398438 173 433.608398438 173 558.154296875 173 c 0,62,63
 617.709960938 173 617.709960938 173 661.216796875 181.311523438 c 128,-1,64
 704.723632812 189.622070312 704.723632812 189.622070312 743.31640625 210.579101562 c 0,65,66
 820.61328125 252.551757812 820.61328125 252.551757812 861.681640625 376.250976562 c 0,67,68
 869.721679688 399.807617188 869.721679688 399.807617188 879.922851562 507.625976562 c 128,-1,69
 890.125 615.4453125 890.125 615.4453125 894.48046875 757.7109375 c 0,70,71
 897.065429688 850.115234375 897.065429688 850.115234375 893.223632812 937.380859375 c 1,58,59
EndSplineSet
EndChar

StartChar: one
Encoding: 49 49 17
Width: 1216
GlyphClass: 2
Flags: W
LayerCount: 2
Fore
SplineSet
1156.47753906 103.236328125 m 2,0,1
 1156.66210938 99.4658203125 1156.66210938 99.4658203125 1156.66210938 95.775390625 c 0,2,3
 1156.66210938 49.4248046875 1156.66210938 49.4248046875 1128.19726562 17.40234375 c 0,4,5
 1096.72851562 -18.001953125 1096.72851562 -18.001953125 1024.5078125 -18.001953125 c 0,6,7
 247.508789062 -11 247.508789062 -11 172.5078125 -11 c 0,8,9
 114.86328125 -11 114.86328125 -11 86.3583984375 22.9345703125 c 0,10,11
 59.6943359375 54.677734375 59.6943359375 54.677734375 59.5087890625 101.377929688 c 0,12,13
 59.337890625 105.169921875 59.337890625 105.169921875 59.337890625 108.880859375 c 0,14,15
 59.337890625 153.947265625 59.337890625 153.947265625 84.302734375 185.87890625 c 0,16,17
 113.32421875 223 113.32421875 223 174.5078125 223 c 0,18,19
 261.416992188 223 261.416992188 223 479.8515625 219.446289062 c 1,20,21
 479.412109375 279.861328125 479.412109375 279.861328125 476.756835938 320.947265625 c 0,22,23
 474.486328125 339.305664062 474.486328125 339.305664062 475.580078125 427.143554688 c 2,24,25
 476.3984375 504.625976562 476.3984375 504.625976562 477.215820312 554.579101562 c 2,26,27
 477.974609375 610.168945312 477.974609375 610.168945312 485.09765625 776.452148438 c 0,28,29
 498.419921875 1087.48242188 498.419921875 1087.48242188 501.005859375 1138.70214844 c 1,30,31
 368.762695312 1045.59082031 368.762695312 1045.59082031 299.629882812 1021.84863281 c 0,32,33
 274.057617188 1015.49414062 274.057617188 1015.49414062 266.586914062 1015.49414062 c 0,34,35
 266.245117188 1015.49414062 266.245117188 1015.49414062 265.94140625 1015.50683594 c 0,36,37
 228.369140625 1015.50683594 228.369140625 1015.50683594 192.122070312 1045.79980469 c 0,38,39
 143.416992188 1086.50292969 143.416992188 1086.50292969 143.416992188 1131.39746094 c 0,40,41
 143.416992188 1171.87890625 143.416992188 1171.87890625 161.927734375 1201.73828125 c 128,-1,42
 180.438476562 1231.59765625 180.438476562 1231.59765625 220.317382812 1261.42382812 c 0,43,44
 277.916992188 1303.890625 277.916992188 1303.890625 373.114257812 1375.83203125 c 2,45,46
 411.5625 1382.88671875 411.5625 1382.88671875 450.010742188 1432.48828125 c 2,47,48
 483.982421875 1457.37988281 483.982421875 1457.37988281 521.381835938 1476.3125 c 0,49,50
 558.78125 1496 558.78125 1496 592.204101562 1496 c 0,51,52
 649.754882812 1496 649.754882812 1496 707.359375 1455.07519531 c 0,53,54
 738.541015625 1432.92382812 738.541015625 1432.92382812 753.114257812 1413.4765625 c 128,-1,55
 767.6875 1394.02929688 767.6875 1394.02929688 767.6875 1375.6640625 c 2,56,57
 767.684570312 1355.84179688 767.684570312 1355.84179688 767.681640625 1375.15429688 c 2,58,59
 766.5859375 1328.7109375 766.5859375 1328.7109375 754.057617188 1052.546875 c 128,-1,60
 741.528320312 776.3828125 741.528320312 776.3828125 741.528320312 729.701171875 c 0,61,62
 741.528320312 533.491210938 741.528320312 533.491210938 743.705078125 400.817382812 c 2,63,64
 743.705078125 417.444335938 743.705078125 417.444335938 743.705078125 400.462890625 c 2,65,66
 743.705078125 333.828125 743.705078125 333.828125 748.272460938 211.317382812 c 1,67,68
 859.337890625 209.36328125 859.337890625 209.36328125 888.870117188 208.76171875 c 0,69,70
 917.818359375 208.16015625 917.818359375 208.16015625 965.814453125 207.080078125 c 128,-1,71
 1013.81054688 206 1013.81054688 206 1028.5078125 206 c 0,72,73
 1095.85644531 206 1095.85644531 206 1124.890625 176.965820312 c 128,-1,74
 1153.92480469 147.931640625 1153.92480469 147.931640625 1156.46679688 103.446289062 c 2,75,76
 1156.47265625 128.340820312 1156.47265625 128.340820312 1156.47753906 103.236328125 c 2,0,1
EndSplineSet
EndChar

StartChar: two
Encoding: 50 50 18
Width: 1216
GlyphClass: 2
Flags: W
LayerCount: 2
Fore
SplineSet
986.458984375 206 m 1,0,-1
 987.4375 206 l 1,1,2
 1008.4375 232 1008.4375 232 1029.4375 208 c 2,3,4
 1035.87597656 208 1035.87597656 208 1053.484375 207.392578125 c 128,-1,5
 1071.09277344 206.78515625 1071.09277344 206.78515625 1081.32617188 201.327148438 c 128,-1,6
 1091.55957031 195.869140625 1091.55957031 195.869140625 1101.43652344 190.151367188 c 0,7,8
 1117.67871094 180.748046875 1117.67871094 180.748046875 1125.1640625 165.028320312 c 0,9,10
 1136.5625 141.092773438 1136.5625 141.092773438 1136.5625 109.3671875 c 0,11,12
 1136.5625 49.25390625 1136.5625 49.25390625 1105.84472656 8.8818359375 c 0,13,14
 1080.82519531 -24 1080.82519531 -24 1042.4375 -24 c 0,15,16
 897.953125 -24 897.953125 -24 575.055664062 -35.9794921875 c 0,17,18
 466.415039062 -40.0009765625 466.415039062 -40.0009765625 352.338867188 -40 c 0,19,20
 245.947265625 -40 245.947265625 -40 185.651367188 -32.845703125 c 0,21,22
 152.034179688 -29.25 152.034179688 -29.25 128.71484375 -7.00390625 c 0,23,24
 111.166015625 9.736328125 111.166015625 9.736328125 100.577148438 36.3974609375 c 0,25,26
 79.4375 89.6201171875 79.4375 89.6201171875 79.4375 183.67578125 c 128,-1,27
 79.4375 277.73046875 79.4375 277.73046875 119.043945312 374.052734375 c 128,-1,28
 158.651367188 470.375 158.651367188 470.375 235.900390625 559.712890625 c 128,-1,29
 313.150390625 649.05078125 313.150390625 649.05078125 422.900390625 704.2421875 c 0,30,31
 662.419921875 821.7578125 662.419921875 821.7578125 729.936523438 867.840820312 c 0,32,33
 814.922851562 925.551757812 814.922851562 925.551757812 836.607421875 990.1953125 c 0,34,35
 848.716796875 1028.39257812 848.716796875 1028.39257812 848.716796875 1085.61035156 c 0,36,37
 848.716796875 1175.91015625 848.716796875 1175.91015625 791.825195312 1214.87695312 c 0,38,39
 731.784179688 1256 731.784179688 1256 615.061523438 1256 c 0,40,41
 535.627929688 1256 535.627929688 1256 461.874023438 1211.0234375 c 128,-1,42
 388.12109375 1166.04589844 388.12109375 1166.04589844 347.313476562 1109.31640625 c 0,43,44
 326.021484375 1080.74902344 326.021484375 1080.74902344 304.497070312 1061.8984375 c 128,-1,45
 283.046875 1043.04785156 283.046875 1043.04785156 257.801757812 1040.16308594 c 0,46,47
 250.545898438 1039.33300781 250.545898438 1039.33300781 239.84375 1039.33300781 c 0,48,49
 218.427734375 1039.33300781 218.427734375 1039.33300781 172.91796875 1058.29589844 c 1,50,51
 126.880859375 1081.97167969 126.880859375 1081.97167969 115.661132812 1127.5078125 c 0,52,53
 112.84375 1138.94628906 112.84375 1138.94628906 112.84375 1151.8046875 c 0,54,55
 112.84375 1187.32421875 112.84375 1187.32421875 134.954101562 1234.94824219 c 1,56,57
 157.045898438 1278.02636719 157.045898438 1278.02636719 199.939453125 1319.86132812 c 128,-1,58
 242.833984375 1361.69628906 242.833984375 1361.69628906 299.370117188 1397.81738281 c 0,59,60
 358.883789062 1433.9375 358.883789062 1433.9375 440.505859375 1456.46875 c 128,-1,61
 522.127929688 1479 522.127929688 1479 605.189453125 1479 c 0,62,63
 858.060546875 1479 858.060546875 1479 983.696289062 1373.734375 c 0,64,65
 1106.4375 1268.46972656 1106.4375 1268.46972656 1106.4375 1060.43945312 c 0,66,67
 1106.4375 889.033203125 1106.4375 889.033203125 1013.56738281 783.239257812 c 0,68,69
 946.659179688 706.788085938 946.659179688 706.788085938 767.984375 616.181640625 c 0,70,71
 722.471679688 592.826171875 722.471679688 592.826171875 612.595703125 541.745117188 c 0,72,73
 520.495117188 498.598632812 520.495117188 498.598632812 458.544921875 436.49609375 c 128,-1,74
 396.626953125 374.426757812 396.626953125 374.426757812 369.306640625 309.31640625 c 0,75,76
 346.0625 253.649414062 346.0625 253.649414062 338.641601562 190.678710938 c 1,77,78
 459.680664062 185.4375 459.680664062 185.4375 567.368164062 185.4375 c 128,-1,79
 675.056640625 185.4375 675.056640625 185.4375 735.712890625 188.690429688 c 0,80,81
 795.796875 191.912109375 795.796875 191.912109375 986.458984375 206 c 1,0,-1
EndSplineSet
EndChar

StartChar: three
Encoding: 51 51 19
Width: 1216
GlyphClass: 2
Flags: W
LayerCount: 2
Fore
SplineSet
1101.87207031 572.096679688 m 128,-1,1
 1125 505.952148438 1125 505.952148438 1125 416.737304688 c 0,2,3
 1125 203.000976562 1125 203.000976562 987.487304688 76.5 c 0,4,5
 847.002929688 -50 847.002929688 -50 579.360351562 -50 c 0,6,7
 495.954101562 -50 495.954101562 -50 414.038085938 -27.48046875 c 0,8,9
 332.548828125 -4.9619140625 332.548828125 -4.9619140625 275.96875 30.6630859375 c 128,-1,10
 219.388671875 66.287109375 219.388671875 66.287109375 176.479492188 108.666992188 c 0,11,12
 133.0234375 151.586914062 133.0234375 151.586914062 112.01171875 193.33984375 c 128,-1,13
 91 235.09375 91 235.09375 91 271.65625 c 0,14,15
 91 284.46484375 91 284.46484375 93.5224609375 296.604492188 c 0,16,17
 103.982421875 346.944335938 103.982421875 346.944335938 148.84375 369.375 c 0,18,19
 181.211914062 385.559570312 181.211914062 385.559570312 211.708984375 385.559570312 c 0,20,21
 272.814453125 385.559570312 272.814453125 385.559570312 321.245117188 319.662109375 c 0,22,23
 366.387695312 261.228515625 366.387695312 261.228515625 437.999023438 217.114257812 c 128,-1,24
 509.609375 173 509.609375 173 589.274414062 173 c 0,25,26
 713.22265625 173 713.22265625 173 791.692382812 232.8203125 c 128,-1,27
 870.163085938 292.641601562 870.163085938 292.641601562 870.163085938 385.284179688 c 0,28,29
 870.163085938 444.05859375 870.163085938 444.05859375 849.922851562 486.106445312 c 128,-1,30
 829.68359375 528.153320312 829.68359375 528.153320312 785.182617188 560.05859375 c 128,-1,31
 740.681640625 591.96484375 740.681640625 591.96484375 659.999023438 608.982421875 c 128,-1,32
 579.317382812 626 579.317382812 626 463.700195312 626 c 0,33,34
 405.272460938 626 405.272460938 626 363.989257812 667.166015625 c 0,35,36
 324 708.331054688 324 708.331054688 324 760.110351562 c 128,-1,37
 324 811.889648438 324 811.889648438 353.118164062 845.775390625 c 0,38,39
 385.631835938 882 385.631835938 882 446.075195312 882 c 0,40,41
 626.8359375 882 626.8359375 882 727.1328125 941.961914062 c 0,42,43
 819.591796875 997.23828125 819.591796875 997.23828125 819.591796875 1101.61328125 c 0,44,45
 819.591796875 1104.91992188 819.591796875 1104.91992188 819.500976562 1108.28710938 c 2,46,47
 819.4921875 1094.41796875 819.4921875 1094.41796875 819.482421875 1108.94628906 c 2,48,49
 819.634765625 1112.96679688 819.634765625 1112.96679688 819.634765625 1116.22558594 c 0,50,51
 819.634765625 1185.23242188 819.634765625 1185.23242188 761.325195312 1218.1875 c 0,52,53
 694.422851562 1256 694.422851562 1256 565.040039062 1256 c 0,54,55
 525.21875 1256 525.21875 1256 481.514648438 1243.20117188 c 0,56,57
 468.9296875 1239.515625 468.9296875 1239.515625 452.171875 1227.88183594 c 128,-1,58
 435.413085938 1216.24804688 435.413085938 1216.24804688 426.240234375 1209.67382812 c 128,-1,59
 417.069335938 1203.10058594 417.069335938 1203.10058594 401.727539062 1185.92285156 c 128,-1,60
 386.385742188 1168.74609375 386.385742188 1168.74609375 380.724609375 1161.73828125 c 2,61,62
 369.434570312 1121.98828125 369.434570312 1121.98828125 358.143554688 1132.23828125 c 1,63,64
 317.8125 1079.92871094 317.8125 1079.92871094 275.07421875 1069.24414062 c 0,65,66
 261.956054688 1065.96484375 261.956054688 1065.96484375 248.185546875 1065.96484375 c 0,67,68
 217.1640625 1065.96484375 217.1640625 1065.96484375 183.84375 1082.625 c 0,69,70
 139.018554688 1105.03710938 139.018554688 1105.03710938 128.536132812 1154.83203125 c 0,71,72
 126 1166.87695312 126 1166.87695312 126 1179.75 c 0,73,74
 126 1216.1953125 126 1216.1953125 146.53515625 1258.9765625 c 0,75,76
 190.172851562 1346.25195312 190.172851562 1346.25195312 280.782226562 1409.06054688 c 0,77,78
 328.208007812 1441.93554688 328.208007812 1441.93554688 399.663085938 1460.46777344 c 0,79,80
 471.985351562 1479 471.985351562 1479 555.126953125 1479 c 0,81,82
 825.063476562 1479 825.063476562 1479 954.565429688 1378.35742188 c 0,83,84
 1079.07421875 1277.71582031 1079.07421875 1277.71582031 1079.07421875 1086.35253906 c 0,85,86
 1079.07421875 1081.77734375 1079.07421875 1081.77734375 1079.06640625 1077.78515625 c 128,-1,87
 1079.05859375 1073.79199219 1079.05859375 1073.79199219 1079.05859375 1070.45507812 c 0,88,89
 1079.05859375 1013.34179688 1079.05859375 1013.34179688 1062.1796875 963.795898438 c 128,-1,90
 1045.29980469 914.25 1045.29980469 914.25 1015.62402344 879.127929688 c 128,-1,91
 985.948242188 844.005859375 985.948242188 844.005859375 945.012695312 817.751953125 c 128,-1,92
 904.078125 791.497070312 904.078125 791.497070312 860.3984375 776.552734375 c 1,93,94
 893.487304688 766.622070312 893.487304688 766.622070312 920.22265625 754.994140625 c 0,95,96
 983.20703125 727.599609375 983.20703125 727.599609375 1030.97558594 682.920898438 c 128,-1,0
 1078.74414062 638.2421875 1078.74414062 638.2421875 1101.87207031 572.096679688 c 128,-1,1
EndSplineSet
EndChar

StartChar: four
Encoding: 52 52 20
Width: 1216
GlyphClass: 2
Flags: W
LayerCount: 2
Fore
SplineSet
616.229492188 633.142578125 m 0,0,1
 681.760742188 633.142578125 681.760742188 633.142578125 755.170898438 632.146484375 c 1,2,3
 754.979492188 986.637695312 754.979492188 986.637695312 741.3671875 1205.65722656 c 1,4,5
 451.001953125 838.401367188 451.001953125 838.401367188 339.5703125 627.00390625 c 1,6,7
 454.10546875 633 454.10546875 633 616.229492188 633.142578125 c 0,0,1
974.575195312 121.727539062 m 0,8,9
 979.331054688 97.8916015625 979.331054688 97.8916015625 979.331054688 76.345703125 c 0,10,11
 979.331054688 35.984375 979.331054688 35.984375 962.67578125 3.787109375 c 0,12,13
 935.88671875 -48 935.88671875 -48 883.763671875 -48 c 0,14,15
 840.779296875 -48 840.779296875 -48 799.166992188 -16.1416015625 c 128,-1,16
 757.5546875 15.7158203125 757.5546875 15.7158203125 755.194335938 51.3671875 c 2,17,18
 755.189453125 59.3095703125 755.189453125 59.3095703125 755.18359375 51.572265625 c 2,19,20
 754.13671875 75.3046875 754.13671875 75.3046875 754.13671875 129.458984375 c 0,21,22
 754.655273438 284.310546875 754.655273438 284.310546875 754.655273438 284.337890625 c 2,23,24
 754.900390625 367.865234375 754.900390625 367.865234375 755.145507812 448.138671875 c 1,25,26
 706.981445312 448.694335938 706.981445312 448.694335938 662.577148438 448.694335938 c 0,27,28
 358.669921875 448.694335938 358.669921875 448.694335938 234.907226562 422.23046875 c 0,29,30
 219.852539062 418.9375 219.852539062 418.9375 203.682617188 418.9375 c 128,-1,31
 187.51171875 418.9375 187.51171875 418.9375 171.049804688 424.528320312 c 0,32,33
 141.706054688 434.471679688 141.706054688 434.471679688 124.740234375 456.311523438 c 128,-1,34
 107.775390625 477.993164062 107.775390625 477.993164062 99.005859375 505.072265625 c 128,-1,35
 90.236328125 532.151367188 90.236328125 532.151367188 90.236328125 560.705078125 c 0,36,37
 90.236328125 593.418945312 90.236328125 593.418945312 100.357421875 621.731445312 c 0,38,39
 121.795898438 680.375976562 121.795898438 680.375976562 211.735351562 809.267578125 c 128,-1,40
 301.673828125 938.158203125 301.673828125 938.158203125 447.756835938 1127.79199219 c 0,41,42
 578.411132812 1295.88867188 578.411132812 1295.88867188 657.423828125 1403.56835938 c 0,43,44
 686.727539062 1442.91503906 686.727539062 1442.91503906 723.530273438 1463.87695312 c 128,-1,45
 760.333984375 1484.83886719 760.333984375 1484.83886719 794.107421875 1484.99902344 c 0,46,47
 805.771484375 1485.7109375 805.771484375 1485.7109375 809.529296875 1485.7109375 c 0,48,49
 846.107421875 1485.7109375 846.107421875 1485.7109375 877.4375 1469.50195312 c 0,50,51
 915.768554688 1448.96386719 915.768554688 1448.96386719 924.609375 1399.87890625 c 2,52,53
 924.618164062 1391.06054688 924.618164062 1391.06054688 924.626953125 1399.77441406 c 2,54,55
 936.721679688 1328.14160156 936.721679688 1328.14160156 944.239257812 1180.72070312 c 128,-1,56
 951.756835938 1033.29980469 951.756835938 1033.29980469 953.76171875 930.9296875 c 2,57,58
 956.672851562 779.991210938 956.672851562 779.991210938 959.583984375 630.647460938 c 1,59,60
 990.763671875 629.169921875 990.763671875 629.169921875 1027.76367188 629.169921875 c 0,61,62
 1080.19921875 629.169921875 1080.19921875 629.169921875 1101.87304688 605.522460938 c 128,-1,63
 1123.546875 581.875976562 1123.546875 581.875976562 1125.74707031 543.860351562 c 2,64,65
 1125.75585938 545.97265625 1125.75585938 545.97265625 1125.76367188 543.575195312 c 2,66,67
 1125.76367188 500.404296875 1125.76367188 500.404296875 1106.26171875 475.793945312 c 0,68,69
 1081.52441406 444.577148438 1081.52441406 444.577148438 1027.76367188 444.577148438 c 0,70,71
 992.665039062 444.577148438 992.665039062 444.577148438 961.908203125 446.014648438 c 1,72,73
 965.897460938 162.8671875 965.897460938 162.8671875 974.575195312 121.727539062 c 0,8,9
EndSplineSet
EndChar

StartChar: five
Encoding: 53 53 21
Width: 1216
GlyphClass: 2
Flags: W
LayerCount: 2
Fore
SplineSet
102.03515625 1149.25683594 m 0,0,1
 106.83984375 1213.07910156 106.83984375 1213.07910156 107.400390625 1242.71582031 c 1,2,3
 85.078125 1279.62402344 85.078125 1279.62402344 85.078125 1329.25390625 c 0,4,5
 85.078125 1394.03613281 85.078125 1394.03613281 126.01171875 1432.453125 c 0,6,7
 154.297851562 1459 154.297851562 1459 193.469726562 1459 c 0,8,9
 269.672851562 1459 269.672851562 1459 573.736328125 1454.5 c 0,10,11
 882.169921875 1450 882.169921875 1450 1030.46972656 1450 c 0,12,13
 1068.85742188 1450 1068.85742188 1450 1093.87695312 1417.11816406 c 0,14,15
 1124.59472656 1376.74609375 1124.59472656 1376.74609375 1124.59472656 1316.6328125 c 0,16,17
 1124.59472656 1256.18457031 1124.59472656 1256.18457031 1089.46875 1235.84863281 c 0,18,19
 1079.01660156 1229.796875 1079.01660156 1229.796875 1068.92480469 1225.08789062 c 128,-1,20
 1058.83398438 1220.37890625 1058.83398438 1220.37890625 1041.58886719 1219.18945312 c 128,-1,21
 1024.34375 1218 1024.34375 1218 1017.34863281 1218 c 128,-1,22
 1010.35351562 1218 1010.35351562 1218 994.506835938 1219.3984375 c 128,-1,23
 978.66015625 1220.796875 978.66015625 1220.796875 975.092773438 1221 c 2,24,25
 974.84375 1196.0078125 974.84375 1196.0078125 974.594726562 1221.01464844 c 2,26,27
 945.008789062 1222.03515625 945.008789062 1222.03515625 868.13671875 1228.04882812 c 0,28,29
 787.020507812 1234.0625 787.020507812 1234.0625 724.6875 1237.53125 c 128,-1,30
 662.356445312 1241 662.356445312 1241 556.744140625 1241 c 128,-1,31
 451.1328125 1241 451.1328125 1241 342.7734375 1235.38769531 c 1,32,33
 335.33203125 1082.74902344 335.33203125 1082.74902344 334.877929688 1050.578125 c 0,34,35
 334.423828125 1014.05566406 334.423828125 1014.05566406 334.423828125 998.23046875 c 128,-1,36
 334.423828125 982.405273438 334.423828125 982.405273438 334.91015625 954.227539062 c 1,37,38
 391.0078125 995.330078125 391.0078125 995.330078125 468.325195312 1025.05664062 c 0,39,40
 580.018554688 1068 580.018554688 1068 723.35546875 1068 c 0,41,42
 828.948242188 1068 828.948242188 1068 913.1796875 1032.39941406 c 0,43,44
 991.346679688 996.797851562 991.346679688 996.797851562 1041.61035156 935.096679688 c 128,-1,45
 1091.87402344 873.396484375 1091.87402344 873.396484375 1118.671875 792.211914062 c 128,-1,46
 1145.46972656 711.02734375 1145.46972656 711.02734375 1145.46972656 617.19921875 c 0,47,48
 1145.46972656 464.827148438 1145.46972656 464.827148438 1106.14941406 341.380859375 c 128,-1,49
 1066.82910156 217.934570312 1066.82910156 217.934570312 994.3359375 134.716796875 c 128,-1,50
 921.842773438 51.4990234375 921.842773438 51.4990234375 813.999023438 7.2490234375 c 0,51,52
 704.081054688 -37 704.081054688 -37 572.420898438 -37 c 0,53,54
 470.59765625 -37 470.59765625 -37 383.780273438 -17.15625 c 0,55,56
 298.619140625 2.6884765625 298.619140625 2.6884765625 244.1171875 36.5537109375 c 128,-1,57
 189.614257812 70.419921875 189.614257812 70.419921875 152.920898438 108.708984375 c 128,-1,58
 116.135742188 147.092773438 116.135742188 147.092773438 92.0498046875 190.884765625 c 1,59,60
 70.5302734375 239.088867188 70.5302734375 239.088867188 70.5302734375 274.508789062 c 0,61,62
 70.5302734375 287.016601562 70.5302734375 287.016601562 73.1142578125 298.161132812 c 0,63,64
 83.767578125 344.102539062 83.767578125 344.102539062 130.91015625 367.672851562 c 1,65,66
 156.225585938 378.6796875 156.225585938 378.6796875 171.200195312 382.673828125 c 128,-1,67
 186.174804688 386.666992188 186.174804688 386.666992188 197.0234375 386.666992188 c 128,-1,68
 207.872070312 386.666992188 207.872070312 386.666992188 215.255859375 385.845703125 c 0,69,70
 241.255859375 382.95703125 241.255859375 382.95703125 263.248046875 363.02734375 c 0,71,72
 281.3203125 346.6484375 281.3203125 346.6484375 302.169921875 317.021484375 c 1,73,74
 394.69921875 186 394.69921875 186 550.541992188 186 c 128,-1,75
 706.384765625 186 706.384765625 186 797.147460938 292.842773438 c 0,76,77
 890.697265625 402.96484375 890.697265625 402.96484375 890.697265625 592.370117188 c 0,78,79
 890.697265625 706.604492188 890.697265625 706.604492188 833.862304688 772.884765625 c 0,80,81
 779.7421875 836 779.7421875 836 666.481445312 836 c 0,82,83
 613.081054688 836 613.081054688 836 553.69140625 824.081054688 c 0,84,85
 524.153320312 818.15234375 524.153320312 818.15234375 473.994140625 794.3046875 c 0,86,87
 462.69921875 788.934570312 462.69921875 788.934570312 442.252929688 773.979492188 c 128,-1,88
 421.806640625 759.024414062 421.806640625 759.024414062 415.127929688 753.387695312 c 0,89,90
 380.271484375 723.969726562 380.271484375 723.969726562 359.271484375 704.76953125 c 1,91,92
 312.295898438 666.571289062 312.295898438 666.571289062 250.067382812 660.133789062 c 0,93,94
 242.975585938 659.400390625 242.975585938 659.400390625 235.870117188 659.400390625 c 0,95,96
 206.806640625 659.400390625 206.806640625 659.400390625 179.3984375 671.114257812 c 0,97,98
 135.538085938 690.46484375 135.538085938 690.46484375 114.41796875 749.599609375 c 0,99,100
 95.6201171875 801.5703125 95.6201171875 801.5703125 92.9853515625 876.493164062 c 0,101,102
 91.8330078125 908.381835938 91.8330078125 908.381835938 91.8330078125 942.278320312 c 0,103,104
 91.8330078125 1013.71875 91.8330078125 1013.71875 102.03515625 1149.25683594 c 0,0,1
EndSplineSet
EndChar

StartChar: six
Encoding: 54 54 22
Width: 1216
GlyphClass: 2
Flags: W
LayerCount: 2
Fore
SplineSet
1120.15820312 739.278320312 m 128,-1,1
 1150.06347656 643.435546875 1150.06347656 643.435546875 1150.06347656 515.71484375 c 0,2,3
 1150.06347656 399.934570312 1150.06347656 399.934570312 1110.49902344 296.189453125 c 0,4,5
 1030.58789062 86.646484375 1030.58789062 86.646484375 832.081054688 -1.6875 c 0,6,7
 726.663085938 -46 726.663085938 -46 609.161132812 -46 c 0,8,9
 464.919921875 -46 464.919921875 -46 355.052734375 4.2705078125 c 0,10,11
 250.795898438 54.5419921875 250.795898438 54.5419921875 187.759765625 147.16796875 c 128,-1,12
 124.723632812 239.794921875 124.723632812 239.794921875 95.330078125 361.911132812 c 128,-1,13
 65.9365234375 484.028320312 65.9365234375 484.028320312 65.9365234375 629.227539062 c 0,14,15
 65.9365234375 814.372070312 65.9365234375 814.372070312 101.291015625 958.03125 c 128,-1,16
 136.646484375 1101.69042969 136.646484375 1101.69042969 197.358398438 1198.71972656 c 128,-1,17
 258.071289062 1295.75 258.071289062 1295.75 350.28125 1362.78027344 c 0,18,19
 447.431640625 1429.81152344 447.431640625 1429.81152344 559.295898438 1464.39355469 c 128,-1,20
 671.16015625 1498.97558594 671.16015625 1498.97558594 807.774414062 1508.90917969 c 0,21,22
 818.490234375 1509.74414062 818.490234375 1509.74414062 828.78125 1509.74414062 c 0,23,24
 875.03125 1509.74414062 875.03125 1509.74414062 911.59375 1492.9375 c 0,25,26
 959.384765625 1470.54101562 959.384765625 1470.54101562 965.884765625 1420.74902344 c 0,27,28
 966.36328125 1416.95410156 966.36328125 1416.95410156 966.36328125 1413.09667969 c 0,29,30
 966.36328125 1382.09375 966.36328125 1382.09375 935.112304688 1349.63183594 c 0,31,32
 903.00390625 1316.39453125 903.00390625 1316.39453125 859.90234375 1305.59570312 c 0,33,34
 835.134765625 1299.71582031 835.134765625 1299.71582031 783.923828125 1290.23144531 c 128,-1,35
 732.712890625 1280.74707031 732.712890625 1280.74707031 698.41796875 1272.02050781 c 128,-1,36
 664.122070312 1263.29394531 664.122070312 1263.29394531 617.966796875 1246.59179688 c 0,37,38
 528.580078125 1214.24414062 528.580078125 1214.24414062 435.520507812 1122.0078125 c 0,39,40
 389.157226562 1073.07714844 389.157226562 1073.07714844 349.338867188 988.927734375 c 0,41,42
 330.27734375 946.903320312 330.27734375 946.903320312 317.857421875 909.104492188 c 1,43,44
 372.865234375 947.421875 372.865234375 947.421875 442.876953125 971.421875 c 0,45,46
 558.333984375 1011 558.333984375 1011 699.809570312 1011 c 0,47,48
 808.434570312 1011 808.434570312 1011 893.942382812 982.904296875 c 0,49,50
 973.108398438 954.807617188 973.108398438 954.807617188 1031.6328125 895.013671875 c 128,-1,0
 1090.25390625 835.120117188 1090.25390625 835.120117188 1120.15820312 739.278320312 c 128,-1,1
506.26953125 195.19140625 m 128,-1,52
 553.54296875 176.955078125 553.54296875 176.955078125 605.924804688 176.955078125 c 0,53,54
 608.377929688 176.955078125 608.377929688 176.955078125 610.849609375 176.99609375 c 2,55,-1
 611.345703125 176.99609375 l 2,56,57
 683.879882812 176.99609375 683.879882812 176.99609375 751.90234375 223.607421875 c 128,-1,58
 819.92578125 270.217773438 819.92578125 270.217773438 859.798828125 343.470703125 c 128,-1,59
 899.672851562 416.724609375 899.672851562 416.724609375 899.672851562 491.921875 c 0,60,61
 899.672851562 667.0390625 899.672851562 667.0390625 831.499023438 725.306640625 c 0,62,63
 796.879882812 754.895507812 796.879882812 754.895507812 752.814453125 766.948242188 c 128,-1,64
 708.748046875 779 708.748046875 779 641.92578125 779 c 0,65,66
 536.876953125 779 536.876953125 779 446.288085938 732.1015625 c 128,-1,67
 355.700195312 685.204101562 355.700195312 685.204101562 300.071289062 614.982421875 c 1,68,69
 300.243164062 536.573242188 300.243164062 536.573242188 303.985351562 485.20703125 c 0,70,71
 312.131835938 398.196289062 312.131835938 398.196289062 363.249023438 317.82421875 c 0,72,73
 389.889648438 275.938476562 389.889648438 275.938476562 424.442382812 244.682617188 c 128,-1,51
 458.994140625 213.426757812 458.994140625 213.426757812 506.26953125 195.19140625 c 128,-1,52
EndSplineSet
EndChar

StartChar: seven
Encoding: 55 55 23
Width: 1216
GlyphClass: 2
Flags: W
LayerCount: 2
Fore
SplineSet
459.84765625 1230.87695312 m 0,0,1
 257.524414062 1226.31835938 257.524414062 1226.31835938 199.327148438 1211.55078125 c 0,2,3
 186.104492188 1208.2734375 186.104492188 1208.2734375 170.891601562 1208.2734375 c 128,-1,4
 155.678710938 1208.2734375 155.678710938 1208.2734375 140.002929688 1214.49609375 c 0,5,6
 113.936523438 1224.84179688 113.936523438 1224.84179688 98.6435546875 1245.18554688 c 0,7,8
 70.71484375 1282.33789062 70.71484375 1282.33789062 68.0146484375 1329.3671875 c 1,9,10
 67.9951171875 1309.48925781 67.9951171875 1309.48925781 67.9755859375 1330.72753906 c 1,11,12
 67.9755859375 1374.36816406 67.9755859375 1374.36816406 92.2333984375 1402.27636719 c 0,13,14
 116.956054688 1430.71972656 116.956054688 1430.71972656 175.424804688 1441.5859375 c 0,15,16
 286.966796875 1462.13378906 286.966796875 1462.13378906 546.419921875 1462.13378906 c 0,17,18
 653.60546875 1462.13378906 653.60546875 1462.13378906 839.810546875 1455.06640625 c 0,19,20
 1015.50292969 1448 1015.50292969 1448 1022.97558594 1448 c 0,21,22
 1049.26074219 1448 1049.26074219 1448 1075.76855469 1436.671875 c 128,-1,23
 1102.27636719 1425.34472656 1102.27636719 1425.34472656 1124.48339844 1400.18652344 c 0,24,25
 1148.02734375 1373.51171875 1148.02734375 1373.51171875 1148.0234375 1331.86914062 c 0,26,27
 1148.0234375 1295.51269531 1148.0234375 1295.51269531 1126.63476562 1250.15332031 c 0,28,29
 1097.0625 1189.0078125 1097.0625 1189.0078125 1021.671875 1068.9453125 c 128,-1,30
 946.28125 948.881835938 946.28125 948.881835938 862.038085938 823.424804688 c 0,31,32
 773.708007812 697.967773438 773.708007812 697.967773438 647.348632812 490.225585938 c 128,-1,33
 521.028320312 282.549804688 521.028320312 282.549804688 407.75390625 64.7236328125 c 0,34,35
 378.329101562 6.2216796875 378.329101562 6.2216796875 328.646484375 -23.275390625 c 0,36,37
 290.741210938 -47.85546875 290.741210938 -47.85546875 253.08984375 -47.85546875 c 0,38,39
 240.872070312 -47.85546875 240.872070312 -47.85546875 229.419921875 -45.3798828125 c 0,40,41
 173.127929688 -33.001953125 173.127929688 -33.001953125 150.559570312 16.904296875 c 0,42,43
 140.72265625 38.6572265625 140.72265625 38.6572265625 140.72265625 64.5732421875 c 128,-1,44
 140.72265625 90.48828125 140.72265625 90.48828125 155.4921875 120.366210938 c 0,45,46
 260.900390625 325.295898438 260.900390625 325.295898438 386.422851562 527.598632812 c 0,47,48
 516.782226562 729.796875 516.782226562 729.796875 602.556640625 849.744140625 c 128,-1,49
 688.33203125 969.69140625 688.33203125 969.69140625 752.439453125 1069.96972656 c 128,-1,50
 816.546875 1170.24707031 816.546875 1170.24707031 844.493164062 1231.14941406 c 1,51,52
 667.389648438 1235.43554688 667.389648438 1235.43554688 459.84765625 1230.87695312 c 0,0,1
EndSplineSet
EndChar

StartChar: eight
Encoding: 56 56 24
Width: 1216
GlyphClass: 2
Flags: W
LayerCount: 2
Fore
SplineSet
1154.47949219 503.5546875 m 128,-1,1
 1162 466.115234375 1162 466.115234375 1162 426.982421875 c 0,2,3
 1162 359.877929688 1162 359.877929688 1143.56054688 293.583007812 c 128,-1,4
 1125.12109375 227.288085938 1125.12109375 227.288085938 1081.96875 163.104492188 c 128,-1,5
 1038.71875 98.7763671875 1038.71875 98.7763671875 975.821289062 50.6845703125 c 0,6,7
 912.630859375 2.591796875 912.630859375 2.591796875 808.159179688 -27.2041015625 c 128,-1,8
 703.686523438 -57 703.686523438 -57 581.7890625 -57 c 128,-1,9
 459.892578125 -57 459.892578125 -57 364.421875 -28.525390625 c 0,10,11
 271.451171875 -0.0498046875 271.451171875 -0.0498046875 215.481445312 46.38671875 c 128,-1,12
 159.512695312 92.82421875 159.512695312 92.82421875 122.006835938 155.205078125 c 128,-1,13
 84.501953125 217.5859375 84.501953125 217.5859375 69.2509765625 280.708007812 c 128,-1,14
 54 343.830078125 54 343.830078125 54 413.606445312 c 128,-1,15
 54 483.3828125 54 483.3828125 90.978515625 564.686523438 c 128,-1,16
 127.95703125 645.989257812 127.95703125 645.989257812 198.194335938 714.991210938 c 0,17,18
 247.991210938 763.913085938 247.991210938 763.913085938 306.0859375 792.395507812 c 1,19,20
 224.484375 838.697265625 224.484375 838.697265625 174.327148438 904.90234375 c 0,21,22
 109 991.130859375 109 991.130859375 109 1082.29296875 c 0,23,24
 109 1108.23046875 109 1108.23046875 113.2734375 1137.18945312 c 128,-1,25
 117.547851562 1166.1484375 117.547851562 1166.1484375 130.233398438 1204.52050781 c 128,-1,26
 142.918945312 1242.89355469 142.918945312 1242.89355469 163.315429688 1278.7421875 c 128,-1,27
 183.7109375 1314.59082031 183.7109375 1314.59082031 219.565429688 1350.33203125 c 128,-1,28
 255.4765625 1386.13085938 255.4765625 1386.13085938 301.611328125 1412.00976562 c 0,29,30
 351.8359375 1437.98144531 351.8359375 1437.98144531 425.514648438 1453.73046875 c 0,31,32
 499.193359375 1470 499.193359375 1470 587.311523438 1470 c 128,-1,33
 675.427734375 1470 675.427734375 1470 749.5859375 1453.75 c 0,34,35
 823.744140625 1438.02148438 823.744140625 1438.02148438 874.9765625 1412.12988281 c 0,36,37
 925.434570312 1386.21972656 925.434570312 1386.21972656 961.434570312 1350.33300781 c 128,-1,38
 997.2890625 1314.59082031 997.2890625 1314.59082031 1017.71875 1278.68261719 c 128,-1,39
 1038.1484375 1242.77441406 1038.1484375 1242.77441406 1050.81933594 1202.91503906 c 128,-1,40
 1063.49023438 1163.0546875 1063.49023438 1163.0546875 1067.74511719 1133.19335938 c 128,-1,41
 1072 1103.33203125 1072 1103.33203125 1072 1075.22363281 c 128,-1,42
 1072 1047.11425781 1072 1047.11425781 1064.74316406 1021.17675781 c 128,-1,43
 1057.48535156 995.240234375 1057.48535156 995.240234375 1046.78808594 974.530273438 c 128,-1,44
 1036.09082031 953.821289062 1036.09082031 953.821289062 1017.796875 932.467773438 c 128,-1,45
 999.502929688 911.114257812 999.502929688 911.114257812 984.547851562 896.637695312 c 128,-1,46
 969.592773438 882.161132812 969.592773438 882.161132812 945.739257812 864.091796875 c 128,-1,47
 921.885742188 846.021484375 921.885742188 846.021484375 907.918945312 836.967773438 c 0,48,49
 893.454101562 827.9140625 893.454101562 827.9140625 870.077148438 813.604492188 c 1,50,51
 927.45703125 788.3125 927.45703125 788.3125 971.108398438 757.817382812 c 0,52,53
 1031.15527344 715.8671875 1031.15527344 715.8671875 1066.67382812 674.81640625 c 128,-1,54
 1102.28320312 633.659179688 1102.28320312 633.659179688 1124.62109375 587.326171875 c 128,-1,0
 1146.95800781 540.994140625 1146.95800781 540.994140625 1154.47949219 503.5546875 c 128,-1,1
424.677734375 1211.19824219 m 128,-1,56
 356.611328125 1149.54589844 356.611328125 1149.54589844 356.611328125 1077 c 0,57,58
 356.611328125 1020.64453125 356.611328125 1020.64453125 414.904296875 975.649414062 c 0,59,60
 477.067382812 927.66796875 477.067382812 927.66796875 621.709960938 877.823242188 c 1,61,62
 704.6640625 909.627929688 704.6640625 909.627929688 767.87890625 963.28125 c 128,-1,63
 831.09375 1016.93457031 831.09375 1016.93457031 831.09375 1057 c 0,64,65
 831.09375 1107.21875 831.09375 1107.21875 799.275390625 1157.1484375 c 128,-1,66
 767.456054688 1207.07910156 767.456054688 1207.07910156 710.235351562 1240.05273438 c 128,-1,67
 653.014648438 1273.02636719 653.014648438 1273.02636719 590.06640625 1273.02636719 c 0,68,69
 588.361328125 1273.02636719 588.361328125 1273.02636719 586.6484375 1273.00292969 c 2,70,-1
 586.234375 1273.00292969 l 2,71,55
 492.908203125 1273.00292969 492.908203125 1273.00292969 424.677734375 1211.19824219 c 128,-1,56
439.71484375 198.02734375 m 0,72,73
 511.940429688 167.947265625 511.940429688 167.947265625 593.10546875 167.947265625 c 0,74,75
 650.833007812 167.947265625 650.833007812 167.947265625 709.376953125 184.359375 c 128,-1,76
 767.919921875 200.771484375 767.919921875 200.771484375 815.83203125 231.498046875 c 128,-1,77
 863.743164062 262.224609375 863.743164062 262.224609375 892.58203125 309.383789062 c 0,78,79
 921 356.543945312 921 356.543945312 921 411 c 0,80,81
 921 441.668945312 921 441.668945312 916.006835938 468.350585938 c 0,82,83
 910.592773438 495.032226562 910.592773438 495.032226562 891.711914062 530.188476562 c 128,-1,84
 872.830078125 565.345703125 872.830078125 565.345703125 840.182617188 595.805664062 c 128,-1,85
 807.536132812 626.266601562 807.536132812 626.266601562 748.474609375 659.484375 c 128,-1,86
 689.411132812 692.703125 689.411132812 692.703125 611.0390625 719.774414062 c 1,87,88
 463.12890625 682.185546875 463.12890625 682.185546875 371.236328125 593.59375 c 0,89,90
 281 505.000976562 281 505.000976562 281 406 c 0,91,92
 281 338.310546875 281 338.310546875 324.595703125 282.717773438 c 0,93,94
 369.846679688 227.125976562 369.846679688 227.125976562 439.71484375 198.02734375 c 0,72,73
EndSplineSet
EndChar

StartChar: nine
Encoding: 57 57 25
Width: 1216
GlyphClass: 2
Flags: W
LayerCount: 2
Fore
SplineSet
355.802734375 -45.9091796875 m 0,0,1
 345.303710938 -46.7275390625 345.303710938 -46.7275390625 335.209960938 -46.7275390625 c 0,2,3
 290.502929688 -46.7275390625 290.502929688 -46.7275390625 256.15625 -29.3125 c 0,4,5
 208.427734375 -6.294921875 208.427734375 -6.294921875 202.103515625 42.4208984375 c 0,6,7
 201.637695312 46.259765625 201.637695312 46.259765625 201.637695312 50.1455078125 c 0,8,9
 201.637695312 82.0068359375 201.637695312 82.0068359375 232.944335938 113.98828125 c 128,-1,10
 264.25 145.969726562 264.25 145.969726562 303.657226562 157.327148438 c 0,11,12
 329.20703125 164.295898438 329.20703125 164.295898438 384.619140625 174.329101562 c 128,-1,13
 440.029296875 184.362304688 440.029296875 184.362304688 482.678710938 194.111328125 c 128,-1,14
 525.328125 203.861328125 525.328125 203.861328125 577.716796875 221.198242188 c 0,15,16
 686.541015625 257.2109375 686.541015625 257.2109375 768.614257812 337.53125 c 0,17,18
 822.115234375 392.5625 822.115234375 392.5625 864.26953125 464.825195312 c 0,19,20
 880.600585938 494.169921875 880.600585938 494.169921875 892.66796875 521.431640625 c 1,21,22
 848.420898438 495.973632812 848.420898438 495.973632812 794.880859375 482.403320312 c 0,23,24
 694.6640625 457 694.6640625 457 546.770507812 457 c 0,25,26
 441.852539062 457 441.852539062 457 347.446289062 500.516601562 c 0,27,28
 257.990234375 544.033203125 257.990234375 544.033203125 197.493164062 614.953125 c 128,-1,29
 136.995117188 685.873046875 136.995117188 685.873046875 101.465820312 778.767578125 c 128,-1,30
 65.9375 871.662109375 65.9375 871.662109375 65.9375 968.892578125 c 0,31,32
 65.9375 1084.77539062 65.9375 1084.77539062 105.62890625 1186.30273438 c 128,-1,33
 145.3203125 1287.82910156 145.3203125 1287.82910156 214.181640625 1359.72265625 c 128,-1,34
 283.18359375 1431.76074219 283.18359375 1431.76074219 384.4921875 1472.8515625 c 0,35,36
 488.573242188 1514 488.573242188 1514 606.838867188 1514 c 0,37,38
 895.859375 1514 895.859375 1514 1026.97167969 1317.79882812 c 0,39,40
 1150.0625 1132.59277344 1150.0625 1132.59277344 1150.0625 796.267578125 c 0,41,42
 1150.0625 620.383789062 1150.0625 620.383789062 1109.41796875 484.844726562 c 128,-1,43
 1068.77246094 349.3046875 1068.77246094 349.3046875 1000.81640625 256.8203125 c 128,-1,44
 932.842773438 164.310546875 932.842773438 164.310546875 830.85546875 98.587890625 c 0,45,46
 726.239257812 32.865234375 726.239257812 32.865234375 608.69921875 -1.0634765625 c 128,-1,47
 491.159179688 -34.9921875 491.159179688 -34.9921875 355.802734375 -45.9091796875 c 0,0,1
356.506835938 1136.58496094 m 128,-1,49
 316.328125 1067.28320312 316.328125 1067.28320312 316.328125 993.360351562 c 0,50,51
 316.328125 689 316.328125 689 604.654296875 689 c 0,52,53
 696.765625 689 696.765625 689 782.736328125 725.03125 c 128,-1,54
 868.70703125 761.063476562 868.70703125 761.063476562 918.159179688 820.06640625 c 1,55,56
 918.337890625 828.131835938 918.337890625 828.131835938 918.337890625 837.244140625 c 0,57,58
 918.337890625 891.655273438 918.337890625 891.655273438 912.01171875 982.833007812 c 0,59,60
 903.856445312 1069.82324219 903.856445312 1069.82324219 852.751953125 1150.17578125 c 0,61,62
 826.111328125 1192.06152344 826.111328125 1192.06152344 791.55859375 1223.31738281 c 128,-1,63
 757.005859375 1254.57324219 757.005859375 1254.57324219 709.731445312 1272.80859375 c 128,-1,64
 662.458007812 1291.04492188 662.458007812 1291.04492188 610.076171875 1291.04492188 c 0,65,66
 607.623046875 1291.04492188 607.623046875 1291.04492188 605.150390625 1291.00390625 c 2,67,-1
 604.654296875 1291.00390625 l 2,68,69
 530.4921875 1291.00390625 530.4921875 1291.00390625 463.5703125 1248.41503906 c 128,-1,48
 396.649414062 1205.82617188 396.649414062 1205.82617188 356.506835938 1136.58496094 c 128,-1,49
EndSplineSet
EndChar

StartChar: colon
Encoding: 58 58 26
Width: 1216
GlyphClass: 2
Flags: W
LayerCount: 2
Fore
SplineSet
761.841796875 827.861328125 m 0,0,1
 761.841796875 768.965820312 761.841796875 768.965820312 744.087890625 703.7265625 c 0,2,3
 731.591796875 653.026367188 731.591796875 653.026367188 688.991210938 626.713867188 c 0,4,5
 651.934570312 603.826171875 651.934570312 603.826171875 614.626953125 603.826171875 c 0,6,7
 610.984375 603.826171875 610.984375 603.826171875 607.440429688 604.041015625 c 0,8,9
 546.752929688 607.494140625 546.752929688 607.494140625 509.416015625 629.4609375 c 0,10,11
 458.311523438 659.52734375 458.311523438 659.52734375 452.014648438 720.40234375 c 2,12,-1
 451.99609375 720.577148438 l 2,13,14
 448.755859375 756.87109375 448.755859375 756.87109375 448.755859375 795.030273438 c 0,15,16
 448.755859375 833.188476562 448.755859375 833.188476562 449.990234375 866.803710938 c 0,17,18
 451.224609375 900.419921875 451.224609375 900.419921875 470.62890625 923.83984375 c 0,19,20
 490.034179688 947.259765625 490.034179688 947.259765625 517.06640625 956.87109375 c 0,21,22
 544.098632812 966.482421875 544.098632812 966.482421875 563.79296875 968.883789062 c 0,23,24
 583.486328125 971.286132812 583.486328125 971.286132812 594.485351562 971.286132812 c 0,25,26
 630.146484375 971.286132812 630.146484375 971.286132812 652.536132812 966.572265625 c 0,27,28
 674.92578125 961.858398438 674.92578125 961.858398438 699.311523438 950.275390625 c 0,29,30
 723.696289062 938.692382812 723.696289062 938.692382812 740.368164062 914.325195312 c 0,31,32
 757.743164062 888.931640625 757.743164062 888.931640625 760.810546875 855.883789062 c 0,33,34
 761.841796875 842.060546875 761.841796875 842.060546875 761.841796875 827.861328125 c 0,0,1
767.244140625 254.702148438 m 0,35,36
 767.244140625 205.090820312 767.244140625 205.090820312 753.05859375 153.616210938 c 0,37,38
 740.19921875 102.768554688 740.19921875 102.768554688 689.646484375 77.1796875 c 0,39,40
 647.452148438 55.822265625 647.452148438 55.822265625 608.31640625 55.822265625 c 0,41,42
 557.024414062 55.822265625 557.024414062 55.822265625 508.72265625 86.560546875 c 0,43,44
 460.419921875 117.297851562 460.419921875 117.297851562 453.947265625 172.958007812 c 1,45,46
 451.296875 230.735351562 451.296875 230.735351562 451.296875 238.4609375 c 0,47,48
 451.296875 246.1875 451.296875 246.1875 453.591796875 274.638671875 c 0,49,50
 455.88671875 303.08984375 455.88671875 303.08984375 456.883789062 318.850585938 c 0,51,52
 457.141601562 351.908203125 457.141601562 351.908203125 475.9453125 376.083984375 c 0,53,54
 494.748046875 400.258789062 494.748046875 400.258789062 523.819335938 410.169921875 c 0,55,56
 565.122070312 424.25 565.122070312 424.25 603.318359375 424.25 c 0,57,58
 640.912109375 424.25 640.912109375 424.25 669.911132812 415.1875 c 0,59,60
 698.91015625 406.125976562 698.91015625 406.125976562 726.970703125 379.28515625 c 0,61,62
 755.346679688 352.142578125 755.346679688 352.142578125 762.530273438 311.189453125 c 0,63,64
 767.244140625 283.299804688 767.244140625 283.299804688 767.244140625 254.702148438 c 0,35,36
EndSplineSet
EndChar

StartChar: semicolon
Encoding: 59 59 27
Width: 1216
GlyphClass: 2
Flags: W
LayerCount: 2
Fore
SplineSet
823.314453125 742.513671875 m 0,0,1
 823.314453125 682.967773438 823.314453125 682.967773438 805.559570312 617.7265625 c 0,2,3
 793.063476562 567.026367188 793.063476562 567.026367188 750.462890625 540.713867188 c 0,4,5
 713.40625 517.826171875 713.40625 517.826171875 676.099609375 517.826171875 c 0,6,7
 646.434570312 517.826171875 646.434570312 517.826171875 611.369140625 529.939453125 c 0,8,9
 576.3046875 542.052734375 576.3046875 542.052734375 548.46875 567.569335938 c 0,10,11
 517.423828125 596.02734375 517.423828125 596.02734375 513.477539062 635.487304688 c 2,12,-1
 513.463867188 635.619140625 l 2,13,14
 510.227539062 671.87109375 510.227539062 671.87109375 510.227539062 710.02734375 c 0,15,16
 510.227539062 748.18359375 510.227539062 748.18359375 511.46484375 781.213867188 c 0,17,18
 512.702148438 814.245117188 512.702148438 814.245117188 532.100585938 838.325195312 c 0,19,20
 551.499023438 862.40625 551.499023438 862.40625 578.536132812 871.418945312 c 0,21,22
 623.030273438 886.25 623.030273438 886.25 662.727539062 886.25 c 0,23,24
 692.887695312 886.25 692.887695312 886.25 714.673828125 881.540039062 c 0,25,26
 736.459960938 876.829101562 736.459960938 876.829101562 760.887695312 865.225585938 c 0,27,28
 785.315429688 853.623046875 785.315429688 853.623046875 801.907226562 828.734375 c 0,29,30
 819.28125 802.673828125 819.28125 802.673828125 822.284179688 770.856445312 c 0,31,32
 823.314453125 756.854492188 823.314453125 756.854492188 823.314453125 742.513671875 c 0,0,1
782.93359375 160.802734375 m 0,33,34
 782.93359375 154.805664062 782.93359375 154.805664062 782.240234375 148.583984375 c 0,35,36
 776.727539062 80.3466796875 776.727539062 80.3466796875 648.505859375 -389.470703125 c 0,37,38
 635.013671875 -440.822265625 635.013671875 -440.822265625 596.29296875 -465.578125 c 0,39,40
 562.497070312 -487.186523438 562.497070312 -487.186523438 525.470703125 -487.186523438 c 0,41,42
 473.087890625 -487.186523438 473.087890625 -487.186523438 431.0234375 -456.123046875 c 0,43,44
 392.685546875 -427.8125 392.685546875 -427.8125 392.685546875 -379.377929688 c 0,45,46
 392.685546875 -339.569335938 392.685546875 -339.569335938 433.795898438 -136.154296875 c 0,47,48
 474.90625 67.2607421875 474.90625 67.2607421875 499.002929688 167.688476562 c 0,49,50
 506.973632812 202.895507812 506.973632812 202.895507812 522.40625 226.6875 c 0,51,52
 537.838867188 250.478515625 537.838867188 250.478515625 559.998046875 258.883789062 c 0,53,54
 588.344726562 269.63671875 588.344726562 269.63671875 614.749023438 269.63671875 c 0,55,56
 624.775390625 269.63671875 624.775390625 269.63671875 634.64453125 267.986328125 c 0,57,58
 678.518554688 267.448242188 678.518554688 267.448242188 723.9375 247.379882812 c 0,59,60
 752.185546875 234.897460938 752.185546875 234.897460938 768.752929688 209.71484375 c 0,61,62
 782.93359375 188.161132812 782.93359375 188.161132812 782.93359375 160.802734375 c 0,33,34
EndSplineSet
EndChar

StartChar: less
Encoding: 60 60 28
Width: 1216
GlyphClass: 2
Flags: W
LayerCount: 2
Fore
SplineSet
1009.17675781 -50.48828125 m 0,0,1
 975.762695312 -50.48828125 975.762695312 -50.48828125 935.349609375 -36.7685546875 c 0,2,3
 880.528320312 -19.4873046875 880.528320312 -19.4873046875 802.470703125 37.5146484375 c 0,4,5
 724.4140625 94.5166015625 724.4140625 94.5166015625 636.856445312 172.513671875 c 0,6,7
 549.297851562 250.510742188 549.297851562 250.510742188 463.325195312 330.485351562 c 0,8,9
 377.352539062 410.459960938 377.352539062 410.459960938 282.8984375 493.977539062 c 0,10,11
 188.4453125 577.495117188 188.4453125 577.495117188 122.392578125 625.802734375 c 0,12,13
 88.9052734375 650.2734375 88.9052734375 650.2734375 78.2880859375 695.2421875 c 0,14,15
 73.71484375 714.609375 73.71484375 714.609375 73.71484375 735.334960938 c 0,16,17
 73.71484375 756.060546875 73.71484375 756.060546875 80.16015625 777.653320312 c 0,18,19
 92.7021484375 819.66796875 92.7021484375 819.66796875 125.158203125 839.766601562 c 0,20,21
 240.306640625 925.190429688 240.306640625 925.190429688 396.794921875 1055.26464844 c 0,22,23
 553.282226562 1185.33886719 553.282226562 1185.33886719 684.487304688 1290.90625 c 0,24,25
 815.693359375 1396.47460938 815.693359375 1396.47460938 919.110351562 1458.34863281 c 0,26,27
 960.706054688 1484.28613281 960.706054688 1484.28613281 1000.60058594 1484.28613281 c 0,28,29
 1030.828125 1484.28613281 1030.828125 1484.28613281 1054.53710938 1470.40722656 c 0,30,31
 1099.96972656 1443.8125 1099.96972656 1443.8125 1120.6953125 1397.76660156 c 0,32,33
 1131.22070312 1376.9609375 1131.22070312 1376.9609375 1131.22070312 1352.86328125 c 0,34,35
 1131.22070312 1328.76660156 1131.22070312 1328.76660156 1115.46875 1302.99023438 c 0,36,37
 1090.73339844 1262.515625 1090.73339844 1262.515625 1016.45703125 1210.52246094 c 0,38,39
 902.9765625 1130.88671875 902.9765625 1130.88671875 688.432617188 963.560546875 c 0,40,41
 473.888671875 796.234375 473.888671875 796.234375 397.072265625 737.66015625 c 1,42,43
 466.747070312 682.262695312 466.747070312 682.262695312 557.90625 600.8203125 c 0,44,45
 649.06640625 519.377929688 649.06640625 519.377929688 722.965820312 448.973632812 c 0,46,47
 796.866210938 378.569335938 796.866210938 378.569335938 881.969726562 305.8359375 c 0,48,49
 967.072265625 233.1015625 967.072265625 233.1015625 1034.09082031 189.609375 c 0,50,51
 1101.109375 146.116210938 1101.109375 146.116210938 1125.48632812 109.267578125 c 0,52,53
 1142.28515625 83.8740234375 1142.28515625 83.8740234375 1142.28515625 56.3447265625 c 0,54,55
 1142.28515625 36.2470703125 1142.28515625 36.2470703125 1133.70605469 17.2744140625 c 0,56,57
 1106.81054688 -39.205078125 1106.81054688 -39.205078125 1028.33398438 -49.294921875 c 0,58,59
 1019.05664062 -50.48828125 1019.05664062 -50.48828125 1009.17675781 -50.48828125 c 0,0,1
EndSplineSet
EndChar

StartChar: equal
Encoding: 61 61 29
Width: 1216
GlyphClass: 2
Flags: W
LayerCount: 2
Fore
SplineSet
914.075195312 1107 m 0,0,1
 973.18359375 1107 973.18359375 1107 998.358398438 1079.10351562 c 0,2,3
 1023.53320312 1051.20605469 1023.53320312 1051.20605469 1026.03417969 1007.44628906 c 1,4,-1
 1026.07519531 1006 l 2,5,6
 1026.07519531 984.192382812 1026.07519531 984.192382812 1021.78613281 965.19921875 c 0,7,8
 1017.49804688 946.205078125 1017.49804688 946.205078125 1005.19042969 927.060546875 c 0,9,10
 992.8828125 907.916015625 992.8828125 907.916015625 967.673828125 897.412109375 c 0,11,12
 950.228515625 890.142578125 950.228515625 890.142578125 928.279296875 890.142578125 c 0,13,14
 920.497070312 890.142578125 920.497070312 890.142578125 912.151367188 891.056640625 c 0,15,16
 839.377929688 893.975585938 839.377929688 893.975585938 759.254882812 892.008789062 c 2,17,-1
 534.786132812 886.009765625 l 2,18,19
 391.431640625 882 391.431640625 882 324.075195312 882 c 0,20,21
 263.793945312 882 263.793945312 882 227.086914062 913.643554688 c 0,22,23
 190.379882812 945.288085938 190.379882812 945.288085938 190.078125 991.319335938 c 0,24,25
 189.924804688 994.520507812 189.924804688 994.520507812 189.924804688 997.672851562 c 0,26,27
 189.924804688 1041.68261719 189.924804688 1041.68261719 219.622070312 1074.41015625 c 0,28,29
 249.319335938 1107.13769531 249.319335938 1107.13769531 307.034179688 1107.13769531 c 0,30,31
 310.971679688 1107.13769531 310.971679688 1107.13769531 314.943359375 1106.98535156 c 0,32,33
 517.9921875 1100.04296875 517.9921875 1100.04296875 784.102539062 1104.99511719 c 0,34,35
 891.838867188 1107 891.838867188 1107 914.075195312 1107 c 0,0,1
928.279296875 489.142578125 m 0,36,37
 920.497070312 489.142578125 920.497070312 489.142578125 912.151367188 490.056640625 c 0,38,39
 864.075195312 492 864.075195312 492 824.361328125 492 c 0,40,41
 738.135742188 492 738.135742188 492 560.301757812 486.5 c 0,42,43
 382.46875 481 382.46875 481 318.525390625 481 c 0,44,45
 254.58203125 481 254.58203125 481 222.4609375 513.762695312 c 0,46,47
 190.340820312 546.525390625 190.340820312 546.525390625 190.077148438 593.28125 c 0,48,49
 189.9375 596.046875 189.9375 596.046875 189.9375 598.772460938 c 0,50,51
 189.9375 641.999023438 189.9375 641.999023438 223.28125 671.01953125 c 0,52,53
 256.624023438 700.041015625 256.624023438 700.041015625 315.791992188 700.041015625 c 0,54,55
 318.15234375 700.041015625 318.15234375 700.041015625 351.6171875 699.420898438 c 0,56,57
 482.013671875 697.00390625 482.013671875 697.00390625 696.049804688 701.494140625 c 2,58,-1
 913.8125 706 l 1,59,60
 973.18359375 706 973.18359375 706 998.358398438 678.103515625 c 0,61,62
 1023.53320312 650.206054688 1023.53320312 650.206054688 1026.03417969 606.446289062 c 1,63,-1
 1026.07519531 605 l 2,64,65
 1026.07519531 583.102539062 1026.07519531 583.102539062 1021.78515625 564.713867188 c 0,66,67
 1017.49414062 546.326171875 1017.49414062 546.326171875 1006.33203125 528.342773438 c 0,68,69
 993.084960938 507 993.084960938 507 967.673828125 496.412109375 c 0,70,71
 950.228515625 489.142578125 950.228515625 489.142578125 928.279296875 489.142578125 c 0,36,37
EndSplineSet
EndChar

StartChar: greater
Encoding: 62 62 30
Width: 1216
GlyphClass: 2
Flags: W
LayerCount: 2
Fore
SplineSet
214.131835938 -35.9306640625 m 0,0,1
 184.565429688 -35.9306640625 184.565429688 -35.9306640625 161.16015625 -22.23046875 c 0,2,3
 137.754882812 -8.529296875 137.754882812 -8.529296875 121.279296875 10.298828125 c 0,4,5
 104.8046875 29.1279296875 104.8046875 29.1279296875 95.3046875 50.2333984375 c 0,6,7
 84.779296875 71.0390625 84.779296875 71.0390625 84.779296875 95.13671875 c 0,8,9
 84.779296875 119.233398438 84.779296875 119.233398438 100.53125 145.009765625 c 0,10,11
 125.266601562 185.484375 125.266601562 185.484375 199.54296875 237.477539062 c 0,12,13
 313.0234375 317.11328125 313.0234375 317.11328125 527.569335938 484.44140625 c 0,14,15
 742.115234375 651.768554688 742.115234375 651.768554688 819.629882812 710.345703125 c 1,16,17
 749.237304688 765.750976562 749.237304688 765.750976562 658.0859375 847.186523438 c 0,18,19
 566.93359375 928.622070312 566.93359375 928.622070312 493.034179688 999.026367188 c 0,20,21
 419.133789062 1069.43066406 419.133789062 1069.43066406 334.030273438 1142.1640625 c 0,22,23
 248.927734375 1214.8984375 248.927734375 1214.8984375 181.909179688 1258.390625 c 0,24,25
 114.890625 1301.88378906 114.890625 1301.88378906 90.513671875 1338.73242188 c 0,26,27
 73.71484375 1364.12597656 73.71484375 1364.12597656 73.71484375 1391.65527344 c 0,28,29
 73.71484375 1411.75292969 73.71484375 1411.75292969 82.2939453125 1430.72558594 c 0,30,31
 109.189453125 1487.20507812 109.189453125 1487.20507812 187.666015625 1497.29492188 c 0,32,33
 196.943359375 1498.48828125 196.943359375 1498.48828125 206.823242188 1498.48828125 c 0,34,35
 240.237304688 1498.48828125 240.237304688 1498.48828125 280.650390625 1484.76855469 c 0,36,37
 335.3828125 1467.51757812 335.3828125 1467.51757812 413.98046875 1411.00878906 c 0,38,39
 492.578125 1354.50097656 492.578125 1354.50097656 579.66796875 1275.96875 c 0,40,41
 666.756835938 1197.4375 666.756835938 1197.4375 752.702148438 1117.48828125 c 0,42,43
 838.647460938 1037.54003906 838.647460938 1037.54003906 933.068359375 954.051757812 c 0,44,45
 1027.48828125 870.563476562 1027.48828125 870.563476562 1094.47265625 822.295898438 c 0,46,47
 1126.97265625 798.2421875 1126.97265625 798.2421875 1137.71191406 752.7578125 c 0,48,49
 1142.28515625 733.390625 1142.28515625 733.390625 1142.28515625 712.665039062 c 0,50,51
 1142.28515625 691.939453125 1142.28515625 691.939453125 1135.83984375 670.346679688 c 0,52,53
 1123.28417969 628.288085938 1123.28417969 628.288085938 1090.77734375 608.193359375 c 0,54,55
 975.690429688 523.8046875 975.690429688 523.8046875 819.206054688 393.234375 c 0,56,57
 662.721679688 262.6640625 662.721679688 262.6640625 531.47265625 157.563476562 c 0,58,59
 400.22265625 52.462890625 400.22265625 52.462890625 296.916992188 -10.3310546875 c 0,60,61
 255.1484375 -35.9306640625 255.1484375 -35.9306640625 214.131835938 -35.9306640625 c 0,0,1
EndSplineSet
EndChar

StartChar: question
Encoding: 63 63 31
Width: 1216
GlyphClass: 2
Flags: W
LayerCount: 2
Fore
SplineSet
580.801757812 410.927734375 m 0,0,1
 562.01953125 410.927734375 562.01953125 410.927734375 542.42578125 415.8203125 c 0,2,3
 439.267578125 442.967773438 439.267578125 442.967773438 439.267578125 541.97265625 c 0,4,5
 439.267578125 569.9453125 439.267578125 569.9453125 447.541015625 604.07421875 c 0,6,7
 462.385742188 663.450195312 462.385742188 663.450195312 491.940429688 714.64453125 c 0,8,9
 521.49609375 765.838867188 521.49609375 765.838867188 554.893554688 802.3671875 c 0,10,11
 588.291015625 838.895507812 588.291015625 838.895507812 624.890625 870.919921875 c 0,12,13
 661.491210938 902.9453125 661.491210938 902.9453125 693.99609375 930.525390625 c 0,14,15
 726.501953125 958.10546875 726.501953125 958.10546875 751.162109375 984.627929688 c 0,16,17
 803.796875 1041.23535156 803.796875 1041.23535156 803.796875 1104 c 0,18,19
 803.796875 1197.80371094 803.796875 1197.80371094 751.934570312 1238.28125 c 0,20,21
 697.201171875 1281 697.201171875 1281 590.796875 1281 c 0,22,23
 567.15234375 1281 567.15234375 1281 541.977539062 1269.71484375 c 0,24,25
 516.802734375 1258.4296875 516.802734375 1258.4296875 497.987304688 1243.64550781 c 0,26,27
 479.171875 1228.86230469 479.171875 1228.86230469 456.37109375 1202.26171875 c 0,28,29
 433.571289062 1175.66210938 433.571289062 1175.66210938 420.962890625 1157.71875 c 0,30,31
 408.353515625 1139.77539062 408.353515625 1139.77539062 389.065429688 1111.08984375 c 0,32,33
 369.77734375 1082.40429688 369.77734375 1082.40429688 349.076171875 1064.21191406 c 0,34,35
 328.374023438 1046.01953125 328.374023438 1046.01953125 302.583984375 1043.15429688 c 0,36,37
 295.19921875 1042.33300781 295.19921875 1042.33300781 284.379882812 1042.33300781 c 0,38,39
 273.560546875 1042.33300781 273.560546875 1042.33300781 259.099609375 1046.32226562 c 0,40,41
 244.638671875 1050.31152344 244.638671875 1050.31152344 218.27734375 1061.29589844 c 1,42,43
 172.240234375 1084.97167969 172.240234375 1084.97167969 161.021484375 1130.5078125 c 0,44,45
 158.203125 1141.94628906 158.203125 1141.94628906 158.203125 1154.8046875 c 0,46,47
 158.203125 1190.32421875 158.203125 1190.32421875 180.359375 1238.046875 c 1,48,49
 203.763671875 1282.72753906 203.763671875 1282.72753906 237.790039062 1325.12890625 c 0,50,51
 271.786132812 1367.49414062 271.786132812 1367.49414062 321.333007812 1409.66210938 c 0,52,53
 370.879882812 1451.82910156 370.879882812 1451.82910156 439.021484375 1477.9140625 c 0,54,55
 507.163085938 1504 507.163085938 1504 581.796875 1504 c 0,56,57
 812.314453125 1504 812.314453125 1504 935.055664062 1394.60058594 c 0,58,59
 1057.796875 1285.20019531 1057.796875 1285.20019531 1057.796875 1069 c 0,60,61
 1057.796875 1009.34570312 1057.796875 1009.34570312 1038.640625 959.538085938 c 0,62,63
 1019.50390625 909.784179688 1019.50390625 909.784179688 988.283203125 874.794921875 c 0,64,65
 957.061523438 839.805664062 957.061523438 839.805664062 920.611328125 810.541992188 c 0,66,67
 884.161132812 781.279296875 884.161132812 781.279296875 847.133789062 753.138671875 c 0,68,69
 810.10546875 724.998046875 810.10546875 724.998046875 779.524414062 695.357421875 c 0,70,71
 748.942382812 665.716796875 748.942382812 665.716796875 726.411132812 624.333007812 c 0,72,73
 703.879882812 582.948242188 703.879882812 582.948242188 696.516601562 533.244140625 c 0,74,75
 687.241210938 471.795898438 687.241210938 471.795898438 651.008789062 437.375 c 0,76,77
 623.169921875 410.927734375 623.169921875 410.927734375 580.801757812 410.927734375 c 0,0,1
546.201171875 -54.11328125 m 0,78,79
 473.536132812 -54.11328125 473.536132812 -54.11328125 425.259765625 -3.8037109375 c 0,80,81
 370.796875 52.9521484375 370.796875 52.9521484375 370.796875 129.186523438 c 0,82,83
 370.796875 205.420898438 370.796875 205.420898438 430.404296875 257.00390625 c 0,84,85
 494.171875 312.1875 494.171875 312.1875 575.572265625 312.1875 c 0,86,87
 650.908203125 312.1875 650.908203125 312.1875 700.873046875 262.772460938 c 0,88,89
 753.796875 210.4296875 753.796875 210.4296875 753.796875 134.540039062 c 0,90,91
 753.796875 58.6513671875 753.796875 58.6513671875 702.5234375 7.3779296875 c 0,92,93
 651.249023438 -43.896484375 651.249023438 -43.896484375 569.439453125 -52.861328125 c 0,94,95
 557.551757812 -54.11328125 557.551757812 -54.11328125 546.201171875 -54.11328125 c 0,78,79
EndSplineSet
EndChar

StartChar: at
Encoding: 64 64 32
Width: 1216
GlyphClass: 2
Flags: W
LayerCount: 2
Fore
SplineSet
756.888671875 304.10546875 m 1,0,1
 698.513671875 216 698.513671875 216 588 216 c 0,2,3
 455.7734375 216 455.7734375 216 381.38671875 299.75390625 c 0,4,5
 307 383.5078125 307 383.5078125 307 548 c 0,6,7
 307 629.186523438 307 629.186523438 324.911132812 698.723632812 c 0,8,9
 342.822265625 768.260742188 342.822265625 768.260742188 375.11328125 817.236328125 c 0,10,11
 407.297851562 866.048828125 407.297851562 866.048828125 450.7890625 900.841796875 c 0,12,13
 528.349609375 962.890625 528.349609375 962.890625 633.4609375 962.890625 c 0,14,15
 696.232421875 962.890625 696.232421875 962.890625 757.1875 939.254882812 c 0,16,17
 810.629882812 918.100585938 810.629882812 918.100585938 842.0703125 883.23046875 c 0,18,19
 867.172851562 855.389648438 867.172851562 855.389648438 867.172851562 827.616210938 c 0,20,21
 867.172851562 813.020507812 867.172851562 813.020507812 858.837890625 796.587890625 c 0,22,23
 850.502929688 780.155273438 850.502929688 780.155273438 836.397460938 766.048828125 c 0,24,25
 822.291992188 751.943359375 822.291992188 751.943359375 803.801757812 746.205078125 c 0,26,27
 777.362304688 738 777.362304688 738 762.581054688 738 c 0,28,29
 737.044921875 738 737.044921875 738 702.696289062 746.178710938 c 0,30,31
 692.239257812 748.66796875 692.239257812 748.66796875 672.609375 753.573242188 c 0,32,33
 650.241210938 757.790039062 650.241210938 757.790039062 629.17578125 756.168945312 c 0,34,35
 608.110351562 754.548828125 608.110351562 754.548828125 588.03125 741.845703125 c 0,36,37
 567.953125 729.143554688 567.953125 729.143554688 551.786132812 708.72265625 c 0,38,39
 535.620117188 688.30078125 535.620117188 688.30078125 525.309570312 653.337890625 c 0,40,41
 515 618.374023438 515 618.374023438 515 574 c 0,42,43
 515 549.54296875 515 549.54296875 517.771484375 526.912109375 c 0,44,45
 520.541992188 504.282226562 520.541992188 504.282226562 528.219726562 479.541992188 c 0,46,47
 543.594726562 430 543.594726562 430 582 430 c 0,48,49
 605.337890625 430 605.337890625 430 621.724609375 437.64453125 c 0,50,51
 640.881835938 446.58203125 640.881835938 446.58203125 651.9375 467.26171875 c 0,52,53
 676.162109375 512.569335938 676.162109375 512.569335938 679.012695312 622.793945312 c 0,54,55
 680.521484375 671.080078125 680.521484375 671.080078125 747.66015625 698.194335938 c 0,56,57
 785.750976562 713.564453125 785.750976562 713.564453125 817.970703125 713.564453125 c 0,58,59
 841.939453125 713.564453125 841.939453125 713.564453125 860.501953125 705.97265625 c 0,60,61
 902.299804688 688.877929688 902.299804688 688.877929688 902.299804688 647.620117188 c 0,62,63
 902.299804688 643.598632812 902.299804688 643.598632812 901.848632812 639.23828125 c 0,64,65
 894 567.944335938 894 567.944335938 894 518.22265625 c 0,66,67
 894 461.7265625 894 461.7265625 904.403320312 423.77734375 c 0,68,69
 908.125 410.201171875 908.125 410.201171875 912.388671875 403.732421875 c 0,70,71
 919.252929688 393.318359375 919.252929688 393.318359375 930.677734375 393.016601562 c 0,72,73
 934.325195312 396.544921875 934.325195312 396.544921875 938.142578125 405.133789062 c 0,74,75
 948.61328125 428.692382812 948.61328125 428.692382812 953.350585938 468.961914062 c 0,76,77
 962 542.483398438 962 542.483398438 962 605 c 0,78,79
 962 707.708007812 962 707.708007812 953.130859375 794.430664062 c 0,80,81
 944.28125 880.958984375 944.28125 880.958984375 930.712890625 941.533203125 c 0,82,83
 917.14453125 1002.10644531 917.14453125 1002.10644531 895.548828125 1050.57617188 c 0,84,85
 873.953125 1099.04492188 873.953125 1099.04492188 855.118164062 1127.98730469 c 0,86,87
 836.283203125 1156.9296875 836.283203125 1156.9296875 810.322265625 1177.42480469 c 0,88,89
 784.361328125 1197.91992188 784.361328125 1197.91992188 765.801757812 1207.64160156 c 0,90,91
 747.241210938 1217.36425781 747.241210938 1217.36425781 721.958007812 1223.23339844 c 0,92,93
 696.674804688 1229.10253906 696.674804688 1229.10253906 684.110351562 1229.55175781 c 0,94,95
 671.545898438 1230 671.545898438 1230 652 1230 c 0,96,97
 578.953125 1230 578.953125 1230 512.40625 1182.86230469 c 0,98,99
 445.859375 1135.72558594 445.859375 1135.72558594 394.677734375 1048.18945312 c 0,100,101
 343.495117188 960.654296875 343.495117188 960.654296875 312.748046875 828.877929688 c 0,102,103
 282 697.102539062 282 697.102539062 282 541 c 0,104,105
 282 403.364257812 282 403.364257812 302.463867188 295.1953125 c 0,106,107
 322.928710938 187.02734375 322.928710938 187.02734375 355.772460938 120.864257812 c 0,108,109
 388.615234375 54.701171875 388.615234375 54.701171875 431.346679688 11.5048828125 c 0,110,111
 474.079101562 -31.69140625 474.079101562 -31.69140625 515.940429688 -48.345703125 c 0,112,113
 557.801757812 -65 557.801757812 -65 606.00390625 -65 c 0,114,115
 654.206054688 -65 654.206054688 -65 695.87890625 -55.634765625 c 0,116,117
 737.552734375 -46.2705078125 737.552734375 -46.2705078125 763.606445312 -33.2431640625 c 0,118,119
 789.66015625 -20.216796875 789.66015625 -20.216796875 813.901367188 2.1943359375 c 0,120,121
 838.141601562 24.6064453125 838.141601562 24.6064453125 852.059570312 44.0908203125 c 0,122,123
 865.977539062 63.576171875 865.977539062 63.576171875 884.284179688 93.41015625 c 0,124,125
 892.788085938 109.297851562 892.788085938 109.297851562 899.2265625 118.41796875 c 0,126,127
 905.6640625 127.538085938 905.6640625 127.538085938 914.783203125 140.076171875 c 0,128,129
 923.901367188 152.615234375 923.901367188 152.615234375 932.6796875 159.3671875 c 0,130,131
 941.458007812 166.120117188 941.458007812 166.120117188 953.198242188 172.334960938 c 0,132,133
 964.9375 178.549804688 964.9375 178.549804688 980.014648438 178.549804688 c 0,134,135
 995.196289062 178.549804688 995.196289062 178.549804688 1010.78125 172.416015625 c 0,136,137
 1032.18261719 164.780273438 1032.18261719 164.780273438 1046.49023438 151.8359375 c 0,138,139
 1060.79785156 138.890625 1060.79785156 138.890625 1068.26171875 121.666992188 c 0,140,141
 1075.72460938 104.442382812 1075.72460938 104.442382812 1075.72460938 85.275390625 c 0,142,143
 1075.72460938 51.2861328125 1075.72460938 51.2861328125 1056.328125 1.9990234375 c 0,144,145
 1044.91015625 -28.0859375 1044.91015625 -28.0859375 1033.375 -51.15625 c 0,146,147
 1021.82910156 -74.2490234375 1021.82910156 -74.2490234375 1001.29003906 -106.901367188 c 0,148,149
 980.75 -139.552734375 980.75 -139.552734375 956.978515625 -163.865234375 c 0,150,151
 933.20703125 -188.177734375 933.20703125 -188.177734375 896.4453125 -213.75 c 0,152,153
 859.684570312 -239.323242188 859.684570312 -239.323242188 817.124023438 -255.283203125 c 0,154,155
 774.563476562 -271.243164062 774.563476562 -271.243164062 719.49609375 -280.668945312 c 0,156,157
 664.4296875 -290.095703125 664.4296875 -290.095703125 605.11328125 -290.095703125 c 0,158,159
 598.991210938 -290.095703125 598.991210938 -290.095703125 592.799804688 -290 c 0,160,161
 478.32421875 -289.950195312 478.32421875 -289.950195312 378.625976562 -233.506835938 c 0,162,163
 278.928710938 -177.064453125 278.928710938 -177.064453125 207.549804688 -78.072265625 c 0,164,165
 136.170898438 20.919921875 136.170898438 20.919921875 95.5859375 161.685546875 c 0,166,167
 55 302.450195312 55 302.450195312 55 467 c 0,168,169
 55 649.24609375 55 649.24609375 83.458984375 807.803710938 c 0,170,171
 111.91796875 966.362304688 111.91796875 966.362304688 164.22265625 1084.81640625 c 0,172,173
 216.52734375 1203.27148438 216.52734375 1203.27148438 288.354492188 1289.671875 c 0,174,175
 360.180664062 1376.07226562 360.180664062 1376.07226562 449.168945312 1420.03613281 c 0,176,177
 538.15625 1464 538.15625 1464 636 1464 c 0,178,179
 707.34375 1464 707.34375 1464 766.169921875 1452.96972656 c 0,180,181
 824.997070312 1441.94042969 824.997070312 1441.94042969 881.051757812 1414.1796875 c 0,182,183
 937.106445312 1386.41894531 937.106445312 1386.41894531 979.852539062 1341.00195312 c 0,184,185
 1022.59765625 1295.58496094 1022.59765625 1295.58496094 1057.58105469 1228.22949219 c 0,186,187
 1092.56347656 1160.87402344 1092.56347656 1160.87402344 1114.62597656 1071.59765625 c 0,188,189
 1161 883.946289062 1161 883.946289062 1161 600 c 0,190,191
 1161 443.946289062 1161 443.946289062 1115.84277344 326.538085938 c 0,192,193
 1091.03222656 262.030273438 1091.03222656 262.030273438 1044.07226562 222.515625 c 0,194,195
 997.112304688 183 997.112304688 183 932 183 c 0,196,197
 837.657226562 183 837.657226562 183 788.037109375 245.934570312 c 0,198,199
 768.625 270.555664062 768.625 270.555664062 756.888671875 304.10546875 c 1,0,1
EndSplineSet
EndChar

StartChar: A
Encoding: 65 65 33
Width: 1216
GlyphClass: 2
Flags: W
LayerCount: 2
Fore
SplineSet
246.36328125 100.213867188 m 1,0,1
 223.309570312 26.7099609375 223.309570312 26.7099609375 176.838867188 1.92578125 c 0,2,3
 151.08203125 -11.810546875 151.08203125 -11.810546875 126.190429688 -11.810546875 c 128,-1,4
 101.299804688 -11.810546875 101.299804688 -11.810546875 78.4658203125 -1.857421875 c 0,5,6
 41.1103515625 14.1962890625 41.1103515625 14.1962890625 24.341796875 48.8564453125 c 0,7,8
 11.759765625 74.86328125 11.759765625 74.86328125 11.759765625 107.14453125 c 128,-1,9
 11.759765625 139.426757812 11.759765625 139.426757812 20.142578125 175.170898438 c 0,10,11
 33.376953125 239.528320312 33.376953125 239.528320312 132.208007812 471.72265625 c 1,12,13
 102.96484375 497.399414062 102.96484375 497.399414062 100.604492188 535.750976562 c 0,14,15
 100.599609375 537.581054688 100.599609375 537.581054688 100.46875 540.159179688 c 0,16,17
 100.46875 575.896484375 100.46875 575.896484375 135.083984375 607.020507812 c 0,18,19
 164.018554688 633.036132812 164.018554688 633.036132812 206.107421875 647.161132812 c 1,20,21
 469.942382812 1207.56445312 469.942382812 1207.56445312 616.838867188 1398.64355469 c 1,22,23
 651.552734375 1441.24804688 651.552734375 1441.24804688 681.666992188 1462.53710938 c 0,24,25
 711.78125 1484.55371094 711.78125 1484.55371094 751.51171875 1484.9921875 c 0,26,27
 763.688476562 1485.7109375 763.688476562 1485.7109375 767.615234375 1485.7109375 c 0,28,29
 808.28515625 1485.7109375 808.28515625 1485.7109375 842.458007812 1467.07324219 c 0,30,31
 887.362304688 1443.38769531 887.362304688 1443.38769531 896.889648438 1388.65917969 c 0,32,33
 942.006835938 1143.640625 942.006835938 1143.640625 1045.02246094 693.684570312 c 0,34,35
 1101.5546875 443.908203125 1101.5546875 443.908203125 1134.57617188 326.659179688 c 128,-1,36
 1167.59667969 209.41015625 1167.59667969 209.41015625 1183.49707031 181.810546875 c 0,37,38
 1204.24023438 145.510742188 1204.24023438 145.510742188 1204.24023438 112.498046875 c 0,39,40
 1204.24023438 105.875 1204.24023438 105.875 1203.40527344 99.4228515625 c 0,41,42
 1198.56835938 61.9970703125 1198.56835938 61.9970703125 1177.94335938 36.0068359375 c 128,-1,43
 1157.46679688 10.2041015625 1157.46679688 10.2041015625 1127.49511719 -1.9638671875 c 0,44,45
 1093.23925781 -11.8359375 1093.23925781 -11.8359375 1083.3984375 -11.8359375 c 0,46,47
 1082.90429688 -11.8359375 1082.90429688 -11.8359375 1082.47070312 -11.810546875 c 0,48,49
 1055.63964844 -11.810546875 1055.63964844 -11.810546875 1029.21679688 1.7392578125 c 0,50,51
 981.680664062 26.1171875 981.680664062 26.1171875 953.978515625 98.923828125 c 0,52,53
 925.7421875 163.829101562 925.7421875 163.829101562 846.49609375 514.092773438 c 1,54,55
 589.685546875 503.168945312 589.685546875 503.168945312 383.341796875 473.633789062 c 1,56,57
 314.423828125 311.923828125 314.423828125 311.923828125 246.36328125 100.213867188 c 1,0,1
474.823242188 680.377929688 m 1,58,59
 653.615234375 698.359375 653.615234375 698.359375 799.793945312 703.100585938 c 1,60,-1
 697.576171875 1164.40917969 l 1,61,62
 610.994140625 1015.72851562 610.994140625 1015.72851562 474.823242188 680.377929688 c 1,58,59
EndSplineSet
EndChar

StartChar: B
Encoding: 66 66 34
Width: 1216
GlyphClass: 2
Flags: W
LayerCount: 2
Fore
SplineSet
68.5732421875 84.876953125 m 0,0,1
 73.646484375 144.427734375 73.646484375 144.427734375 73.646484375 286.37890625 c 0,2,3
 73.646484375 554 73.646484375 554 60.5078125 880.46484375 c 1,4,5
 60.5029296875 875.21875 60.5029296875 875.21875 60.4990234375 880.70703125 c 2,6,7
 56.48828125 1014.4765625 56.48828125 1014.4765625 56.48828125 1060.27148438 c 128,-1,8
 56.48828125 1106.25 56.48828125 1106.25 59.998046875 1183.31640625 c 128,-1,9
 63.5078125 1260.38378906 63.5078125 1260.38378906 64.5048828125 1289.3203125 c 0,10,11
 66.861328125 1351.96484375 66.861328125 1351.96484375 102.500976562 1386.41992188 c 128,-1,12
 138.139648438 1420.875 138.139648438 1420.875 190.48828125 1420.875 c 2,13,-1
 195.705078125 1420.875 l 1,14,15
 251.048828125 1437.15234375 251.048828125 1437.15234375 333.578125 1446.32519531 c 0,16,17
 366.708984375 1449.93457031 366.708984375 1449.93457031 404.547851562 1451.46679688 c 128,-1,18
 442.385742188 1453 442.385742188 1453 463.143554688 1453 c 2,19,-1
 508.338867188 1453 l 1,20,-1
 533.38671875 1453 l 2,21,22
 690.905273438 1453 690.905273438 1453 815.311523438 1400.54882812 c 0,23,24
 937.595703125 1348.09863281 937.595703125 1348.09863281 1004.46972656 1248.49609375 c 0,25,26
 1073.5546875 1145.59960938 1073.5546875 1145.59960938 1073.55761719 1008.83007812 c 0,27,28
 1073.55761719 891.533203125 1073.55761719 891.533203125 1015.37988281 806.112304688 c 0,29,30
 971.334960938 741.442382812 971.334960938 741.442382812 902.938476562 702.096679688 c 1,31,32
 948.3671875 682.5859375 948.3671875 682.5859375 991.7578125 654.813476562 c 0,33,34
 1061.3828125 610.25 1061.3828125 610.25 1110.3984375 552.827148438 c 128,-1,35
 1159.41308594 495.403320312 1159.41308594 495.403320312 1159.48828125 441.326171875 c 0,36,37
 1159.51171875 439.426757812 1159.51171875 439.426757812 1159.51171875 437.52734375 c 0,38,39
 1159.51171875 357.91796875 1159.51171875 357.91796875 1116.921875 280.098632812 c 128,-1,40
 1074.33300781 202.279296875 1074.33300781 202.279296875 995.862304688 138.009765625 c 128,-1,41
 917.390625 73.7412109375 917.390625 73.7412109375 786.358398438 28.865234375 c 0,42,43
 655.002929688 -16.009765625 655.002929688 -16.009765625 497.762695312 -27.896484375 c 2,44,45
 455.869140625 -6.3935546875 455.869140625 -6.3935546875 413.975585938 -34.890625 c 2,46,47
 308.10546875 -43.982421875 308.10546875 -43.982421875 281.8515625 -45.791015625 c 0,48,49
 256.077148438 -47.599609375 256.077148438 -47.599609375 233.06640625 -47.599609375 c 128,-1,50
 210.055664062 -47.599609375 210.055664062 -47.599609375 188.346679688 -44 c 1,51,-1
 183.48828125 -44 l 2,52,53
 131.734375 -44 131.734375 -44 97.8310546875 -8.177734375 c 0,54,55
 67.9638671875 22.3310546875 67.9638671875 22.3310546875 67.9638671875 70.7939453125 c 0,56,57
 67.9638671875 77.65625 67.9638671875 77.65625 68.5732421875 84.876953125 c 0,0,1
309.76953125 824.360351562 m 0,58,59
 309.76953125 804.245117188 309.76953125 804.245117188 309.919921875 783.88671875 c 1,60,61
 399.686523438 781 399.686523438 781 472.827148438 781 c 128,-1,62
 545.967773438 781 545.967773438 781 598.567382812 789.981445312 c 128,-1,63
 651.166015625 798.961914062 651.166015625 798.961914062 685.9921875 813.258789062 c 128,-1,64
 720.81640625 827.555664062 720.81640625 827.555664062 747.278320312 848.038085938 c 128,-1,65
 773.640625 868.444335938 773.640625 868.444335938 788.087890625 888.9921875 c 128,-1,66
 802.534179688 909.540039062 802.534179688 909.540039062 812.026367188 934.770507812 c 128,-1,67
 821.517578125 960.000976562 821.517578125 960.000976562 825.018554688 980.903320312 c 128,-1,68
 828.518554688 1001.80566406 828.518554688 1001.80566406 828.518554688 1024.72558594 c 0,69,70
 828.518554688 1070.73046875 828.518554688 1070.73046875 808.676757812 1108.23730469 c 128,-1,71
 788.830078125 1145.75292969 788.830078125 1145.75292969 757.133789062 1169.53320312 c 128,-1,72
 725.436523438 1193.3125 725.436523438 1193.3125 683.998046875 1210.03515625 c 0,73,74
 609.743164062 1240 609.743164062 1240 529.03125 1240 c 0,75,76
 423.046875 1240 423.046875 1240 321.486328125 1220.15527344 c 1,77,78
 320.168945312 1184.03417969 320.168945312 1184.03417969 316.778320312 1110.66113281 c 0,79,80
 309.76953125 958.950195312 309.76953125 958.950195312 309.76953125 824.360351562 c 0,58,59
875.694335938 339.092773438 m 128,-1,82
 904.751953125 377.78125 904.751953125 377.78125 904.751953125 407 c 0,83,84
 904.751953125 424.08203125 904.751953125 424.08203125 884.758789062 446.51953125 c 128,-1,85
 864.766601562 468.95703125 864.766601562 468.95703125 819.143554688 495.0234375 c 128,-1,86
 773.521484375 521.08984375 773.521484375 521.08984375 689.986328125 545.2109375 c 128,-1,87
 606.452148438 569.33203125 606.452148438 569.33203125 497.625976562 584 c 1,88,89
 373.2421875 583.990234375 373.2421875 583.990234375 315.220703125 582.783203125 c 1,90,91
 323.666015625 299.90234375 323.666015625 299.90234375 328.76171875 163.861328125 c 1,92,93
 350.303710938 164.42578125 350.303710938 164.42578125 394.626953125 165.208007812 c 128,-1,94
 438.950195312 165.991210938 438.950195312 165.991210938 468.110351562 166.982421875 c 0,95,96
 566.455078125 170.825195312 566.455078125 170.825195312 652.872070312 197.59375 c 128,-1,97
 739.288085938 224.36328125 739.288085938 224.36328125 792.961914062 262.383789062 c 128,-1,81
 846.635742188 300.403320312 846.635742188 300.403320312 875.694335938 339.092773438 c 128,-1,82
EndSplineSet
EndChar

StartChar: C
Encoding: 67 67 35
Width: 1216
GlyphClass: 2
Flags: W
LayerCount: 2
Fore
SplineSet
1166.84765625 1417.69433594 m 0,0,1
 1185.5 1337.75488281 1185.5 1337.75488281 1185.5 1247.5 c 1,2,3
 1185 1185.25 1185 1185.25 1184.5 1173 c 2,4,5
 1184.5 1120.97753906 1184.5 1120.97753906 1147.51953125 1069.32324219 c 128,-1,6
 1110.54003906 1017.66796875 1110.54003906 1017.66796875 1066.68847656 1013.19042969 c 0,7,8
 1057.94824219 1011.83886719 1057.94824219 1011.83886719 1049.12109375 1011.83886719 c 0,9,10
 1011.64550781 1011.83886719 1011.64550781 1011.83886719 974.411132812 1036.01757812 c 0,11,12
 923.2578125 1068.42675781 923.2578125 1068.42675781 923.2578125 1125 c 0,13,14
 923.2578125 1140.24902344 923.2578125 1140.24902344 926.758789062 1198.22949219 c 1,15,16
 898.7578125 1215.70605469 898.7578125 1215.70605469 890.752929688 1220.49511719 c 128,-1,17
 882.671875 1225.33007812 882.671875 1225.33007812 867.934570312 1232.36328125 c 0,18,19
 841.456054688 1245 841.456054688 1245 815.107421875 1245 c 0,20,21
 753.083984375 1245 753.083984375 1245 679.75390625 1207.91308594 c 128,-1,22
 606.423828125 1170.82617188 606.423828125 1170.82617188 536.971679688 1100.69628906 c 128,-1,23
 467.518554688 1030.56542969 467.518554688 1030.56542969 410.630859375 939.346679688 c 128,-1,24
 353.7421875 848.127929688 353.7421875 848.127929688 319.439453125 732.490234375 c 128,-1,25
 285.171875 616.969726562 285.171875 616.969726562 285.171875 500.622070312 c 0,26,27
 285.171875 418.526367188 285.171875 418.526367188 321.784179688 342.146484375 c 128,-1,28
 358.396484375 265.767578125 358.396484375 265.767578125 422.4453125 217.883789062 c 128,-1,29
 486.495117188 170 486.495117188 170 556.889648438 170 c 128,-1,30
 627.284179688 170 627.284179688 170 692.622070312 182.9453125 c 128,-1,31
 758.079101562 195.915039062 758.079101562 195.915039062 810.13671875 217.09375 c 128,-1,32
 862.193359375 238.2734375 862.193359375 238.2734375 899.689453125 258.979492188 c 128,-1,33
 936.989257812 279.577148438 936.989257812 279.577148438 967.5390625 304.045898438 c 1,34,35
 995.86328125 323.655273438 995.86328125 323.655273438 1018.66699219 334.764648438 c 0,36,37
 1042.78808594 346.516601562 1042.78808594 346.516601562 1072.42675781 346.516601562 c 128,-1,38
 1102.06640625 346.517578125 1102.06640625 346.517578125 1128.21484375 328.212890625 c 1,39,40
 1173.87695312 293.509765625 1173.87695312 293.509765625 1173.87695312 245.119140625 c 128,-1,41
 1173.87695312 196.728515625 1173.87695312 196.728515625 1123.31933594 139.549804688 c 0,42,43
 945.106445312 -64.1220703125 945.106445312 -64.1220703125 552.021484375 -64.1220703125 c 0,44,45
 542.391601562 -64.1220703125 542.391601562 -64.1220703125 532.645507812 -64 c 0,46,47
 436.866210938 -63.9697265625 436.866210938 -63.9697265625 352.25390625 -33.8388671875 c 0,48,49
 268.302734375 -4.6875 268.302734375 -4.6875 211.274414062 44.3642578125 c 128,-1,50
 154.24609375 93.4150390625 154.24609375 93.4150390625 112.8515625 156.793945312 c 128,-1,51
 71.3935546875 220.268554688 71.3935546875 220.268554688 50.9462890625 291.291015625 c 128,-1,52
 30.5 362.314453125 30.5 362.314453125 30.5 434.33984375 c 0,53,54
 30.5 581.173828125 30.5 581.173828125 62.0859375 719.698242188 c 128,-1,55
 93.669921875 858.209960938 93.669921875 858.209960938 146.811523438 968.963867188 c 128,-1,56
 199.895507812 1079.59765625 199.895507812 1079.59765625 271.629882812 1172.80957031 c 0,57,58
 348.833984375 1266.02148438 348.833984375 1266.02148438 436.041015625 1328.54101562 c 128,-1,59
 523.248046875 1391.06152344 523.248046875 1391.06152344 616.709960938 1426.03027344 c 128,-1,60
 710.173828125 1461 710.173828125 1461 798.884765625 1461 c 0,61,62
 869.721679688 1461 869.721679688 1461 931.364257812 1448.515625 c 1,63,64
 943.287109375 1471.34667969 943.287109375 1471.34667969 963.051757812 1487.74707031 c 0,65,66
 991.958984375 1511.73339844 991.958984375 1511.73339844 1026.90820312 1515.75683594 c 0,67,68
 1040.52929688 1517.30957031 1040.52929688 1517.30957031 1042.70800781 1517.30957031 c 128,-1,69
 1044.88574219 1517.30957031 1044.88574219 1517.30957031 1044.97167969 1517.30957031 c 0,70,71
 1078.17871094 1517.30957031 1078.17871094 1517.30957031 1111.19628906 1496.73339844 c 0,72,73
 1154.44628906 1469.78027344 1154.44628906 1469.78027344 1166.84765625 1417.69433594 c 0,0,1
EndSplineSet
EndChar

StartChar: D
Encoding: 68 68 36
Width: 1216
GlyphClass: 2
Flags: W
LayerCount: 2
Fore
SplineSet
36.5712890625 127.443359375 m 0,0,1
 41.658203125 196.352539062 41.658203125 196.352539062 41.658203125 345.395507812 c 0,2,3
 41.658203125 615.744140625 41.658203125 615.744140625 28.5146484375 986.58203125 c 1,4,5
 28.51171875 977.451171875 28.51171875 977.451171875 28.5087890625 986.776367188 c 2,6,7
 25.5 1097.2421875 25.5 1097.2421875 25.5 1132.95117188 c 128,-1,8
 25.5 1168.66015625 25.5 1168.66015625 29 1242.08886719 c 128,-1,9
 32.5 1315.51757812 32.5 1315.51757812 32.5 1330.41113281 c 2,10,11
 32.5087890625 1309.984375 32.5087890625 1309.984375 32.5166015625 1331.30273438 c 1,12,13
 34.8779296875 1394.03320312 34.8779296875 1394.03320312 70.484375 1427.83105469 c 0,14,15
 106.28125 1463 106.28125 1463 158.5 1463 c 0,16,17
 228.668945312 1463 228.668945312 1463 342.149414062 1441.52148438 c 0,18,19
 414.381835938 1428.68652344 414.381835938 1428.68652344 488.991210938 1407.41015625 c 128,-1,20
 563.599609375 1386.13378906 563.599609375 1386.13378906 650.235351562 1347.59863281 c 128,-1,21
 737.030273438 1308.99121094 737.030273438 1308.99121094 815.376953125 1258.24902344 c 128,-1,22
 893.725585938 1207.50585938 893.725585938 1207.50585938 965.434570312 1131.3671875 c 0,23,24
 1033.31835938 1055.27246094 1033.31835938 1055.27246094 1082.74316406 964.15625 c 128,-1,25
 1132.16796875 873.040039062 1132.16796875 873.040039062 1161.33398438 748.3359375 c 128,-1,26
 1190.5 623.6328125 1190.5 623.6328125 1190.5 480.682617188 c 0,27,28
 1190.5 408.888671875 1190.5 408.888671875 1170.1875 333.838867188 c 128,-1,29
 1149.87304688 258.780273438 1149.87304688 258.780273438 1108.78808594 188.366210938 c 128,-1,30
 1067.69140625 117.931640625 1067.69140625 117.931640625 1011.38574219 61.9521484375 c 128,-1,31
 955.080078125 5.9716796875 955.080078125 5.9716796875 870.490234375 -28.4169921875 c 0,32,33
 785.073242188 -63.974609375 785.073242188 -63.974609375 688.610351562 -64 c 0,34,35
 678.049804688 -64.095703125 678.049804688 -64.095703125 667.532226562 -64.095703125 c 0,36,37
 566.934570312 -64.095703125 566.934570312 -64.095703125 465.1875 -54.9169921875 c 128,-1,38
 363.439453125 -45.7392578125 363.439453125 -45.7392578125 300.41015625 -33.0546875 c 0,39,40
 239.896484375 -20.3701171875 239.896484375 -20.3701171875 199.69921875 -10.6669921875 c 128,-1,41
 159.502929688 -0.96484375 159.502929688 -0.96484375 150.931640625 0.0009765625 c 0,42,43
 99.6767578125 0.203125 99.6767578125 0.203125 65.9990234375 33.96875 c 0,44,45
 35.9755859375 64.0712890625 35.9755859375 64.0712890625 35.9755859375 113.3046875 c 0,46,47
 35.9755859375 120.193359375 35.9755859375 120.193359375 36.5712890625 127.443359375 c 0,0,1
469.7890625 176.415039062 m 128,-1,49
 562.211914062 162 562.211914062 162 686.314453125 162 c 0,50,51
 738.771484375 162 738.771484375 162 787.400390625 196.3203125 c 128,-1,52
 836.02734375 230.641601562 836.02734375 230.641601562 869.526367188 287.495117188 c 128,-1,53
 903.024414062 344.349609375 903.024414062 344.349609375 923.211914062 413.8359375 c 128,-1,54
 943.400390625 483.322265625 943.400390625 483.322265625 943.400390625 549 c 0,55,56
 943.400390625 920.37109375 943.400390625 920.37109375 615.54296875 1115.97070312 c 0,57,58
 498.2578125 1184.80175781 498.2578125 1184.80175781 277.072265625 1260.14648438 c 1,59,60
 271.102539062 1009.89257812 271.102539062 1009.89257812 280.1484375 737.783203125 c 0,61,62
 283.389648438 648.739257812 283.389648438 648.739257812 288.044921875 479.73046875 c 128,-1,63
 292.69921875 310.720703125 292.69921875 310.720703125 296.689453125 221.801757812 c 1,64,48
 377.365234375 190.830078125 377.365234375 190.830078125 469.7890625 176.415039062 c 128,-1,49
EndSplineSet
EndChar

StartChar: E
Encoding: 69 69 37
Width: 1216
GlyphClass: 2
Flags: W
LayerCount: 2
Fore
SplineSet
188.268554688 1442.21972656 m 0,0,1
 240.068359375 1442.21972656 240.068359375 1442.21972656 273.458007812 1408.55761719 c 1,2,3
 450.204101562 1429.8828125 450.204101562 1429.8828125 726.29296875 1429.8828125 c 0,4,5
 797.276367188 1429.8828125 797.276367188 1429.8828125 859.83984375 1427.98632812 c 0,6,7
 987.5078125 1423.94726562 987.5078125 1423.94726562 1059.56445312 1414.81347656 c 0,8,9
 1117.07714844 1407.77148438 1117.07714844 1407.77148438 1142.1328125 1382.71582031 c 128,-1,10
 1167.18847656 1357.66015625 1167.18847656 1357.66015625 1168.48828125 1314.76953125 c 2,11,12
 1168.49414062 1289.57714844 1168.49414062 1289.57714844 1168.5 1314.38574219 c 2,13,14
 1168.5 1292.19238281 1168.5 1292.19238281 1164.2109375 1273.19921875 c 128,-1,15
 1159.921875 1254.20507812 1159.921875 1254.20507812 1148.54492188 1236.50683594 c 0,16,17
 1135.23632812 1215.80371094 1135.23632812 1215.80371094 1109.37695312 1205.32128906 c 0,18,19
 1091.67089844 1198.14257812 1091.67089844 1198.14257812 1070.25488281 1198.14257812 c 0,20,21
 1062.41699219 1198.14257812 1062.41699219 1198.14257812 1054.10644531 1199.10644531 c 0,22,23
 912.703125 1209 912.703125 1209 757.899414062 1209.31542969 c 0,24,25
 702.663085938 1209.31542969 702.663085938 1209.31542969 647.270507812 1208.09863281 c 0,26,27
 452.458007812 1203.81640625 452.458007812 1203.81640625 308.859375 1187.66699219 c 1,28,29
 300.612304688 1010.23828125 300.612304688 1010.23828125 300.075195312 840.256835938 c 1,30,31
 457.959960938 842.225585938 457.959960938 842.225585938 727.295898438 856.612304688 c 0,32,33
 990.763671875 871 990.763671875 871 1023.5 871 c 0,34,35
 1082.58886719 871 1082.58886719 871 1108.40722656 842.462890625 c 128,-1,36
 1134.2265625 813.92578125 1134.2265625 813.92578125 1135.48925781 769.725585938 c 2,37,-1
 1135.5 769.36328125 l 1,38,39
 1135.5 720.466796875 1135.5 720.466796875 1113.1015625 691.50390625 c 0,40,41
 1084.09863281 654 1084.09863281 654 1023.5 654 c 0,42,43
 987.408203125 654 987.408203125 654 706.774414062 636.1484375 c 0,44,45
 420.561523438 618.295898438 420.561523438 618.295898438 302.756835938 615.685546875 c 1,46,47
 303.857421875 565.323242188 303.857421875 565.323242188 304.526367188 517.174804688 c 128,-1,48
 305.196289062 469.026367188 305.196289062 469.026367188 305.874023438 415.23828125 c 0,49,50
 307.604492188 277.96875 307.604492188 277.96875 313.48828125 225.310546875 c 0,51,52
 315.419921875 207.092773438 315.419921875 207.092773438 318.454101562 193.538085938 c 1,53,54
 358.481445312 188.345703125 358.481445312 188.345703125 439.640625 188.345703125 c 128,-1,55
 520.798828125 188.345703125 520.798828125 188.345703125 642.709960938 192.978515625 c 0,56,57
 929.5234375 203.8984375 929.5234375 203.8984375 1004.34472656 218.666015625 c 1,58,59
 1035.76464844 223 1035.76464844 223 1060.75878906 223 c 128,-1,60
 1085.75292969 223 1085.75292969 223 1104.80957031 212.836914062 c 128,-1,61
 1123.86621094 202.672851562 1123.86621094 202.672851562 1136.1015625 191.796875 c 128,-1,62
 1148.33691406 180.920898438 1148.33691406 180.920898438 1155.3125 164.43359375 c 128,-1,63
 1162.28808594 147.946289062 1162.28808594 147.946289062 1165.39355469 135.521484375 c 128,-1,64
 1168.5 123.096679688 1168.5 123.096679688 1168.5 108 c 0,65,66
 1168.5 59.77734375 1168.5 59.77734375 1136.00878906 21.76953125 c 0,67,68
 1105.69335938 -13.6943359375 1105.69335938 -13.6943359375 1050.96972656 -13.6943359375 c 1,69,70
 1034.41992188 12.0546875 1034.41992188 12.0546875 1017.87109375 -12.1962890625 c 2,71,72
 1015.01855469 -12.1962890625 1015.01855469 -12.1962890625 1011.84375 -12.25 c 0,73,74
 965.67578125 -12.25 965.67578125 -12.25 834.258789062 -20.1064453125 c 0,75,76
 699.137695312 -27.9619140625 699.137695312 -27.9619140625 557.958007812 -34.1142578125 c 128,-1,77
 416.779296875 -40.2666015625 416.779296875 -40.2666015625 345.638671875 -40.2666015625 c 0,78,79
 275.990234375 -40.2666015625 275.990234375 -40.2666015625 230.7734375 -36.94140625 c 0,80,81
 173.837890625 -33.322265625 173.837890625 -33.322265625 120.82421875 16.8408203125 c 0,82,83
 67.841796875 65.275390625 67.841796875 65.275390625 58.7158203125 133.604492188 c 0,84,85
 51.966796875 182.975585938 51.966796875 182.975585938 51.966796875 304.748046875 c 0,86,87
 51.966796875 416.681640625 51.966796875 416.681640625 53.4833984375 530.594726562 c 128,-1,88
 55 644.5078125 55 644.5078125 55 724.137695312 c 128,-1,89
 55 803.767578125 55 803.767578125 50.5078125 944.823242188 c 0,90,91
 47.5 1063.953125 47.5 1063.953125 47.5 1103.02636719 c 128,-1,92
 47.5 1142.09863281 47.5 1142.09863281 51 1216.48925781 c 128,-1,93
 54.5 1290.87890625 54.5 1290.87890625 54.5 1309.64355469 c 2,94,95
 54.5087890625 1290.40722656 54.5087890625 1290.40722656 54.5166015625 1310.53515625 c 1,96,97
 56.873046875 1373.13769531 56.873046875 1373.13769531 92.326171875 1407.38867188 c 128,-1,98
 127.888671875 1441.74609375 127.888671875 1441.74609375 179.788085938 1441.99804688 c 0,99,100
 186.189453125 1442.21972656 186.189453125 1442.21972656 188.268554688 1442.21972656 c 0,0,1
EndSplineSet
EndChar

StartChar: F
Encoding: 70 70 38
Width: 1216
GlyphClass: 2
Flags: W
LayerCount: 2
Fore
SplineSet
191.184570312 1463.37207031 m 0,0,1
 243.716796875 1463.37207031 243.716796875 1463.37207031 276.810546875 1428.86523438 c 1,2,3
 540.342773438 1446.59863281 540.342773438 1446.59863281 789.776367188 1446.59960938 c 0,4,5
 953.286132812 1446.59960938 953.286132812 1446.59960938 1059.20410156 1436.90429688 c 0,6,7
 1116.58691406 1432.10351562 1116.58691406 1432.10351562 1141.50390625 1405.83886719 c 128,-1,8
 1166.421875 1379.57421875 1166.421875 1379.57421875 1168.95605469 1336.48828125 c 1,9,10
 1168.97851562 1310.74414062 1168.97851562 1310.74414062 1169 1335 c 1,11,12
 1169 1287.9296875 1169 1287.9296875 1139.7421875 1252.94726562 c 128,-1,13
 1110.48339844 1217.96484375 1110.48339844 1217.96484375 1051.47558594 1217.96484375 c 0,14,15
 1048.66503906 1217.96484375 1048.66503906 1217.96484375 1046.77148438 1218.02929688 c 0,16,17
 935.075195312 1223.4453125 935.075195312 1223.4453125 807.916015625 1223.44726562 c 0,18,19
 570.53515625 1223.44726562 570.53515625 1223.44726562 309.609375 1205.69726562 c 1,20,21
 308.389648438 1174.578125 308.389648438 1174.578125 305.587890625 1112.28320312 c 0,22,23
 300.189453125 992.2578125 300.189453125 992.2578125 300.188476562 887.192382812 c 0,24,25
 300.188476562 869.602539062 300.188476562 869.602539062 300.333007812 851.858398438 c 1,26,27
 384.869140625 859.5625 384.869140625 859.5625 483.087890625 859.5625 c 0,28,29
 509.787109375 859.5625 509.787109375 859.5625 537.474609375 859.009765625 c 0,30,31
 684.39453125 856.076171875 684.39453125 856.076171875 802.702148438 847.250976562 c 0,32,33
 924.0390625 838.1953125 924.0390625 838.1953125 984.08203125 827.811523438 c 128,-1,34
 1044.12597656 817.426757812 1044.12597656 817.426757812 1068.24414062 793.978515625 c 128,-1,35
 1092.36328125 770.529296875 1092.36328125 770.529296875 1095 729.508789062 c 1,36,37
 1095 732.748046875 1095 732.748046875 1095 728.73828125 c 2,38,39
 1095 686.702148438 1095 686.702148438 1074.25683594 654.2109375 c 0,40,41
 1060.83496094 633.1875 1060.83496094 633.1875 1035.04785156 623.4375 c 0,42,43
 1016.70214844 616.500976562 1016.70214844 616.500976562 993.16015625 616.500976562 c 0,44,45
 982.80859375 616.500976562 982.80859375 616.500976562 978.056640625 617.234375 c 0,46,47
 915.561523438 626.78515625 915.561523438 626.78515625 795.506835938 634.013671875 c 0,48,49
 667.126953125 641.743164062 667.126953125 641.743164062 528.84375 641.743164062 c 128,-1,50
 390.559570312 641.743164062 390.559570312 641.743164062 303.5234375 632.604492188 c 1,51,52
 312.958007812 366.13671875 312.958007812 366.13671875 322.392578125 71.4677734375 c 1,53,54
 315.390625 16.3037109375 315.390625 16.3037109375 268.614257812 -15.2802734375 c 0,55,56
 228.650390625 -44.142578125 228.650390625 -44.142578125 180.245117188 -44.142578125 c 0,57,58
 176.838867188 -44.142578125 176.838867188 -44.142578125 173.416992188 -43.9990234375 c 0,59,60
 122.038085938 -43.7802734375 122.038085938 -43.7802734375 88.3427734375 -8.177734375 c 0,61,62
 58.4755859375 22.318359375 58.4755859375 22.318359375 58.4755859375 70.759765625 c 0,63,64
 58.4755859375 77.6171875 58.4755859375 77.6171875 59.076171875 84.7265625 c 0,65,66
 64.158203125 147.8671875 64.158203125 147.8671875 64.158203125 297.5703125 c 0,67,68
 64.158203125 579.774414062 64.158203125 579.774414062 51.017578125 922.649414062 c 1,69,70
 51.013671875 915.583984375 51.013671875 915.583984375 51.0107421875 922.846679688 c 2,71,72
 47 1056.55859375 47 1056.55859375 47 1102.33300781 c 128,-1,73
 47 1148.29199219 47 1148.29199219 50.509765625 1225.32617188 c 128,-1,74
 54.01953125 1302.36132812 54.01953125 1302.36132812 55.0166015625 1331.28417969 c 0,75,76
 57.3779296875 1394.02636719 57.3779296875 1394.02636719 92.984375 1427.83105469 c 0,77,78
 128.443359375 1462.66894531 128.443359375 1462.66894531 180.0859375 1462.99707031 c 0,79,80
 188.481445312 1463.37207031 188.481445312 1463.37207031 191.184570312 1463.37207031 c 0,0,1
EndSplineSet
EndChar

StartChar: G
Encoding: 71 71 39
Width: 1216
GlyphClass: 2
Flags: W
LayerCount: 2
Fore
SplineSet
698.939453125 -33.3115234375 m 0,0,1
 617.918945312 -64.033203125 617.918945312 -64.033203125 534.306640625 -64.033203125 c 0,2,3
 433.286132812 -64.033203125 433.286132812 -64.033203125 348.573242188 -33.8388671875 c 0,4,5
 264.688476562 -4.6962890625 264.688476562 -4.6962890625 207.66015625 44.3388671875 c 128,-1,6
 150.631835938 93.3740234375 150.631835938 93.3740234375 109.237304688 156.732421875 c 128,-1,7
 67.779296875 220.186523438 67.779296875 220.186523438 47.33203125 291.186523438 c 128,-1,8
 26.8857421875 362.186523438 26.8857421875 362.186523438 26.8857421875 434.189453125 c 0,9,10
 26.8857421875 583.82421875 26.8857421875 583.82421875 58.44921875 725.15625 c 128,-1,11
 90.009765625 866.481445312 90.009765625 866.481445312 143.110351562 979.583007812 c 128,-1,12
 196.165039062 1092.58789062 196.165039062 1092.58789062 267.864257812 1187.70507812 c 0,13,14
 344.953125 1282.82128906 344.953125 1282.82128906 432.083007812 1346.82226562 c 128,-1,15
 519.213867188 1410.82226562 519.213867188 1410.82226562 612.66015625 1446.31152344 c 0,16,17
 706.10546875 1483 706.10546875 1483 798.841796875 1483 c 128,-1,18
 891.579101562 1483 891.579101562 1483 1006.16503906 1441.41308594 c 0,19,20
 1117.51269531 1399.59179688 1117.51269531 1399.59179688 1151.40917969 1366.82519531 c 0,21,22
 1189.11425781 1329.12011719 1189.11425781 1329.12011719 1189.11425781 1278.17871094 c 0,23,24
 1189.11425781 1252.9765625 1189.11425781 1252.9765625 1179.66113281 1225.24707031 c 0,25,26
 1168.05957031 1188.24511719 1168.05957031 1188.24511719 1126.85058594 1171.35644531 c 0,27,28
 1106.09667969 1162.85058594 1106.09667969 1162.85058594 1085.88476562 1162.85058594 c 0,29,30
 1063.61914062 1162.85058594 1063.61914062 1162.85058594 1047.31152344 1169.12304688 c 128,-1,31
 1031.00390625 1175.39550781 1031.00390625 1175.39550781 985.745117188 1202.04785156 c 0,32,33
 940.25390625 1228.70019531 940.25390625 1228.70019531 893.318359375 1247.85058594 c 128,-1,34
 846.381835938 1267 846.381835938 1267 811.020507812 1267 c 0,35,36
 749.200195312 1267 749.200195312 1267 676.002929688 1229.02148438 c 128,-1,37
 602.807617188 1191.04296875 602.807617188 1191.04296875 533.372070312 1118.49511719 c 128,-1,38
 463.936523438 1045.94726562 463.936523438 1045.94726562 407.03515625 952.21484375 c 128,-1,39
 350.134765625 858.482421875 350.134765625 858.482421875 315.826171875 739.8203125 c 128,-1,40
 281.549804688 621.264648438 281.549804688 621.264648438 281.549804688 500.916992188 c 0,41,42
 281.549804688 418.748046875 281.549804688 418.748046875 318.129882812 342.30078125 c 128,-1,43
 354.7109375 265.853515625 354.7109375 265.853515625 418.703125 217.926757812 c 128,-1,44
 482.696289062 170 482.696289062 170 554.9296875 170 c 0,45,46
 601.185546875 170 601.185546875 170 651.202148438 197.868164062 c 128,-1,47
 701.21875 225.736328125 701.21875 225.736328125 744.018554688 271.068359375 c 128,-1,48
 786.819335938 316.400390625 786.819335938 316.400390625 825.7265625 373.360351562 c 0,49,50
 885.864257812 461.40234375 885.864257812 461.40234375 919.061523438 552.060546875 c 1,51,52
 800.715820312 545.896484375 800.715820312 545.896484375 680.044921875 531.084960938 c 128,-1,53
 559.374023438 516.2734375 559.374023438 516.2734375 511.716796875 493.427734375 c 0,54,55
 488.016601562 481.7109375 488.016601562 481.7109375 462.73828125 481.7109375 c 128,-1,56
 437.459960938 481.7109375 437.459960938 481.7109375 412.879882812 495.694335938 c 0,57,58
 367.923828125 521.268554688 367.923828125 521.268554688 360.723632812 565.614257812 c 0,59,60
 359.349609375 575.877929688 359.349609375 575.877929688 358.918945312 586.131835938 c 0,61,62
 358.918945312 630.094726562 358.918945312 630.094726562 392.668945312 663.373046875 c 0,63,64
 417.749023438 688.100585938 417.749023438 688.100585938 461.137695312 705.944335938 c 0,65,66
 528.573242188 735.69140625 528.573242188 735.69140625 740.129882812 751.38671875 c 0,67,68
 891.754882812 762.63671875 891.754882812 762.63671875 993.352539062 762.63671875 c 0,69,70
 1030.29394531 762.63671875 1030.29394531 762.63671875 1061.37402344 761.0078125 c 0,71,72
 1120.07421875 757.66015625 1120.07421875 757.66015625 1147.06542969 737.37890625 c 0,73,74
 1182.19238281 710.984375 1182.19238281 710.984375 1182.19238281 652.853515625 c 0,75,76
 1182.19238281 591.24609375 1182.19238281 591.24609375 1135.71972656 565.690429688 c 1,77,78
 1135.00292969 559.465820312 1135.00292969 559.465820312 1132.39257812 540.303710938 c 0,79,80
 1130.9375 529.622070312 1130.9375 529.622070312 1128.72460938 505.236328125 c 0,81,82
 1118.30078125 416.295898438 1118.30078125 416.295898438 1045.54980469 281.54296875 c 0,83,84
 1010.91796875 217.39453125 1010.91796875 217.39453125 960.385742188 156.40234375 c 0,85,86
 907.276367188 95.546875 907.276367188 95.546875 843.618164062 46.0107421875 c 128,-1,87
 779.9609375 -3.525390625 779.9609375 -3.525390625 698.939453125 -33.3115234375 c 0,0,1
EndSplineSet
EndChar

StartChar: H
Encoding: 72 72 40
Width: 1216
GlyphClass: 2
Flags: W
LayerCount: 2
Fore
SplineSet
69.109375 68.5244140625 m 0,0,1
 69.109375 76.4765625 69.109375 76.4765625 69.9775390625 84.8876953125 c 0,2,3
 73.890625 140.39453125 73.890625 140.39453125 73.890625 358.5 c 0,4,5
 73.890625 483.229492188 73.890625 483.229492188 78.8916015625 662.0546875 c 128,-1,6
 83.8935546875 840.87890625 83.8935546875 840.87890625 84.1923828125 877.241210938 c 128,-1,7
 84.490234375 913.603515625 84.490234375 913.603515625 84.490234375 949.802734375 c 128,-1,8
 84.490234375 986.001953125 84.490234375 986.001953125 82.890625 1069.44824219 c 128,-1,9
 81.291015625 1152.89550781 81.291015625 1152.89550781 81.291015625 1180.79394531 c 128,-1,10
 81.291015625 1208.69335938 81.291015625 1208.69335938 82.6025390625 1237.22851562 c 128,-1,11
 83.9150390625 1265.76269531 83.9150390625 1265.76269531 84.2099609375 1272.20898438 c 128,-1,12
 84.50390625 1278.65527344 84.50390625 1278.65527344 84.939453125 1288.19140625 c 128,-1,13
 85.375 1297.72753906 85.375 1297.72753906 85.796875 1306.98730469 c 128,-1,14
 86.2197265625 1316.24707031 86.2197265625 1316.24707031 86.556640625 1323.62402344 c 128,-1,15
 86.8935546875 1331.00195312 86.8935546875 1331.00195312 86.9111328125 1331.38085938 c 0,16,17
 89.2958984375 1394.05273438 89.2958984375 1394.05273438 124.875 1427.83105469 c 0,18,19
 160.4609375 1462.79394531 160.4609375 1462.79394531 212.3203125 1462.99902344 c 0,20,21
 217.623046875 1463.14550781 217.623046875 1463.14550781 219.356445312 1463.14550781 c 0,22,23
 269.254882812 1463.14550781 269.254882812 1463.14550781 304.067382812 1433.5546875 c 0,24,25
 345.502929688 1400.55566406 345.502929688 1400.55566406 345.502929688 1333 c 0,26,27
 345.502929688 1310.96875 345.502929688 1310.96875 339.490234375 1243.46875 c 128,-1,28
 333.477539062 1175.96875 333.477539062 1175.96875 333.477539062 1121.1015625 c 128,-1,29
 333.477539062 1066.23339844 333.477539062 1066.23339844 335.4453125 968.14453125 c 128,-1,30
 337.413085938 870.055664062 337.413085938 870.055664062 337.762695312 815.37890625 c 1,31,32
 516.190429688 818.780273438 516.190429688 818.780273438 771.293945312 851.752929688 c 0,33,34
 846.23828125 861.439453125 846.23828125 861.439453125 887.108398438 865.58203125 c 1,35,36
 886.732421875 874.016601562 886.732421875 874.016601562 885.606445312 893.580078125 c 128,-1,37
 884.48046875 913.142578125 884.48046875 913.142578125 883.381835938 984.487304688 c 128,-1,38
 882.283203125 1055.83105469 882.283203125 1055.83105469 882.283203125 1096.63769531 c 128,-1,39
 882.283203125 1137.44335938 882.283203125 1137.44335938 885.557617188 1223.29101562 c 128,-1,40
 888.831054688 1309.13769531 888.831054688 1309.13769531 889.951171875 1327.94140625 c 0,41,42
 891.388671875 1392.92382812 891.388671875 1392.92382812 928.40234375 1427.859375 c 0,43,44
 964.584960938 1462.79394531 964.584960938 1462.79394531 1015.33105469 1462.99902344 c 0,45,46
 1020.73242188 1463.14550781 1020.73242188 1463.14550781 1022.49707031 1463.14550781 c 0,47,48
 1073.25488281 1463.14550781 1073.25488281 1463.14550781 1108.06738281 1433.5546875 c 0,49,50
 1146.890625 1401.65625 1146.890625 1401.65625 1146.890625 1336.35449219 c 0,51,52
 1146.890625 1298.40039062 1146.890625 1298.40039062 1144.38964844 1181.88671875 c 0,53,54
 1141.31933594 1038.81542969 1141.31933594 1038.81542969 1141.31933594 925.354492188 c 128,-1,55
 1141.31933594 811.892578125 1141.31933594 811.892578125 1143.10449219 744.499023438 c 128,-1,56
 1144.890625 677.10546875 1144.890625 677.10546875 1145.22363281 620.717773438 c 0,57,58
 1145.22363281 508.810546875 1145.22363281 508.810546875 1139.00195312 333.633789062 c 128,-1,59
 1132.77929688 158.45703125 1132.77929688 158.45703125 1132.77929688 87.7529296875 c 0,60,61
 1132.77929688 79.0546875 1132.77929688 79.0546875 1132.90820312 71.068359375 c 0,62,63
 1127.75878906 16.3125 1127.75878906 16.3125 1082.50488281 -15.2802734375 c 0,64,65
 1042.54101562 -44.142578125 1042.54101562 -44.142578125 994.135742188 -44.142578125 c 0,66,67
 990.729492188 -44.142578125 990.729492188 -44.142578125 987.307617188 -43.9990234375 c 0,68,69
 935.928710938 -43.7802734375 935.928710938 -43.7802734375 902.233398438 -8.177734375 c 0,70,71
 869.684570312 23.3798828125 869.684570312 23.3798828125 869.684570312 73.5087890625 c 0,72,73
 869.684570312 80.5380859375 869.684570312 80.5380859375 870.336914062 87.9130859375 c 0,74,75
 890.134765625 345.157226562 890.134765625 345.157226562 890.134765625 661.868164062 c 0,76,77
 890.134765625 680.049804688 890.134765625 680.049804688 890.069335938 698.427734375 c 1,78,79
 822.061523438 691.271484375 822.061523438 691.271484375 629.061523438 666.401367188 c 128,-1,80
 436.063476562 641.53125 436.063476562 641.53125 332.21875 638.416992188 c 1,81,82
 331.297851562 623.512695312 331.297851562 623.512695312 331.291015625 621 c 2,83,84
 331.291015625 645.625 331.291015625 645.625 331.291015625 620.25 c 1,85,86
 324.731445312 518.75 324.731445312 518.75 324.731445312 382.84765625 c 128,-1,87
 324.731445312 246.944335938 324.731445312 246.944335938 331.345703125 74.0087890625 c 1,88,89
 324.290039062 17.2060546875 324.290039062 17.2060546875 278.504882812 -15.2802734375 c 0,90,91
 238.541015625 -44.142578125 238.541015625 -44.142578125 190.135742188 -44.142578125 c 0,92,93
 186.729492188 -44.142578125 186.729492188 -44.142578125 183.306640625 -43.9990234375 c 0,94,95
 133.059570312 -43.7763671875 133.059570312 -43.7763671875 98.8955078125 -8.34765625 c 0,96,97
 69.109375 21.5029296875 69.109375 21.5029296875 69.109375 68.5244140625 c 0,0,1
EndSplineSet
EndChar

StartChar: I
Encoding: 73 73 41
Width: 1216
GlyphClass: 2
Flags: W
LayerCount: 2
Fore
SplineSet
360.381835938 -23.98828125 m 2,0,1
 224.96875 -28 224.96875 -28 174.576171875 -28 c 0,2,3
 113.079101562 -28 113.079101562 -28 80.353515625 -2.826171875 c 0,4,5
 44.890625 23.3876953125 44.890625 23.3876953125 44.578125 67.43359375 c 0,6,7
 44.423828125 70.380859375 44.423828125 70.380859375 44.423828125 73.28515625 c 0,8,9
 44.423828125 114.229492188 44.423828125 114.229492188 74.892578125 144.705078125 c 128,-1,10
 105.361328125 175.180664062 105.361328125 175.180664062 168.142578125 178.595703125 c 2,11,12
 168.27734375 195.549804688 168.27734375 195.549804688 168.411132812 178.608398438 c 2,13,14
 251.01953125 182.258789062 251.01953125 182.258789062 462.5859375 186.760742188 c 1,15,16
 476.928710938 400.051757812 476.928710938 400.051757812 476.932617188 629.66015625 c 0,17,18
 476.932617188 750.3125 476.932617188 750.3125 472.96875 875.470703125 c 0,19,20
 468.8828125 963.576171875 468.8828125 963.576171875 468.8828125 1064.18847656 c 0,21,22
 468.8828125 1086.99023438 468.8828125 1086.99023438 469.296875 1107.52050781 c 128,-1,23
 469.709960938 1128.04980469 469.709960938 1128.04980469 472.420898438 1169.87402344 c 128,-1,24
 475.130859375 1211.71289062 475.130859375 1211.71289062 476.151367188 1229.52050781 c 1,25,26
 357.135742188 1230.99609375 357.135742188 1230.99609375 299.428710938 1230.99804688 c 0,27,28
 245.533203125 1231 245.533203125 1231 190.490234375 1229.01660156 c 2,29,30
 190.283203125 1204.01074219 190.283203125 1204.01074219 190.075195312 1229.00488281 c 2,31,32
 187.748046875 1228.95898438 187.748046875 1228.95898438 185.453125 1228.95898438 c 0,33,34
 128.125 1228.95898438 128.125 1228.95898438 95.037109375 1257.75683594 c 128,-1,35
 61.951171875 1286.5546875 61.951171875 1286.5546875 59.578125 1334.29003906 c 0,36,37
 59.576171875 1337 59.576171875 1337 59.43359375 1340.09472656 c 0,38,39
 59.43359375 1383.1015625 59.43359375 1383.1015625 91.646484375 1415.93457031 c 128,-1,40
 123.859375 1448.76660156 123.859375 1448.76660156 186.9609375 1449.99316406 c 0,41,42
 364.013671875 1454.99804688 364.013671875 1454.99804688 524.0859375 1455 c 0,43,44
 844.694335938 1455 844.694335938 1455 1050.96289062 1434.88769531 c 0,45,46
 1097.74023438 1430.70117188 1097.74023438 1430.70117188 1126.30175781 1409.86328125 c 0,47,48
 1164.68554688 1381.85644531 1164.68554688 1381.85644531 1167.54003906 1328.35058594 c 1,49,50
 1167.55859375 1302.67480469 1167.55859375 1302.67480469 1167.57617188 1327 c 1,51,52
 1167.57617188 1281.93359375 1167.57617188 1281.93359375 1141.39257812 1242.65820312 c 0,53,54
 1126.22460938 1219.90820312 1126.22460938 1219.90820312 1099.33691406 1208.48046875 c 0,55,56
 1082.08398438 1201.1484375 1082.08398438 1201.1484375 1062.01269531 1201.1484375 c 0,57,58
 1050.97070312 1201.1484375 1050.97070312 1201.1484375 1039.19335938 1203.38085938 c 0,59,60
 982.82421875 1212.54980469 982.82421875 1212.54980469 754.7265625 1223.70996094 c 1,61,62
 754.204101562 1201.19140625 754.204101562 1201.19140625 752.50390625 1143.44824219 c 0,63,64
 750.8046875 1086.36132812 750.8046875 1086.36132812 750.400390625 1054.49707031 c 128,-1,65
 749.995117188 1022.6328125 749.995117188 1022.6328125 749.995117188 991.944335938 c 0,66,67
 749.995117188 870.370117188 749.995117188 870.370117188 752.2421875 791.443359375 c 128,-1,68
 754.490234375 712.516601562 754.490234375 712.516601562 754.490234375 630.637695312 c 128,-1,69
 754.490234375 548.759765625 754.490234375 548.759765625 748.635742188 399.350585938 c 128,-1,70
 742.78125 249.942382812 742.78125 249.942382812 741.401367188 189.625 c 1,71,72
 828.020507812 189.510742188 828.020507812 189.510742188 881.791015625 189.096679688 c 0,73,74
 934.794921875 188.68359375 934.794921875 188.68359375 1050.41601562 187.7890625 c 2,75,76
 1051.23144531 204.788085938 1051.23144531 204.788085938 1052.04492188 187.776367188 c 1,77,78
 1052.84765625 204.776367188 1052.84765625 204.776367188 1053.65039062 187.763671875 c 1,79,80
 1054.42871094 204.764648438 1054.42871094 204.764648438 1055.20898438 187.751953125 c 1,81,82
 1055.94921875 204.752929688 1055.94921875 204.752929688 1056.68945312 187.740234375 c 1,83,84
 1057.68554688 204.740234375 1057.68554688 204.740234375 1058.68164062 187.724609375 c 2,85,86
 1117.68554688 187.702148438 1117.68554688 187.702148438 1143.36035156 160.473632812 c 128,-1,87
 1169.03320312 133.24609375 1169.03320312 133.24609375 1171.53515625 91.23828125 c 1,88,89
 1171.55566406 111.484375 1171.55566406 111.484375 1171.57617188 89.8515625 c 2,90,91
 1171.57617188 68.92578125 1171.57617188 68.92578125 1167.33007812 50.8857421875 c 128,-1,92
 1163.08496094 32.845703125 1163.08496094 32.845703125 1152.02929688 15.1640625 c 0,93,94
 1138.54101562 -7.3154296875 1138.54101562 -7.3154296875 1111.91210938 -17.3916015625 c 0,95,96
 1095.88769531 -23.4541015625 1095.88769531 -23.4541015625 1080.99414062 -23.4541015625 c 128,-1,97
 1066.10058594 -23.4541015625 1066.10058594 -23.4541015625 1054.88769531 -21.7294921875 c 0,98,99
 998.91796875 -13.4375 998.91796875 -13.4375 870.357421875 -13.4375 c 0,100,101
 735.557617188 -13.4375 735.557617188 -13.4375 626.291992188 -16.48828125 c 2,102,103
 493.336914062 4.76171875 493.336914062 4.76171875 360.381835938 -23.98828125 c 2,0,1
EndSplineSet
EndChar

StartChar: J
Encoding: 74 74 42
Width: 1216
GlyphClass: 2
Flags: W
LayerCount: 2
Fore
SplineSet
860.107421875 443.9453125 m 0,0,1
 825.331054688 87.625 825.331054688 87.625 713.924804688 -15.2998046875 c 0,2,3
 654.975585938 -72 654.975585938 -72 573.024414062 -72 c 128,-1,4
 491.075195312 -72 491.075195312 -72 414.653320312 -45.494140625 c 128,-1,5
 338.232421875 -18.9892578125 338.232421875 -18.9892578125 281.759765625 23.4208984375 c 0,6,7
 229.401367188 65.8310546875 229.401367188 65.8310546875 184.911132812 115.494140625 c 128,-1,8
 140.420898438 165.158203125 140.420898438 165.158203125 110.87890625 214.9140625 c 128,-1,9
 81.3359375 264.669921875 81.3359375 264.669921875 64.0966796875 304.89453125 c 128,-1,10
 46.857421875 345.120117188 46.857421875 345.120117188 43.1298828125 371.024414062 c 0,11,12
 37.4501953125 392.928710938 37.4501953125 392.928710938 40.2294921875 420.720703125 c 128,-1,13
 43.0087890625 448.513671875 43.0087890625 448.513671875 49.5244140625 472.94921875 c 0,14,15
 57.3916015625 502.450195312 57.3916015625 502.450195312 81.755859375 524.890625 c 128,-1,16
 106.241210938 547.443359375 106.241210938 547.443359375 144.52734375 553.65625 c 0,17,18
 157.559570312 555.91015625 157.559570312 555.91015625 169.5703125 555.91015625 c 0,19,20
 211.063476562 555.91015625 211.063476562 555.91015625 238.841796875 529.67578125 c 0,21,22
 273.68359375 496.76953125 273.68359375 496.76953125 273.68359375 446 c 0,23,24
 273.68359375 397.510742188 273.68359375 397.510742188 307.564453125 329.109375 c 0,25,26
 327.146484375 290.661132812 327.146484375 290.661132812 356.006835938 259.522460938 c 128,-1,27
 384.866210938 228.384765625 384.866210938 228.384765625 434.258789062 207.1796875 c 128,-1,28
 483.590820312 186 483.590820312 186 544.790039062 186 c 0,29,30
 546.791992188 186 546.791992188 186 549.54296875 187.99609375 c 0,31,32
 563.530273438 198.14453125 563.530273438 198.14453125 575.805664062 235.666015625 c 0,33,34
 604.295898438 322.748046875 604.295898438 322.748046875 608.750976562 501.546875 c 0,35,36
 608.749023438 501.909179688 608.749023438 501.909179688 608.749023438 506.00390625 c 128,-1,37
 608.749023438 510.09765625 608.749023438 510.09765625 608.84375 547.982421875 c 128,-1,38
 608.9375 585.8671875 608.9375 585.8671875 605.478515625 750.634765625 c 0,39,40
 600.302734375 997.236328125 600.302734375 997.236328125 603.02734375 1227.78710938 c 1,41,42
 371.912109375 1233.51269531 371.912109375 1233.51269531 199.405273438 1229.00976562 c 2,43,44
 199.293945312 1204.0078125 199.293945312 1204.0078125 199.182617188 1229.00488281 c 2,45,46
 196.856445312 1228.95898438 196.856445312 1228.95898438 194.560546875 1228.95898438 c 0,47,48
 137.232421875 1228.95898438 137.232421875 1228.95898438 104.145507812 1257.75683594 c 128,-1,49
 71.05859375 1286.5546875 71.05859375 1286.5546875 68.685546875 1334.29003906 c 0,50,51
 68.68359375 1337 68.68359375 1337 68.541015625 1340.09472656 c 0,52,53
 68.541015625 1383.1015625 68.541015625 1383.1015625 100.752929688 1415.93457031 c 128,-1,54
 132.965820312 1448.76660156 132.965820312 1448.76660156 196.068359375 1449.99316406 c 0,55,56
 374.21484375 1454.99804688 374.21484375 1454.99804688 533.951171875 1455 c 0,57,58
 853.887695312 1455 853.887695312 1455 1059.07519531 1434.88769531 c 0,59,60
 1105.79492188 1430.70507812 1105.79492188 1430.70507812 1134.5234375 1409.92285156 c 0,61,62
 1173.0703125 1382.03808594 1173.0703125 1382.03808594 1176.68359375 1327.84472656 c 1,63,64
 1176.68359375 1302.42285156 1176.68359375 1302.42285156 1176.68359375 1327 c 2,65,66
 1176.68359375 1281.93359375 1176.68359375 1281.93359375 1150.5 1242.65820312 c 0,67,68
 1135.33300781 1219.90820312 1135.33300781 1219.90820312 1108.44433594 1208.48046875 c 0,69,70
 1091.19238281 1201.1484375 1091.19238281 1201.1484375 1071.12011719 1201.1484375 c 0,71,72
 1060.12988281 1201.1484375 1060.12988281 1201.1484375 1048.41113281 1203.36035156 c 0,73,74
 985.200195312 1213.10839844 985.200195312 1213.10839844 850.649414062 1219.73339844 c 1,75,76
 851.380859375 1168.23535156 851.380859375 1168.23535156 863.986328125 861.84375 c 0,77,78
 867.322265625 778.208984375 867.322265625 778.208984375 867.322265625 720.755859375 c 128,-1,79
 867.322265625 663.303710938 867.322265625 663.303710938 867.254882812 648.606445312 c 0,80,81
 866.65625 519.375976562 866.65625 519.375976562 860.107421875 443.9453125 c 0,0,1
EndSplineSet
EndChar

StartChar: K
Encoding: 75 75 43
Width: 1216
GlyphClass: 2
Flags: W
LayerCount: 2
Fore
SplineSet
183.680664062 -44.142578125 m 0,0,1
 180.274414062 -44.142578125 180.274414062 -44.142578125 176.852539062 -43.9990234375 c 0,2,3
 125.473632812 -43.828125 125.473632812 -43.828125 91.7783203125 -15.9931640625 c 0,4,5
 61.9111328125 8.92578125 61.9111328125 8.92578125 61.9111328125 48.5087890625 c 0,6,7
 61.9111328125 56.603515625 61.9111328125 56.603515625 62.51171875 64.99609375 c 0,8,9
 67.59375 129.731445312 67.59375 129.731445312 67.59375 283.215820312 c 0,10,11
 67.59375 575.280273438 67.59375 575.280273438 54.447265625 930.224609375 c 0,12,13
 50.435546875 1061.61132812 50.435546875 1061.61132812 50.435546875 1108.5 c 0,14,15
 50.435546875 1155.18066406 50.435546875 1155.18066406 54.435546875 1241.93847656 c 0,16,17
 58.435546875 1329.99121094 58.435546875 1329.99121094 58.435546875 1351.54589844 c 2,18,19
 58.4443359375 1351.43457031 58.4443359375 1351.43457031 58.4521484375 1352.01464844 c 1,20,21
 60.8134765625 1405.94238281 60.8134765625 1405.94238281 96.419921875 1434.99804688 c 0,22,23
 132.005859375 1462.8359375 132.005859375 1462.8359375 183.865234375 1462.99902344 c 0,24,25
 189.16796875 1463.14550781 189.16796875 1463.14550781 190.901367188 1463.14550781 c 0,26,27
 240.799804688 1463.14550781 240.799804688 1463.14550781 275.612304688 1439.50683594 c 0,28,29
 316.026367188 1412.7578125 316.026367188 1412.7578125 316.026367188 1358 c 0,30,31
 316.026367188 1308.42578125 316.026367188 1308.42578125 311.288085938 1163.16992188 c 0,32,33
 306.549804688 1018.9375 306.549804688 1018.9375 304.913085938 927.57421875 c 1,34,35
 380.120117188 988.370117188 380.120117188 988.370117188 521.231445312 1103.85449219 c 0,36,37
 824.8515625 1376.74316406 824.8515625 1376.74316406 880.341796875 1421.64941406 c 0,38,39
 914.998046875 1448.578125 914.998046875 1448.578125 947.534179688 1458.00683594 c 0,40,41
 968.122070312 1463.5859375 968.122070312 1463.5859375 983.068359375 1463.5859375 c 128,-1,42
 998.014648438 1463.5859375 998.014648438 1463.5859375 1008.72753906 1461.50390625 c 0,43,44
 1034.48339844 1455.82617188 1034.48339844 1455.82617188 1056.43457031 1438.67285156 c 1,45,46
 1086.08886719 1414.69921875 1086.08886719 1414.69921875 1086.08886719 1385.15917969 c 0,47,48
 1086.08886719 1329.12695312 1086.08886719 1329.12695312 1039.60644531 1264.90429688 c 0,49,50
 1007.9375 1226.84375 1007.9375 1226.84375 819.15234375 1042.91992188 c 0,51,52
 622.68359375 870.418945312 622.68359375 870.418945312 472.874023438 744.33984375 c 1,53,54
 549.8125 671.54296875 549.8125 671.54296875 720.588867188 524.334960938 c 0,55,56
 891.3671875 387.03515625 891.3671875 387.03515625 1016.34960938 275.862304688 c 0,57,58
 1085.11523438 208.147460938 1085.11523438 208.147460938 1117.63085938 170.673828125 c 0,59,60
 1153.14746094 123.88671875 1153.14746094 123.88671875 1158.28027344 105.055664062 c 0,61,62
 1165.56445312 78.09375 1165.56445312 78.09375 1165.56445312 53.0166015625 c 0,63,64
 1165.56445312 36.23046875 1165.56445312 36.23046875 1158.38476562 21.0107421875 c 0,65,66
 1144.02539062 -8.4423828125 1144.02539062 -8.4423828125 1111.12011719 -24.0732421875 c 1,67,68
 1061.99414062 -43.7001953125 1061.99414062 -43.7001953125 1048.84179688 -43.7001953125 c 0,69,70
 1047.89746094 -43.7001953125 1047.89746094 -43.7001953125 1047.13964844 -43.587890625 c 0,71,72
 991.942382812 -43.587890625 991.942382812 -43.587890625 941.978515625 9.017578125 c 0,73,74
 922.180664062 34.0166015625 922.180664062 34.0166015625 786.590820312 150.249023438 c 0,75,76
 650.794921875 264.046875 650.794921875 264.046875 492.44140625 402.5 c 0,77,78
 377.767578125 492.250976562 377.767578125 492.250976562 307.213867188 555.052734375 c 1,79,-1
 325.86328125 51.8173828125 l 1,80,81
 318.84765625 6.125 318.84765625 6.125 272.049804688 -20.0126953125 c 0,82,83
 232.0859375 -44.142578125 232.0859375 -44.142578125 183.680664062 -44.142578125 c 0,0,1
EndSplineSet
EndChar

StartChar: L
Encoding: 76 76 44
Width: 1216
GlyphClass: 2
Flags: W
LayerCount: 2
Fore
SplineSet
327.59765625 427.350585938 m 128,-1,1
 314.918945312 280.225585938 314.918945312 280.225585938 313.369140625 196.8359375 c 1,2,3
 315.540039062 220.873046875 315.540039062 220.873046875 317.709960938 196.833007812 c 2,4,5
 493.260742188 196.833007812 493.260742188 196.833007812 728.08984375 217.768554688 c 0,6,7
 959.48046875 238.704101562 959.48046875 238.704101562 1033.6875 257.255859375 c 0,8,9
 1047.33203125 260.666992188 1047.33203125 260.666992188 1062.26367188 260.666992188 c 128,-1,10
 1077.19628906 260.666992188 1077.19628906 260.666992188 1092.52929688 254.916992188 c 0,11,12
 1119.99609375 244.6171875 1119.99609375 244.6171875 1135.984375 220.982421875 c 0,13,14
 1149.34960938 201.224609375 1149.34960938 201.224609375 1156.92285156 179.086914062 c 0,15,16
 1165.17578125 154.9609375 1165.17578125 154.9609375 1165.76171875 135 c 0,17,18
 1165.76171875 88.892578125 1165.76171875 88.892578125 1141.40234375 59.9248046875 c 128,-1,19
 1117.07519531 30.994140625 1117.07519531 30.994140625 1057.32519531 20.416015625 c 0,20,21
 915.120117188 -6.90625 915.120117188 -6.90625 606.811523438 -18.953125 c 128,-1,22
 298.502929688 -31 298.502929688 -31 165.76171875 -31 c 0,23,24
 114.0078125 -31 114.0078125 -31 80.10546875 4.822265625 c 0,25,26
 50.23828125 35.322265625 50.23828125 35.322265625 50.23828125 83.76953125 c 0,27,28
 50.23828125 90.5263671875 50.23828125 90.5263671875 51.107421875 102.551757812 c 128,-1,29
 51.978515625 114.577148438 51.978515625 114.577148438 74.900390625 325.033203125 c 128,-1,30
 97.833984375 535.587890625 97.833984375 535.587890625 107.79296875 731.051757812 c 0,31,32
 111.361328125 791.327148438 111.361328125 791.327148438 111.361328125 876.125 c 0,33,34
 111.361328125 952.821289062 111.361328125 952.821289062 105.765625 1313.22460938 c 1,35,36
 105.771484375 1294.11621094 105.771484375 1294.11621094 105.778320312 1314.46972656 c 1,37,38
 108.137695312 1378.31738281 108.137695312 1378.31738281 144.294921875 1412.05664062 c 128,-1,39
 180.451171875 1445.796875 180.451171875 1445.796875 231.19140625 1445.99902344 c 0,40,41
 234.684570312 1446.14257812 234.684570312 1446.14257812 238.11328125 1446.14257812 c 0,42,43
 288.223632812 1446.14257812 288.223632812 1446.14257812 325.485351562 1417.06152344 c 0,44,45
 367.491210938 1384.86230469 367.491210938 1384.86230469 367.491210938 1321.0078125 c 0,46,47
 367.491210938 1263.86132812 367.491210938 1263.86132812 363.668945312 1164.87304688 c 2,48,49
 358.778320312 1032.17285156 358.778320312 1032.17285156 353.885742188 916.337890625 c 1,50,51
 348.720703125 787.864257812 348.720703125 787.864257812 343.557617188 656.69921875 c 2,52,0
 340.276367188 574.475585938 340.276367188 574.475585938 327.59765625 427.350585938 c 128,-1,1
EndSplineSet
EndChar

StartChar: M
Encoding: 77 77 45
Width: 1216
GlyphClass: 2
Flags: W
LayerCount: 2
Fore
SplineSet
234.8984375 130.204101562 m 2,0,1
 235.127929688 120.01953125 235.127929688 120.01953125 235.357421875 108.764648438 c 1,2,3
 235.357421875 52.5361328125 235.357421875 52.5361328125 203.338867188 17.01953125 c 0,4,5
 167.073242188 -20.025390625 167.073242188 -20.025390625 115.174804688 -20.025390625 c 0,6,7
 113.818359375 -20.025390625 113.818359375 -20.025390625 112.459960938 -20 c 2,8,9
 112.255859375 -5.7451171875 112.255859375 -5.7451171875 112.051757812 -19.9921875 c 2,10,11
 89.130859375 -19.34375 89.130859375 -19.34375 70.822265625 -11.5224609375 c 0,12,13
 43.5517578125 1.4296875 43.5517578125 1.4296875 28.81640625 32.14453125 c 0,14,15
 14.080078125 68.513671875 14.080078125 68.513671875 14.080078125 131 c 0,16,17
 14.080078125 157.866210938 14.080078125 157.866210938 19.640625 219.62109375 c 0,18,19
 25.2001953125 279.883789062 25.2001953125 279.883789062 35.1953125 376.0078125 c 0,20,21
 46.21875 480.7421875 46.21875 480.7421875 57.693359375 623.676757812 c 0,22,23
 69.1669921875 768.106445312 69.1669921875 768.106445312 76.677734375 853.221679688 c 0,24,25
 102.9375 1147.6953125 102.9375 1147.6953125 123.462890625 1262.52246094 c 0,26,27
 137.092773438 1334.4765625 137.092773438 1334.4765625 152.78515625 1362.84277344 c 0,28,29
 177.708984375 1404.97070312 177.708984375 1404.97070312 228.55859375 1425.01367188 c 0,30,31
 271.79296875 1442.39160156 271.79296875 1442.39160156 314.783203125 1442.39160156 c 0,32,33
 320.850585938 1442.39160156 320.850585938 1442.39160156 326.848632812 1441.99804688 c 0,34,35
 377.198242188 1441.85253906 377.198242188 1441.85253906 411.651367188 1427.20117188 c 0,36,37
 457.595703125 1408.33886719 457.595703125 1408.33886719 472.510742188 1367.0078125 c 0,38,39
 498.788085938 1276.45214844 498.788085938 1276.45214844 530.166015625 1069.63671875 c 0,40,41
 561.54296875 862.255859375 561.54296875 862.255859375 594.9765625 596.909179688 c 0,42,43
 602.297851562 538.388671875 602.297851562 538.388671875 608.647460938 488.466796875 c 1,44,45
 622.313476562 635.354492188 622.313476562 635.354492188 637.32421875 764.642578125 c 0,46,47
 656.829101562 934.337890625 656.829101562 934.337890625 691.4765625 1103.890625 c 0,48,49
 726.124023438 1274.671875 726.124023438 1274.671875 751.150390625 1367.00976562 c 0,50,51
 762.25390625 1398.02148438 762.25390625 1398.02148438 799.008789062 1416.51367188 c 0,52,53
 832.567382812 1434.91894531 832.567382812 1434.91894531 868.204101562 1439.49902344 c 0,54,55
 890.87890625 1442.61523438 890.87890625 1442.61523438 906.491210938 1442.61523438 c 128,-1,56
 922.103515625 1442.61523438 922.103515625 1442.61523438 931.236328125 1442 c 2,57,-1
 938.8359375 1442 l 2,58,59
 957.657226562 1442 957.657226562 1442 970.119140625 1441.45898438 c 128,-1,60
 982.581054688 1440.95507812 982.581054688 1440.95507812 1005.01269531 1436.22753906 c 0,61,62
 1027.44433594 1432.16796875 1027.44433594 1432.16796875 1042.99121094 1423.90429688 c 128,-1,63
 1058.53808594 1415.47949219 1058.53808594 1415.47949219 1072.26171875 1398.47363281 c 0,64,65
 1086.56933594 1379.92480469 1086.56933594 1379.92480469 1090.87402344 1355.65039062 c 0,66,67
 1098.96191406 1293.34082031 1098.96191406 1293.34082031 1138.41894531 759.124023438 c 0,68,69
 1177.87597656 226.623046875 1177.87597656 226.623046875 1193.45800781 158.11328125 c 0,70,71
 1201.91992188 118.020507812 1201.91992188 118.020507812 1201.91992188 81.8740234375 c 0,72,73
 1201.91992188 54.177734375 1201.91992188 54.177734375 1189.37304688 31.8212890625 c 0,74,75
 1172.15820312 3.4609375 1172.15820312 3.4609375 1134.55273438 -9.0107421875 c 0,76,77
 1112.68652344 -16.111328125 1112.68652344 -16.111328125 1087.92285156 -16.111328125 c 128,-1,78
 1063.16015625 -16.111328125 1063.16015625 -16.111328125 1036.84082031 -5.015625 c 0,79,80
 990.268554688 16.15234375 990.268554688 16.15234375 967.221679688 79.0009765625 c 0,81,82
 926.16015625 201.51171875 926.16015625 201.51171875 893.572265625 1032.00488281 c 1,83,84
 867.1015625 873.901367188 867.1015625 873.901367188 855.790039062 733.953125 c 0,85,86
 835.255859375 501.129882812 835.255859375 501.129882812 801.72265625 291.474609375 c 0,87,88
 767.807617188 82.939453125 767.807617188 82.939453125 744.798828125 35.01953125 c 0,89,90
 714.1015625 -14.8505859375 714.1015625 -14.8505859375 597.98828125 -14.9990234375 c 0,91,92
 592.59375 -15.2353515625 592.59375 -15.2353515625 587.3671875 -15.2353515625 c 0,93,94
 543.815429688 -15.2353515625 543.815429688 -15.2353515625 512.078125 -2.015625 c 0,95,96
 472.990234375 12.6787109375 472.990234375 12.6787109375 462.400390625 39.2939453125 c 0,97,98
 436.215820312 138.11328125 436.215820312 138.11328125 375.177734375 486.51953125 c 0,99,100
 333.895507812 725.579101562 333.895507812 725.579101562 297.31640625 952.016601562 c 1,101,102
 293.907226562 911.568359375 293.907226562 911.568359375 286.129882812 804.189453125 c 0,103,-1
 278.352539062 696.810546875 l 2,104,-1
 265.431640625 517.411132812 l 2,105,106
 260.01953125 433.142578125 260.01953125 433.142578125 251.479492188 341.530273438 c 2,107,108
 244.983398438 271.3125 244.983398438 271.3125 238.48828125 196.573242188 c 2,109,110
 234.8984375 153.59375 234.8984375 153.59375 234.8984375 130.204101562 c 2,0,1
EndSplineSet
EndChar

StartChar: N
Encoding: 78 78 46
Width: 1216
GlyphClass: 2
Flags: W
LayerCount: 2
Fore
SplineSet
285.51171875 996.017578125 m 1,0,1
 288.7421875 903.006835938 288.7421875 903.006835938 288.7421875 840.708984375 c 0,2,3
 288.7421875 774.408203125 288.7421875 774.408203125 286.939453125 658.39453125 c 0,4,5
 285.135742188 542.713867188 285.135742188 542.713867188 279.666015625 375.297851562 c 0,6,7
 274.1953125 206.759765625 274.1953125 206.759765625 274.1953125 161.024414062 c 0,8,9
 274.1953125 116.721679688 274.1953125 116.721679688 274.809570312 107.012695312 c 0,10,11
 275.423828125 96.0908203125 275.423828125 96.0908203125 275.423828125 89.111328125 c 0,12,13
 275.423828125 34.2548828125 275.423828125 34.2548828125 241.58203125 4.1337890625 c 0,14,15
 207.740234375 -24.12109375 207.740234375 -24.12109375 158.185546875 -24.12109375 c 0,16,17
 95.6962890625 -24.12109375 95.6962890625 -24.12109375 72.44921875 11.521484375 c 0,18,19
 54.142578125 47.255859375 54.142578125 47.255859375 54.142578125 112 c 0,20,21
 54.142578125 152.34375 54.142578125 152.34375 60.14453125 430.407226562 c 0,22,23
 69.3779296875 857.061523438 69.3779296875 857.061523438 69.3779296875 1016.42578125 c 0,24,25
 69.3779296875 1174.97070312 69.3779296875 1174.97070312 65.171875 1306.91308594 c 0,26,27
 64.5615234375 1316.39746094 64.5615234375 1316.39746094 64.5615234375 1325.40234375 c 0,28,29
 64.5615234375 1356.07128906 64.5615234375 1356.07128906 76.7353515625 1379.48046875 c 0,30,31
 92.353515625 1407.56347656 92.353515625 1407.56347656 120.181640625 1421.21972656 c 0,32,33
 161.572265625 1443.20019531 161.572265625 1443.20019531 212.862304688 1443.20019531 c 0,34,35
 224.068359375 1443.20019531 224.068359375 1443.20019531 235.54296875 1441.99609375 c 0,36,37
 280.697265625 1441.77539062 280.697265625 1441.77539062 313.485351562 1427.20117188 c 0,38,39
 359.0703125 1408.26757812 359.0703125 1408.26757812 376.19921875 1366.87207031 c 0,40,41
 422.298828125 1236.04199219 422.298828125 1236.04199219 632.69921875 880.78125 c 0,42,43
 810.896484375 582.76953125 810.896484375 582.76953125 940.900390625 381.728515625 c 1,44,45
 945.327148438 558.447265625 945.327148438 558.447265625 942.14453125 842.72265625 c 0,46,47
 938.16015625 1205.87402344 938.16015625 1205.87402344 923.329101562 1321.78320312 c 0,48,49
 922 1334.25390625 922 1334.25390625 922 1346.10449219 c 0,50,51
 922 1383.10449219 922 1383.10449219 947.73828125 1410.47949219 c 0,52,53
 980.7578125 1444 980.7578125 1444 1034.14257812 1444 c 0,54,55
 1083.78320312 1444 1083.78320312 1444 1113.45117188 1427.01269531 c 0,56,57
 1129.06445312 1419.30371094 1129.06445312 1419.30371094 1137.64648438 1403.49121094 c 0,58,59
 1144.19726562 1387.18847656 1144.19726562 1387.18847656 1147.47460938 1373.84960938 c 0,60,61
 1150.75097656 1359.68457031 1150.75097656 1359.68457031 1154.87695312 1331.94628906 c 0,62,63
 1160.13476562 1297.27929688 1160.13476562 1297.27929688 1161.64257812 1002.50195312 c 0,64,65
 1161.85742188 960.143554688 1161.85742188 960.143554688 1161.85742188 917.3671875 c 0,66,67
 1161.85742188 660.67578125 1161.85742188 660.67578125 1154.13378906 388.98828125 c 0,68,69
 1149.11035156 213.142578125 1149.11035156 213.142578125 1141.06152344 127.028320312 c 0,70,71
 1132.94335938 45.638671875 1132.94335938 45.638671875 1122.03808594 22.01953125 c 0,72,73
 1093.54882812 -27.84375 1093.54882812 -27.84375 985.799804688 -27.9990234375 c 0,74,75
 981.140625 -28.228515625 981.140625 -28.228515625 976.61328125 -28.228515625 c 0,76,77
 937.28515625 -28.228515625 937.28515625 -28.228515625 907.686523438 -14.515625 c 0,78,79
 871.83984375 1.001953125 871.83984375 1.001953125 857.432617188 26.6171875 c 0,80,81
 836.87109375 67.5634765625 836.87109375 67.5634765625 751.528320312 207.037109375 c 2,82,83
 662.01171875 351.778320312 662.01171875 351.778320312 572.495117188 484.701171875 c 2,84,85
 479.633789062 635.276367188 479.633789062 635.276367188 378.1015625 822.368164062 c 0,86,87
 324.0703125 916.518554688 324.0703125 916.518554688 285.51171875 996.017578125 c 1,0,1
EndSplineSet
EndChar

StartChar: O
Encoding: 79 79 47
Width: 1216
GlyphClass: 2
Flags: W
LayerCount: 2
Fore
SplineSet
1149.52246094 982.965820312 m 2,0,1
 1149.53222656 973.924804688 1149.53222656 973.924804688 1149.54199219 982.7421875 c 1,2,3
 1168.01464844 755.126953125 1168.01464844 755.126953125 1152.05566406 537.444335938 c 0,4,5
 1143.26367188 417.48828125 1143.26367188 417.48828125 1124.75292969 350.194335938 c 0,6,7
 1097.94824219 254.544921875 1097.94824219 254.544921875 1057.24316406 184.44140625 c 128,-1,8
 1016.53808594 114.338867188 1016.53808594 114.338867188 966.458984375 69.0302734375 c 128,-1,9
 916.379882812 23.7216796875 916.379882812 23.7216796875 844.716796875 -2.8212890625 c 0,10,11
 772.815429688 -30.287109375 772.815429688 -30.287109375 699.368164062 -40.1435546875 c 128,-1,12
 625.921875 -50 625.921875 -50 532.439453125 -50 c 2,13,-1
 531.999023438 -50 l 1,14,15
 385.956054688 -47.939453125 385.956054688 -47.939453125 273.190429688 28.9765625 c 0,16,17
 167.264648438 105.891601562 167.264648438 105.891601562 110.62890625 233.833007812 c 0,18,19
 56.5478515625 356.00390625 56.5478515625 356.00390625 56.5478515625 500.216796875 c 0,20,21
 56.5478515625 505.45703125 56.5478515625 505.45703125 56.619140625 510.723632812 c 2,22,23
 56.619140625 533.39453125 56.619140625 533.39453125 56.619140625 544.446289062 c 2,24,25
 56.619140625 633.848632812 56.619140625 633.848632812 58.130859375 688.013671875 c 128,-1,26
 59.6435546875 742.178710938 59.6435546875 742.178710938 66.2236328125 832.3515625 c 0,27,28
 79.14453125 1009.40722656 79.14453125 1009.40722656 137.189453125 1159.93261719 c 1,29,30
 137.24609375 1145.74316406 137.24609375 1145.74316406 137.302734375 1160.22167969 c 2,31,32
 192.192382812 1297.16308594 192.192382812 1297.16308594 329.916992188 1383.58203125 c 0,33,34
 477.44921875 1470 477.44921875 1470 663.126953125 1470 c 0,35,36
 757.926757812 1470 757.926757812 1470 844.635742188 1436.56054688 c 0,37,38
 929.756835938 1404.30273438 929.756835938 1404.30273438 993.21875 1343.48144531 c 128,-1,39
 1056.68554688 1282.65625 1056.68554688 1282.65625 1097.9296875 1189.81933594 c 128,-1,40
 1139.17382812 1096.98242188 1139.17382812 1096.98242188 1149.52246094 982.965820312 c 2,0,1
448.5390625 192.766601562 m 128,-1,42
 485.608398438 173 485.608398438 173 532.439453125 173 c 0,43,44
 648.481445312 173 648.481445312 173 739.685546875 222.919921875 c 0,45,46
 785.965820312 248.250976562 785.965820312 248.250976562 823.30859375 292.094726562 c 128,-1,47
 860.650390625 335.938476562 860.650390625 335.938476562 881.049804688 394.125 c 0,48,49
 888.942382812 416.63671875 888.942382812 416.63671875 898.576171875 507.291992188 c 128,-1,50
 908.2109375 597.948242188 908.2109375 597.948242188 913.083984375 724.83203125 c 0,51,52
 914.42578125 761.47265625 914.42578125 761.47265625 914.42578125 797.821289062 c 0,53,54
 914.42578125 886.662109375 914.42578125 886.662109375 906.086914062 973.827148438 c 0,55,56
 893.779296875 1095.33984375 893.779296875 1095.33984375 817.0078125 1176.10351562 c 0,57,58
 742.9609375 1254 742.9609375 1254 635.530273438 1254 c 128,-1,59
 528.1015625 1254 528.1015625 1254 455.6171875 1184.36816406 c 0,60,61
 379.818359375 1111.55371094 379.818359375 1111.55371094 344.40234375 978.999023438 c 0,62,63
 304.690429688 832.014648438 304.690429688 832.014648438 304.690429688 640.368164062 c 0,64,65
 304.690429688 520.846679688 304.690429688 520.846679688 318.1953125 432.348632812 c 0,66,67
 326.053710938 380.859375 326.053710938 380.859375 344.219726562 330.296875 c 128,-1,68
 362.385742188 279.734375 362.385742188 279.734375 386.927734375 246.133789062 c 128,-1,41
 411.470703125 212.534179688 411.470703125 212.534179688 448.5390625 192.766601562 c 128,-1,42
EndSplineSet
EndChar

StartChar: P
Encoding: 80 80 48
Width: 1216
GlyphClass: 2
Flags: W
LayerCount: 2
Fore
SplineSet
358.287109375 223.401367188 m 0,0,1
 372.318359375 76.765625 372.318359375 76.765625 372.318359375 66.2705078125 c 0,2,3
 372.318359375 15.7138671875 372.318359375 15.7138671875 322.044921875 -12.904296875 c 0,4,5
 282.034179688 -39.154296875 282.034179688 -39.154296875 233.619140625 -39.154296875 c 0,6,7
 175.341796875 -39.154296875 175.341796875 -39.154296875 138.922851562 -5.986328125 c 0,8,9
 106.98828125 22.12890625 106.98828125 22.12890625 106.98828125 69.3779296875 c 0,10,11
 106.98828125 76.923828125 106.98828125 76.923828125 108.372070312 96.5556640625 c 0,12,13
 110.37109375 124.913085938 110.37109375 124.913085938 110.37109375 194.037109375 c 0,14,15
 110.37109375 309.393554688 110.37109375 309.393554688 105.752929688 509.1875 c 0,16,17
 97.697265625 848.711914062 97.697265625 848.711914062 96.7216796875 912.455078125 c 0,18,19
 94.255859375 1073.55273438 94.255859375 1073.55273438 98.51171875 1259.33984375 c 1,20,21
 96.7919921875 1243.01953125 96.7919921875 1243.01953125 95.072265625 1262.66601562 c 1,22,23
 94.107421875 1245.52929688 94.107421875 1245.52929688 93.142578125 1264.53125 c 1,24,25
 75.2578125 1291.54589844 75.2578125 1291.54589844 75.2578125 1317.77246094 c 0,26,27
 75.2578125 1325.296875 75.2578125 1325.296875 76.626953125 1332.79394531 c 0,28,29
 82.3330078125 1364.05078125 82.3330078125 1364.05078125 104.716796875 1388.78125 c 0,30,31
 127.41015625 1413.85449219 127.41015625 1413.85449219 155.133789062 1420.28222656 c 0,32,33
 231.030273438 1437.13769531 231.030273438 1437.13769531 380.638671875 1446.90136719 c 0,34,35
 538.834960938 1457 538.834960938 1457 602.244140625 1457 c 0,36,37
 761.563476562 1457 761.563476562 1457 886.751953125 1406.12011719 c 0,38,39
 1001.75195312 1355.24023438 1001.75195312 1355.24023438 1070.23828125 1252.13867188 c 128,-1,40
 1138.63964844 1149.16894531 1138.63964844 1149.16894531 1140.7421875 1007.484375 c 1,41,42
 1140.7421875 993.759765625 1140.7421875 993.759765625 1140.7421875 1007.125 c 2,43,44
 1140.7421875 891.534179688 1140.7421875 891.534179688 1102.18359375 788.815429688 c 128,-1,45
 1063.625 686.096679688 1063.625 686.096679688 995.306640625 610.1953125 c 128,-1,46
 926.98828125 534.293945312 926.98828125 534.293945312 821.744140625 490.161132812 c 0,47,48
 713.379882812 446 713.379882812 446 586.908203125 446 c 0,49,50
 436.732421875 446 436.732421875 446 339.913085938 461.946289062 c 1,51,52
 346.634765625 345.604492188 346.634765625 345.604492188 358.287109375 223.401367188 c 0,0,1
333.709960938 685.052734375 m 1,53,54
 414.265625 663 414.265625 663 520.086914062 663 c 0,55,56
 582.201171875 663 582.201171875 663 633.299804688 671.211914062 c 128,-1,57
 684.399414062 679.423828125 684.399414062 679.423828125 720.603515625 692.18359375 c 128,-1,58
 756.807617188 704.942382812 756.807617188 704.942382812 785.373046875 725.551757812 c 128,-1,59
 813.938476562 746.16015625 813.938476562 746.16015625 832.654296875 765.983398438 c 128,-1,60
 851.369140625 785.806640625 851.369140625 785.806640625 865.015625 813.66796875 c 128,-1,61
 878.663085938 841.529296875 878.663085938 841.529296875 885.837890625 864.3984375 c 128,-1,62
 892.9609375 887.10546875 892.9609375 887.10546875 896.975585938 918.370117188 c 128,-1,63
 900.813476562 949.634765625 900.813476562 949.634765625 901.779296875 970.013671875 c 128,-1,64
 902.74609375 990.392578125 902.74609375 990.392578125 902.74609375 1018.59277344 c 0,65,66
 902.74609375 1068.96679688 902.74609375 1068.96679688 882.94140625 1108.34277344 c 0,67,68
 862.392578125 1147.72558594 862.392578125 1147.72558594 831.680664062 1171.18652344 c 128,-1,69
 800.966796875 1194.64746094 800.966796875 1194.64746094 758.864257812 1211.06933594 c 128,-1,70
 716.762695312 1227.49121094 716.762695312 1227.49121094 677.958984375 1233.74609375 c 128,-1,71
 639.15625 1240 639.15625 1240 602.244140625 1240 c 0,72,73
 530.484375 1240 530.484375 1240 345.178710938 1225.69238281 c 1,74,75
 336.814453125 980.103515625 336.814453125 980.103515625 335.157226562 895.645507812 c 0,76,77
 332.947265625 783.0078125 332.947265625 783.0078125 333.709960938 685.052734375 c 1,53,54
EndSplineSet
EndChar

